%FSLAX46Y46*%
G04 Gerber Fmt 4.6, Leading zero omitted, Abs format (unit mm)*
G04 Created by KiCad (PCBNEW (2014-10-27 BZR 5228)-product) date Fri 14 Nov 2014 06:43:38 PM PST*
%MOMM*%
G01*
G04 APERTURE LIST*
%ADD10C,0.100000*%
%ADD11O,1.822400X1.822400*%
%ADD12O,2.076400X2.076400*%
%ADD13C,4.210000*%
%ADD14R,1.924000X1.924000*%
%ADD15C,1.924000*%
%ADD16C,2.398980*%
G04 APERTURE END LIST*
D10*
D11*
X116586000Y-80911700D03*
X119126000Y-80911700D03*
X121666000Y-80911700D03*
X124206000Y-80911700D03*
X126746000Y-80911700D03*
X129286000Y-80911700D03*
X131826000Y-80911700D03*
X134366000Y-80911700D03*
X136906000Y-80911700D03*
X139446000Y-80911700D03*
X184150000Y-80911700D03*
X181610000Y-80911700D03*
X179070000Y-80911700D03*
X176530000Y-80911700D03*
X173990000Y-80911700D03*
X171450000Y-80911700D03*
X168910000Y-80911700D03*
X166370000Y-80911700D03*
D12*
X191770000Y-80912000D03*
X194310000Y-80912000D03*
X191770000Y-83452000D03*
X194310000Y-83452000D03*
X191770000Y-85992000D03*
X194310000Y-85992000D03*
X191770000Y-88532000D03*
X194310000Y-88532000D03*
X191770000Y-91072000D03*
X194310000Y-91072000D03*
X191770000Y-93612000D03*
X194310000Y-93612000D03*
X191770000Y-96152000D03*
X194310000Y-96152000D03*
X191770000Y-98692000D03*
X194310000Y-98692000D03*
X191770000Y-101232000D03*
X194310000Y-101232000D03*
X191770000Y-103772000D03*
X194310000Y-103772000D03*
X191770000Y-106312000D03*
X194310000Y-106312000D03*
X191770000Y-108852000D03*
X194310000Y-108852000D03*
X191770000Y-111392000D03*
X194310000Y-111392000D03*
X191770000Y-113932000D03*
X194310000Y-113932000D03*
X191770000Y-116472000D03*
X194310000Y-116472000D03*
X191770000Y-119012000D03*
X194310000Y-119012000D03*
X191770000Y-121552000D03*
X194310000Y-121552000D03*
X191770000Y-124092000D03*
X194310000Y-124092000D03*
D11*
X125730000Y-129172000D03*
X128270000Y-129172000D03*
X130810000Y-129172000D03*
X133350000Y-129172000D03*
X135890000Y-129172000D03*
X138430000Y-129172000D03*
X140970000Y-129172000D03*
X143510000Y-129172000D03*
D13*
X111912000Y-102591000D03*
X111912000Y-127991000D03*
D14*
X114452000Y-120879000D03*
D15*
X114452000Y-118085000D03*
X114452000Y-115418000D03*
X114452000Y-112624000D03*
X114452000Y-109830000D03*
X111912000Y-119482000D03*
X111912000Y-116688000D03*
X111912000Y-114021000D03*
X111912000Y-111227000D03*
D13*
X156083000Y-118110000D03*
X181483000Y-118110000D03*
D14*
X163322000Y-115570000D03*
D15*
X166116000Y-115570000D03*
X168910000Y-115570000D03*
X171577000Y-115570000D03*
X174371000Y-115570000D03*
X172974000Y-118110000D03*
X170180000Y-118110000D03*
X167513000Y-118110000D03*
X164719000Y-118110000D03*
D16*
X149658940Y-95862140D03*
X149658940Y-89862660D03*
X145658440Y-95862140D03*
X145658440Y-89862660D03*
X141657940Y-95862140D03*
X141657940Y-89862660D03*
X137659980Y-95862140D03*
X137659980Y-89862660D03*
X133659480Y-95862140D03*
X133659480Y-89862660D03*
X129658980Y-95862140D03*
X129658980Y-89862660D03*
X125661020Y-95862140D03*
X125661020Y-89862660D03*
X121660520Y-95862140D03*
X121660520Y-89862660D03*
X117660020Y-95862140D03*
X117660020Y-89862660D03*
X113662060Y-95862140D03*
X113662060Y-89862660D03*
X109661560Y-95862140D03*
X109661560Y-89862660D03*
X105661060Y-95862140D03*
X105661060Y-89862660D03*
M02*
