%FSLAX46Y46*%
G04 Gerber Fmt 4.6, Leading zero omitted, Abs format (unit mm)*
G04 Created by KiCad (PCBNEW (2014-10-27 BZR 5228)-product) date Fri 14 Nov 2014 06:43:38 PM PST*
%MOMM*%
G01*
G04 APERTURE LIST*
%ADD10C,0.100000*%
%ADD11O,1.422400X1.422400*%
%ADD12O,1.676400X1.676400*%
%ADD13C,3.810000*%
%ADD14R,1.524000X1.524000*%
%ADD15C,1.524000*%
%ADD16C,1.998980*%
%ADD17C,0.685800*%
%ADD18C,0.254000*%
%ADD19C,0.508000*%
G04 APERTURE END LIST*
D10*
D11*
X116586000Y-80911700D03*
X119126000Y-80911700D03*
X121666000Y-80911700D03*
X124206000Y-80911700D03*
X126746000Y-80911700D03*
X129286000Y-80911700D03*
X131826000Y-80911700D03*
X134366000Y-80911700D03*
X136906000Y-80911700D03*
X139446000Y-80911700D03*
X184150000Y-80911700D03*
X181610000Y-80911700D03*
X179070000Y-80911700D03*
X176530000Y-80911700D03*
X173990000Y-80911700D03*
X171450000Y-80911700D03*
X168910000Y-80911700D03*
X166370000Y-80911700D03*
D12*
X191770000Y-80912000D03*
X194310000Y-80912000D03*
X191770000Y-83452000D03*
X194310000Y-83452000D03*
X191770000Y-85992000D03*
X194310000Y-85992000D03*
X191770000Y-88532000D03*
X194310000Y-88532000D03*
X191770000Y-91072000D03*
X194310000Y-91072000D03*
X191770000Y-93612000D03*
X194310000Y-93612000D03*
X191770000Y-96152000D03*
X194310000Y-96152000D03*
X191770000Y-98692000D03*
X194310000Y-98692000D03*
X191770000Y-101232000D03*
X194310000Y-101232000D03*
X191770000Y-103772000D03*
X194310000Y-103772000D03*
X191770000Y-106312000D03*
X194310000Y-106312000D03*
X191770000Y-108852000D03*
X194310000Y-108852000D03*
X191770000Y-111392000D03*
X194310000Y-111392000D03*
X191770000Y-113932000D03*
X194310000Y-113932000D03*
X191770000Y-116472000D03*
X194310000Y-116472000D03*
X191770000Y-119012000D03*
X194310000Y-119012000D03*
X191770000Y-121552000D03*
X194310000Y-121552000D03*
X191770000Y-124092000D03*
X194310000Y-124092000D03*
D11*
X125730000Y-129172000D03*
X128270000Y-129172000D03*
X130810000Y-129172000D03*
X133350000Y-129172000D03*
X135890000Y-129172000D03*
X138430000Y-129172000D03*
X140970000Y-129172000D03*
X143510000Y-129172000D03*
D13*
X111912000Y-102591000D03*
X111912000Y-127991000D03*
D14*
X114452000Y-120879000D03*
D15*
X114452000Y-118085000D03*
X114452000Y-115418000D03*
X114452000Y-112624000D03*
X114452000Y-109830000D03*
X111912000Y-119482000D03*
X111912000Y-116688000D03*
X111912000Y-114021000D03*
X111912000Y-111227000D03*
D13*
X156083000Y-118110000D03*
X181483000Y-118110000D03*
D14*
X163322000Y-115570000D03*
D15*
X166116000Y-115570000D03*
X168910000Y-115570000D03*
X171577000Y-115570000D03*
X174371000Y-115570000D03*
X172974000Y-118110000D03*
X170180000Y-118110000D03*
X167513000Y-118110000D03*
X164719000Y-118110000D03*
D16*
X149658940Y-95862140D03*
X149658940Y-89862660D03*
X145658440Y-95862140D03*
X145658440Y-89862660D03*
X141657940Y-95862140D03*
X141657940Y-89862660D03*
X137659980Y-95862140D03*
X137659980Y-89862660D03*
X133659480Y-95862140D03*
X133659480Y-89862660D03*
X129658980Y-95862140D03*
X129658980Y-89862660D03*
X125661020Y-95862140D03*
X125661020Y-89862660D03*
X121660520Y-95862140D03*
X121660520Y-89862660D03*
X117660020Y-95862140D03*
X117660020Y-89862660D03*
X113662060Y-95862140D03*
X113662060Y-89862660D03*
X109661560Y-95862140D03*
X109661560Y-89862660D03*
X105661060Y-95862140D03*
X105661060Y-89862660D03*
D17*
X171296300Y-106787200D03*
X135302600Y-111244200D03*
X139790000Y-85530000D03*
X140160000Y-94270000D03*
X139640000Y-97240000D03*
X139420000Y-99750000D03*
X141150000Y-100750000D03*
X142610000Y-101250000D03*
X145460000Y-99630000D03*
X148030000Y-102040000D03*
X149760000Y-104050000D03*
X153110000Y-107290000D03*
X149700000Y-107850000D03*
X147240000Y-107350000D03*
X145010000Y-108800000D03*
X146010000Y-109640000D03*
X144280000Y-112930000D03*
X140920000Y-114000000D03*
X139750000Y-113330000D03*
X140690000Y-111840000D03*
X142600000Y-112040000D03*
X142720000Y-113230000D03*
X143540000Y-114100000D03*
X150440000Y-117090000D03*
X158500000Y-110590000D03*
X159690000Y-111200000D03*
X160450000Y-112220000D03*
X161240000Y-113000000D03*
X159590000Y-114680000D03*
X158050000Y-113380000D03*
X157670000Y-112170000D03*
X155900000Y-112960000D03*
X155180000Y-113790000D03*
X154830000Y-114450000D03*
X152940000Y-116620000D03*
X151700000Y-117760000D03*
X149510000Y-118200000D03*
X147330000Y-118180000D03*
X145710000Y-118090000D03*
X143360000Y-118010000D03*
X141600000Y-118180000D03*
X139610000Y-118010000D03*
X138440000Y-118030000D03*
X122939300Y-83169300D03*
X120620000Y-85500000D03*
X121349300Y-84759300D03*
X122200000Y-83980000D03*
X120560000Y-82340000D03*
X119750000Y-82980000D03*
X119030000Y-83700000D03*
X118190000Y-84480000D03*
X119880000Y-86250000D03*
X137576200Y-105856300D03*
X132775000Y-100370200D03*
X164720000Y-105026400D03*
X116930000Y-107340000D03*
X117830000Y-106450000D03*
X118576000Y-105706000D03*
X118480000Y-100720000D03*
X118490000Y-99320000D03*
X118460000Y-98330000D03*
X117270000Y-98080000D03*
X117070000Y-99220000D03*
X116710000Y-100520000D03*
X116630000Y-101690000D03*
X117720000Y-101740000D03*
X117890000Y-100080000D03*
X134980000Y-124820000D03*
X132590000Y-122430000D03*
X130510000Y-120450000D03*
X129330000Y-119250000D03*
X127960000Y-118080000D03*
X126580000Y-116440000D03*
X125790000Y-115820000D03*
X129990000Y-116440000D03*
X131220000Y-117580000D03*
X132300000Y-118650000D03*
X133830000Y-120070000D03*
X135360000Y-116640000D03*
X137460000Y-116570000D03*
X176380000Y-86800000D03*
X177670000Y-88150000D03*
X180190000Y-89430000D03*
X184790000Y-89920000D03*
X184630000Y-92300000D03*
X178940000Y-96720000D03*
X177340000Y-99620000D03*
X179760000Y-101500000D03*
X180770000Y-100150000D03*
X178510000Y-99260000D03*
X180010000Y-97510000D03*
X183520000Y-97360000D03*
X183570000Y-99390000D03*
X185450000Y-99360000D03*
X186330000Y-96700000D03*
X187250000Y-94950000D03*
X187250000Y-93520000D03*
X185830000Y-92000000D03*
X186280000Y-89840000D03*
X190830000Y-89790000D03*
X189360000Y-92180000D03*
X187530000Y-97280000D03*
X186820000Y-99090000D03*
X175310000Y-102820000D03*
X173560000Y-102790000D03*
X174850000Y-100330000D03*
X176710000Y-97380000D03*
X173490000Y-96650000D03*
X172640000Y-94620000D03*
X171480000Y-94740000D03*
X169190000Y-97410000D03*
X167160000Y-95500000D03*
X166190000Y-96650000D03*
X163280000Y-94660000D03*
X162000000Y-89070000D03*
X157690000Y-85330000D03*
X150010000Y-81220000D03*
X163830000Y-84620000D03*
X164710000Y-91400000D03*
X168250000Y-98170000D03*
X168300000Y-99490000D03*
X169770000Y-98210000D03*
X172770000Y-97370000D03*
X177780000Y-96400000D03*
X176570000Y-100870000D03*
X176580000Y-108170000D03*
X177840000Y-108180000D03*
X178960000Y-108180000D03*
X180040000Y-108180000D03*
X181090000Y-108170000D03*
X182310000Y-108180000D03*
X183440000Y-108170000D03*
X184070000Y-108870000D03*
X186920000Y-109770000D03*
X183310000Y-111860000D03*
X180770000Y-112040000D03*
X176610000Y-113870000D03*
X177710000Y-85190000D03*
X150160000Y-85510000D03*
X148800000Y-84160000D03*
X147710000Y-82950000D03*
X146510000Y-81750000D03*
X147970000Y-81260000D03*
X169580000Y-93250000D03*
X172660000Y-90170000D03*
X173380000Y-89470000D03*
X177570000Y-85320000D03*
X126118700Y-113019900D03*
X132775000Y-97865800D03*
X165697700Y-106976600D03*
X132764300Y-99080800D03*
X132808000Y-113135300D03*
X132809500Y-111107900D03*
X135453600Y-112546100D03*
X136143800Y-113476700D03*
X190446700Y-123387300D03*
X167458600Y-106222400D03*
X150280700Y-88147600D03*
X168297700Y-106164600D03*
X171903000Y-98256500D03*
X169727700Y-106959700D03*
D18*
X173990000Y-80911700D02*
X174980900Y-80911700D01*
X180061200Y-85992000D02*
X174980900Y-80911700D01*
X191770000Y-85992000D02*
X180061200Y-85992000D01*
X171450000Y-80911700D02*
X172440900Y-80911700D01*
X172440900Y-85283300D02*
X172440900Y-80911700D01*
X178204300Y-91046700D02*
X172440900Y-85283300D01*
X171228700Y-106719600D02*
X171296300Y-106787200D01*
X171228700Y-98022300D02*
X171228700Y-106719600D01*
X178204300Y-91046700D02*
X171228700Y-98022300D01*
X178229600Y-91072000D02*
X178204300Y-91046700D01*
X191770000Y-91072000D02*
X178229600Y-91072000D01*
X170459000Y-83451600D02*
X168910000Y-81902600D01*
X170459000Y-106873200D02*
X170459000Y-83451600D01*
X172392100Y-108806300D02*
X170459000Y-106873200D01*
X182465600Y-108806300D02*
X172392100Y-108806300D01*
X191553400Y-117894100D02*
X182465600Y-108806300D01*
X192353800Y-117894100D02*
X191553400Y-117894100D01*
X193192100Y-118732400D02*
X192353800Y-117894100D01*
X193192100Y-119012000D02*
X193192100Y-118732400D01*
X194310000Y-119012000D02*
X193192100Y-119012000D01*
X168910000Y-80911700D02*
X168910000Y-81902600D01*
X129286000Y-80911700D02*
X129286000Y-81902600D01*
X134780000Y-111766800D02*
X135302600Y-111244200D01*
X132523000Y-111766800D02*
X134780000Y-111766800D01*
X131038500Y-110282300D02*
X132523000Y-111766800D01*
X131038500Y-83655100D02*
X131038500Y-110282300D01*
X129286000Y-81902600D02*
X131038500Y-83655100D01*
X114452000Y-120879000D02*
X114452000Y-119837300D01*
X113410300Y-118795600D02*
X114452000Y-119837300D01*
X113410300Y-109110600D02*
X113410300Y-118795600D01*
X114973900Y-107547000D02*
X113410300Y-109110600D01*
X114973900Y-91174500D02*
X114973900Y-107547000D01*
X113662100Y-89862700D02*
X114973900Y-91174500D01*
X124357600Y-88559300D02*
X125661000Y-89862700D01*
X121137300Y-88559300D02*
X124357600Y-88559300D01*
X120167400Y-89529200D02*
X121137300Y-88559300D01*
X120167400Y-112369600D02*
X120167400Y-89529200D01*
X114452000Y-118085000D02*
X120167400Y-112369600D01*
X119760600Y-107315400D02*
X114452000Y-112624000D01*
X119760600Y-87938500D02*
X119760600Y-107315400D01*
X125476000Y-82223100D02*
X119760600Y-87938500D01*
X125476000Y-80751000D02*
X125476000Y-82223100D01*
X126309800Y-79917200D02*
X125476000Y-80751000D01*
X139912500Y-79917200D02*
X126309800Y-79917200D01*
X149658900Y-89663600D02*
X139912500Y-79917200D01*
X149658900Y-89862700D02*
X149658900Y-89663600D01*
X137576200Y-118010000D02*
X138420000Y-118010000D01*
X139790000Y-93900000D02*
X139790000Y-85530000D01*
X140160000Y-94270000D02*
X139790000Y-93900000D01*
X139640000Y-99530000D02*
X139640000Y-97240000D01*
X139420000Y-99750000D02*
X139640000Y-99530000D01*
X142110000Y-100750000D02*
X141150000Y-100750000D01*
X142610000Y-101250000D02*
X142110000Y-100750000D01*
X145620000Y-99630000D02*
X145460000Y-99630000D01*
X148030000Y-102040000D02*
X145620000Y-99630000D01*
X149870000Y-104050000D02*
X149760000Y-104050000D01*
X153110000Y-107290000D02*
X149870000Y-104050000D01*
X147740000Y-107850000D02*
X149700000Y-107850000D01*
X147240000Y-107350000D02*
X147740000Y-107850000D01*
X145170000Y-108800000D02*
X145010000Y-108800000D01*
X146010000Y-109640000D02*
X145170000Y-108800000D01*
X141990000Y-112930000D02*
X144280000Y-112930000D01*
X140920000Y-114000000D02*
X141990000Y-112930000D01*
X139750000Y-112780000D02*
X139750000Y-113330000D01*
X140690000Y-111840000D02*
X139750000Y-112780000D01*
X142600000Y-113110000D02*
X142600000Y-112040000D01*
X142720000Y-113230000D02*
X142600000Y-113110000D01*
X146430000Y-116990000D02*
X143540000Y-114100000D01*
X150340000Y-116990000D02*
X146430000Y-116990000D01*
X150440000Y-117090000D02*
X150340000Y-116990000D01*
X159080000Y-110590000D02*
X158500000Y-110590000D01*
X159690000Y-111200000D02*
X159080000Y-110590000D01*
X160460000Y-112220000D02*
X160450000Y-112220000D01*
X161240000Y-113000000D02*
X160460000Y-112220000D01*
X159350000Y-114680000D02*
X159590000Y-114680000D01*
X158050000Y-113380000D02*
X159350000Y-114680000D01*
X156690000Y-112170000D02*
X157670000Y-112170000D01*
X155900000Y-112960000D02*
X156690000Y-112170000D01*
X155180000Y-114100000D02*
X155180000Y-113790000D01*
X154830000Y-114450000D02*
X155180000Y-114100000D01*
X152840000Y-116620000D02*
X152940000Y-116620000D01*
X151700000Y-117760000D02*
X152840000Y-116620000D01*
X147350000Y-118200000D02*
X149510000Y-118200000D01*
X147330000Y-118180000D02*
X147350000Y-118200000D01*
X143440000Y-118090000D02*
X145710000Y-118090000D01*
X143360000Y-118010000D02*
X143440000Y-118090000D01*
X139780000Y-118180000D02*
X141600000Y-118180000D01*
X139610000Y-118010000D02*
X139780000Y-118180000D01*
X138420000Y-118010000D02*
X138440000Y-118030000D01*
X119604300Y-86504300D02*
X119625700Y-86504300D01*
X122939300Y-83180700D02*
X122939300Y-83169300D01*
X120620000Y-85500000D02*
X122939300Y-83180700D01*
X121420700Y-84759300D02*
X121349300Y-84759300D01*
X122200000Y-83980000D02*
X121420700Y-84759300D01*
X120390000Y-82340000D02*
X120560000Y-82340000D01*
X119750000Y-82980000D02*
X120390000Y-82340000D01*
X118970000Y-83700000D02*
X119030000Y-83700000D01*
X118190000Y-84480000D02*
X118970000Y-83700000D01*
X119625700Y-86504300D02*
X119880000Y-86250000D01*
X138430000Y-129172000D02*
X138430000Y-128181100D01*
X191770000Y-124092000D02*
X190652100Y-124092000D01*
X119353800Y-104928200D02*
X114452000Y-109830000D01*
X119353800Y-100690000D02*
X119353800Y-104928200D01*
X119353800Y-86754800D02*
X119353800Y-100690000D01*
X124206000Y-81902600D02*
X119604300Y-86504300D01*
X119604300Y-86504300D02*
X119353800Y-86754800D01*
X124206000Y-80911700D02*
X124206000Y-81902600D01*
X137576200Y-127327300D02*
X138430000Y-128181100D01*
X137576200Y-116560000D02*
X137576200Y-118010000D01*
X137576200Y-105856300D02*
X137576200Y-116560000D01*
X137576200Y-118010000D02*
X137576200Y-127327300D01*
X132775000Y-101055100D02*
X132775000Y-100370200D01*
X137576200Y-105856300D02*
X132775000Y-101055100D01*
X190186000Y-124092000D02*
X190652100Y-124092000D01*
X188341500Y-122247500D02*
X190186000Y-124092000D01*
X188341500Y-121874200D02*
X188341500Y-122247500D01*
X182037300Y-115570000D02*
X188341500Y-121874200D01*
X174371000Y-115570000D02*
X182037300Y-115570000D01*
X174371000Y-114677400D02*
X164720000Y-105026400D01*
X174371000Y-115570000D02*
X174371000Y-114677400D01*
X117830000Y-106450000D02*
X118574000Y-105706000D01*
X118574000Y-105706000D02*
X118576000Y-105706000D01*
X114452000Y-109818000D02*
X116930000Y-107340000D01*
X114452000Y-109830000D02*
X114452000Y-109818000D01*
X118510000Y-100690000D02*
X118480000Y-100720000D01*
X118490000Y-99320000D02*
X118460000Y-99290000D01*
X118460000Y-99290000D02*
X118460000Y-98330000D01*
X117270000Y-98080000D02*
X117070000Y-98280000D01*
X117070000Y-98280000D02*
X117070000Y-99220000D01*
X116710000Y-100520000D02*
X116630000Y-100600000D01*
X116630000Y-100600000D02*
X116630000Y-101690000D01*
X117720000Y-101740000D02*
X117890000Y-101570000D01*
X117890000Y-101570000D02*
X117890000Y-100080000D01*
X119353800Y-100690000D02*
X118510000Y-100690000D01*
X134980000Y-124820000D02*
X132590000Y-122430000D01*
X130510000Y-120450000D02*
X129330000Y-119270000D01*
X129330000Y-119270000D02*
X129330000Y-119250000D01*
X127960000Y-118080000D02*
X126580000Y-116700000D01*
X126580000Y-116700000D02*
X126580000Y-116440000D01*
X125790000Y-115820000D02*
X126410000Y-116440000D01*
X126410000Y-116440000D02*
X129990000Y-116440000D01*
X131220000Y-117580000D02*
X132290000Y-118650000D01*
X132290000Y-118650000D02*
X132300000Y-118650000D01*
X133830000Y-120070000D02*
X135360000Y-118540000D01*
X135360000Y-118540000D02*
X135360000Y-116640000D01*
X137460000Y-116570000D02*
X137470000Y-116560000D01*
X137470000Y-116560000D02*
X137576200Y-116560000D01*
X174910000Y-115570000D02*
X174371000Y-115570000D01*
X176380000Y-86800000D02*
X177670000Y-88090000D01*
X177670000Y-88090000D02*
X177670000Y-88150000D01*
X180190000Y-89430000D02*
X180680000Y-89920000D01*
X180680000Y-89920000D02*
X184790000Y-89920000D01*
X184630000Y-92300000D02*
X180210000Y-96720000D01*
X180210000Y-96720000D02*
X178940000Y-96720000D01*
X177340000Y-99620000D02*
X179220000Y-101500000D01*
X179220000Y-101500000D02*
X179760000Y-101500000D01*
X180770000Y-100150000D02*
X179880000Y-99260000D01*
X179880000Y-99260000D02*
X178510000Y-99260000D01*
X180010000Y-97510000D02*
X180160000Y-97360000D01*
X180160000Y-97360000D02*
X183520000Y-97360000D01*
X183570000Y-99390000D02*
X183600000Y-99360000D01*
X183600000Y-99360000D02*
X185450000Y-99360000D01*
X186330000Y-96700000D02*
X187250000Y-95780000D01*
X187250000Y-95780000D02*
X187250000Y-94950000D01*
X187250000Y-93520000D02*
X185830000Y-92100000D01*
X185830000Y-92100000D02*
X185830000Y-92000000D01*
X186280000Y-89840000D02*
X186330000Y-89790000D01*
X186330000Y-89790000D02*
X190830000Y-89790000D01*
X189360000Y-92180000D02*
X187530000Y-94010000D01*
X187530000Y-94010000D02*
X187530000Y-97280000D01*
X186820000Y-99090000D02*
X183090000Y-102820000D01*
X183090000Y-102820000D02*
X175310000Y-102820000D01*
X173560000Y-102790000D02*
X174850000Y-101500000D01*
X174850000Y-101500000D02*
X174850000Y-100330000D01*
X176710000Y-97380000D02*
X175980000Y-96650000D01*
X175980000Y-96650000D02*
X173490000Y-96650000D01*
X172640000Y-94620000D02*
X172520000Y-94740000D01*
X172520000Y-94740000D02*
X171480000Y-94740000D01*
X169190000Y-97410000D02*
X167280000Y-95500000D01*
X167280000Y-95500000D02*
X167160000Y-95500000D01*
X166190000Y-96650000D02*
X164200000Y-94660000D01*
X164200000Y-94660000D02*
X163280000Y-94660000D01*
X162000000Y-89070000D02*
X158260000Y-85330000D01*
X158260000Y-85330000D02*
X157690000Y-85330000D01*
X150010000Y-81220000D02*
X153410000Y-84620000D01*
X153410000Y-84620000D02*
X163830000Y-84620000D01*
X164710000Y-91400000D02*
X168250000Y-94940000D01*
X168250000Y-94940000D02*
X168250000Y-98170000D01*
X168300000Y-99490000D02*
X169580000Y-98210000D01*
X169580000Y-98210000D02*
X169770000Y-98210000D01*
X172770000Y-97370000D02*
X173740000Y-96400000D01*
X173740000Y-96400000D02*
X177780000Y-96400000D01*
X176570000Y-100870000D02*
X176580000Y-100880000D01*
X176580000Y-100880000D02*
X176580000Y-108170000D01*
X177840000Y-108180000D02*
X178960000Y-108180000D01*
X180040000Y-108180000D02*
X180050000Y-108170000D01*
X180050000Y-108170000D02*
X181090000Y-108170000D01*
X182310000Y-108180000D02*
X182320000Y-108170000D01*
X182320000Y-108170000D02*
X183440000Y-108170000D01*
X184070000Y-108870000D02*
X184970000Y-109770000D01*
X184970000Y-109770000D02*
X186920000Y-109770000D01*
X183310000Y-111860000D02*
X183130000Y-112040000D01*
X183130000Y-112040000D02*
X180770000Y-112040000D01*
X176610000Y-113870000D02*
X174910000Y-115570000D01*
X150160000Y-85510000D02*
X148810000Y-84160000D01*
X148810000Y-84160000D02*
X148800000Y-84160000D01*
X147710000Y-82950000D02*
X146510000Y-81750000D01*
X147970000Y-81260000D02*
X159960000Y-93250000D01*
X159960000Y-93250000D02*
X169580000Y-93250000D01*
X172660000Y-90170000D02*
X173360000Y-89470000D01*
X173360000Y-89470000D02*
X173380000Y-89470000D01*
X177570000Y-85320000D02*
X177700000Y-85190000D01*
X177700000Y-85190000D02*
X177710000Y-85190000D01*
X113003500Y-118390500D02*
X111912000Y-119482000D01*
X113003500Y-107315800D02*
X113003500Y-118390500D01*
X114119900Y-106199400D02*
X113003500Y-107315800D01*
X114119900Y-96319900D02*
X114119900Y-106199400D01*
X113662100Y-95862100D02*
X114119900Y-96319900D01*
X126118700Y-96319800D02*
X126118700Y-113019900D01*
X125661000Y-95862100D02*
X126118700Y-96319800D01*
X163322000Y-115570000D02*
X162280300Y-115570000D01*
X146198600Y-111289400D02*
X132775000Y-97865800D01*
X157999700Y-111289400D02*
X146198600Y-111289400D01*
X162280300Y-115570000D02*
X157999700Y-111289400D01*
X166116000Y-118215900D02*
X166116000Y-115570000D01*
X154168900Y-130163000D02*
X166116000Y-118215900D01*
X135477600Y-130163000D02*
X154168900Y-130163000D01*
X134620000Y-129305400D02*
X135477600Y-130163000D01*
X134620000Y-127113700D02*
X134620000Y-129305400D01*
X123660800Y-116154500D02*
X134620000Y-127113700D01*
X123660800Y-91863000D02*
X123660800Y-116154500D01*
X121660500Y-89862700D02*
X123660800Y-91863000D01*
X162379600Y-109039600D02*
X168910000Y-115570000D01*
X152836400Y-109039600D02*
X162379600Y-109039600D01*
X133659500Y-89862700D02*
X152836400Y-109039600D01*
X164394200Y-108387200D02*
X171577000Y-115570000D01*
X156367000Y-108387200D02*
X164394200Y-108387200D01*
X144366900Y-96387100D02*
X156367000Y-108387200D01*
X144366900Y-91154200D02*
X144366900Y-96387100D01*
X145658400Y-89862700D02*
X144366900Y-91154200D01*
X156772900Y-106976600D02*
X165697700Y-106976600D01*
X145658400Y-95862100D02*
X156772900Y-106976600D01*
X172974000Y-114252900D02*
X172974000Y-118110000D01*
X165697700Y-106976600D02*
X172974000Y-114252900D01*
X169882200Y-118110000D02*
X170180000Y-118110000D01*
X167157800Y-115385600D02*
X169882200Y-118110000D01*
X167157800Y-115109100D02*
X167157800Y-115385600D01*
X161901700Y-109853000D02*
X167157800Y-115109100D01*
X147650400Y-109853000D02*
X161901700Y-109853000D01*
X133659500Y-95862100D02*
X147650400Y-109853000D01*
X155053200Y-130569800D02*
X167513000Y-118110000D01*
X133333700Y-130569800D02*
X155053200Y-130569800D01*
X131813500Y-129049600D02*
X133333700Y-130569800D01*
X131813500Y-127428900D02*
X131813500Y-129049600D01*
X121660500Y-117275900D02*
X131813500Y-127428900D01*
X121660500Y-95862100D02*
X121660500Y-117275900D01*
X160367400Y-118110000D02*
X164719000Y-118110000D01*
X157543600Y-115286200D02*
X160367400Y-118110000D01*
X148969700Y-115286200D02*
X157543600Y-115286200D01*
X132764300Y-99080800D02*
X148969700Y-115286200D01*
X126746000Y-80911700D02*
X126746000Y-81902600D01*
X127156800Y-107484100D02*
X132808000Y-113135300D01*
X127156800Y-82313400D02*
X127156800Y-107484100D01*
X126746000Y-81902600D02*
X127156800Y-82313400D01*
X131826000Y-80911700D02*
X131826000Y-81902600D01*
X131677600Y-109976000D02*
X132809500Y-111107900D01*
X131677600Y-82051000D02*
X131677600Y-109976000D01*
X131826000Y-81902600D02*
X131677600Y-82051000D01*
X134366000Y-80911700D02*
X134366000Y-81902600D01*
X132131000Y-84137600D02*
X134366000Y-81902600D01*
X132131000Y-103413600D02*
X132131000Y-84137600D01*
X135958800Y-107241400D02*
X132131000Y-103413600D01*
X135958800Y-112040900D02*
X135958800Y-107241400D01*
X135453600Y-112546100D02*
X135958800Y-112040900D01*
D19*
X136143800Y-127800300D02*
X135890000Y-128054100D01*
X136143800Y-113476700D02*
X136143800Y-127800300D01*
X135890000Y-129172000D02*
X135890000Y-128054100D01*
D18*
X194541600Y-97269900D02*
X194310000Y-97269900D01*
X195475500Y-98203800D02*
X194541600Y-97269900D01*
X195475500Y-119512500D02*
X195475500Y-98203800D01*
X194706000Y-120282000D02*
X195475500Y-119512500D01*
X193983900Y-120282000D02*
X194706000Y-120282000D01*
X193192000Y-121073900D02*
X193983900Y-120282000D01*
X193192000Y-121726100D02*
X193192000Y-121073900D01*
X192248100Y-122670000D02*
X193192000Y-121726100D01*
X191164000Y-122670000D02*
X192248100Y-122670000D01*
X190446700Y-123387300D02*
X191164000Y-122670000D01*
X194310000Y-96152000D02*
X194310000Y-97269900D01*
X164938700Y-103702500D02*
X167458600Y-106222400D01*
X161689500Y-103702500D02*
X164938700Y-103702500D01*
X146569200Y-88582200D02*
X161689500Y-103702500D01*
X142938400Y-88582200D02*
X146569200Y-88582200D01*
X141657900Y-89862700D02*
X142938400Y-88582200D01*
X168297700Y-106164600D02*
X150280700Y-88147600D01*
X191770000Y-96152000D02*
X190652100Y-96152000D01*
X188547600Y-98256500D02*
X171903000Y-98256500D01*
X190652100Y-96152000D02*
X188547600Y-98256500D01*
X118939200Y-94582900D02*
X117660000Y-95862100D01*
X118939200Y-86020500D02*
X118939200Y-94582900D01*
X122697800Y-82261900D02*
X118939200Y-86020500D01*
X122697800Y-81000000D02*
X122697800Y-82261900D01*
X124243000Y-79454800D02*
X122697800Y-81000000D01*
X142468500Y-79454800D02*
X124243000Y-79454800D01*
X169727700Y-106714000D02*
X142468500Y-79454800D01*
X169727700Y-106959700D02*
X169727700Y-106714000D01*
G36*
X124456196Y-82165272D02*
X119701200Y-86920269D01*
X119701200Y-86336130D01*
X123236615Y-82800715D01*
X123401796Y-82553505D01*
X123459799Y-82261900D01*
X123459800Y-82261900D01*
X123459800Y-82015817D01*
X123520991Y-82070599D01*
X123870911Y-82215529D01*
X124079000Y-82092339D01*
X124079000Y-81038700D01*
X124059000Y-81038700D01*
X124059000Y-80784700D01*
X124079000Y-80784700D01*
X124079000Y-80764700D01*
X124333000Y-80764700D01*
X124333000Y-80784700D01*
X124353000Y-80784700D01*
X124353000Y-81038700D01*
X124333000Y-81038700D01*
X124333000Y-82092339D01*
X124456196Y-82165272D01*
X124456196Y-82165272D01*
G37*
X124456196Y-82165272D02*
X119701200Y-86920269D01*
X119701200Y-86336130D01*
X123236615Y-82800715D01*
X123401796Y-82553505D01*
X123459799Y-82261900D01*
X123459800Y-82261900D01*
X123459800Y-82015817D01*
X123520991Y-82070599D01*
X123870911Y-82215529D01*
X124079000Y-82092339D01*
X124079000Y-81038700D01*
X124059000Y-81038700D01*
X124059000Y-80784700D01*
X124079000Y-80784700D01*
X124079000Y-80764700D01*
X124333000Y-80764700D01*
X124333000Y-80784700D01*
X124353000Y-80784700D01*
X124353000Y-81038700D01*
X124333000Y-81038700D01*
X124333000Y-82092339D01*
X124456196Y-82165272D01*
G36*
X132635969Y-130949700D02*
X114452440Y-130949700D01*
X114452440Y-127487979D01*
X114066563Y-126554085D01*
X113352673Y-125838948D01*
X112419454Y-125451441D01*
X111408979Y-125450560D01*
X110475085Y-125836437D01*
X109759948Y-126550327D01*
X109372441Y-127483546D01*
X109371560Y-128494021D01*
X109757437Y-129427915D01*
X110471327Y-130143052D01*
X111404546Y-130530559D01*
X112415021Y-130531440D01*
X113348915Y-130145563D01*
X114064052Y-129431673D01*
X114451559Y-128498454D01*
X114452440Y-127487979D01*
X114452440Y-130949700D01*
X107295834Y-130949700D01*
X107295834Y-95538446D01*
X107295834Y-89538966D01*
X107047522Y-88938005D01*
X106588133Y-88477814D01*
X105987607Y-88228454D01*
X105337366Y-88227886D01*
X104736405Y-88476198D01*
X104276214Y-88935587D01*
X104026854Y-89536113D01*
X104026286Y-90186354D01*
X104274598Y-90787315D01*
X104733987Y-91247506D01*
X105334513Y-91496866D01*
X105984754Y-91497434D01*
X106585715Y-91249122D01*
X107045906Y-90789733D01*
X107295266Y-90189207D01*
X107295834Y-89538966D01*
X107295834Y-95538446D01*
X107047522Y-94937485D01*
X106588133Y-94477294D01*
X105987607Y-94227934D01*
X105337366Y-94227366D01*
X104736405Y-94475678D01*
X104276214Y-94935067D01*
X104026854Y-95535593D01*
X104026286Y-96185834D01*
X104274598Y-96786795D01*
X104733987Y-97246986D01*
X105334513Y-97496346D01*
X105984754Y-97496914D01*
X106585715Y-97248602D01*
X107045906Y-96789213D01*
X107295266Y-96188687D01*
X107295834Y-95538446D01*
X107295834Y-130949700D01*
X100516381Y-130949700D01*
X100533798Y-130862139D01*
X100533798Y-130564821D01*
X100457813Y-130182819D01*
X100344035Y-129908133D01*
X100201868Y-129695365D01*
X100081470Y-129187016D01*
X98678414Y-128736034D01*
X98552000Y-108804751D01*
X98552000Y-81100621D01*
X98639561Y-81118038D01*
X98936879Y-81118038D01*
X99318881Y-81042053D01*
X99593567Y-80928275D01*
X99593567Y-80928274D01*
X99637379Y-80899000D01*
X100145854Y-80899000D01*
X100169438Y-80439109D01*
X100344035Y-80177807D01*
X100457813Y-79903121D01*
X100533798Y-79521119D01*
X100533798Y-79223801D01*
X100515875Y-79133700D01*
X123486469Y-79133700D01*
X122645481Y-79974687D01*
X122617907Y-79933419D01*
X122181168Y-79641599D01*
X121666000Y-79539126D01*
X121150832Y-79641599D01*
X120714093Y-79933419D01*
X120422273Y-80370158D01*
X120396000Y-80502241D01*
X120369727Y-80370158D01*
X120077907Y-79933419D01*
X119641168Y-79641599D01*
X119126000Y-79539126D01*
X118610832Y-79641599D01*
X118174093Y-79933419D01*
X117882273Y-80370158D01*
X117856000Y-80502241D01*
X117829727Y-80370158D01*
X117537907Y-79933419D01*
X117101168Y-79641599D01*
X116586000Y-79539126D01*
X116070832Y-79641599D01*
X115634093Y-79933419D01*
X115342273Y-80370158D01*
X115239800Y-80885326D01*
X115239800Y-80938074D01*
X115342273Y-81453242D01*
X115634093Y-81889981D01*
X116070832Y-82181801D01*
X116586000Y-82284274D01*
X117101168Y-82181801D01*
X117537907Y-81889981D01*
X117829727Y-81453242D01*
X117856000Y-81321158D01*
X117882273Y-81453242D01*
X118174093Y-81889981D01*
X118610832Y-82181801D01*
X119126000Y-82284274D01*
X119641168Y-82181801D01*
X120077907Y-81889981D01*
X120369727Y-81453242D01*
X120396000Y-81321158D01*
X120422273Y-81453242D01*
X120714093Y-81889981D01*
X121150832Y-82181801D01*
X121609111Y-82272958D01*
X118400385Y-85481685D01*
X118235204Y-85728895D01*
X118177200Y-86020500D01*
X118177200Y-88307611D01*
X117986567Y-88228454D01*
X117336326Y-88227886D01*
X116735365Y-88476198D01*
X116275174Y-88935587D01*
X116025814Y-89536113D01*
X116025246Y-90186354D01*
X116273558Y-90787315D01*
X116732947Y-91247506D01*
X117333473Y-91496866D01*
X117983714Y-91497434D01*
X118177200Y-91417487D01*
X118177200Y-94267270D01*
X118149062Y-94295407D01*
X117986567Y-94227934D01*
X117336326Y-94227366D01*
X116735365Y-94475678D01*
X116275174Y-94935067D01*
X116025814Y-95535593D01*
X116025246Y-96185834D01*
X116273558Y-96786795D01*
X116732947Y-97246986D01*
X117333473Y-97496346D01*
X117983714Y-97496914D01*
X118584675Y-97248602D01*
X118998600Y-96835398D01*
X118998600Y-106999770D01*
X115805941Y-110192428D01*
X115861144Y-110037698D01*
X115833362Y-109482632D01*
X115674397Y-109098857D01*
X115432213Y-109029392D01*
X114631605Y-109830000D01*
X114645747Y-109844142D01*
X114466142Y-110023747D01*
X114452000Y-110009605D01*
X114437857Y-110023747D01*
X114258252Y-109844142D01*
X114272395Y-109830000D01*
X114258252Y-109815857D01*
X114437857Y-109636252D01*
X114452000Y-109650395D01*
X115252608Y-108849787D01*
X115183143Y-108607603D01*
X115041471Y-108557059D01*
X115512715Y-108085816D01*
X115512715Y-108085815D01*
X115677896Y-107838605D01*
X115735899Y-107547000D01*
X115735900Y-107547000D01*
X115735900Y-91174500D01*
X115677896Y-90882895D01*
X115512715Y-90635685D01*
X115512715Y-90635684D01*
X115228774Y-90351744D01*
X115296266Y-90189207D01*
X115296834Y-89538966D01*
X115048522Y-88938005D01*
X114589133Y-88477814D01*
X113988607Y-88228454D01*
X113338366Y-88227886D01*
X112737405Y-88476198D01*
X112277214Y-88935587D01*
X112027854Y-89536113D01*
X112027286Y-90186354D01*
X112275598Y-90787315D01*
X112734987Y-91247506D01*
X113335513Y-91496866D01*
X113985754Y-91497434D01*
X114150946Y-91429177D01*
X114211900Y-91490130D01*
X114211900Y-94320653D01*
X113988607Y-94227934D01*
X113338366Y-94227366D01*
X112737405Y-94475678D01*
X112277214Y-94935067D01*
X112027854Y-95535593D01*
X112027286Y-96185834D01*
X112275598Y-96786795D01*
X112734987Y-97246986D01*
X113335513Y-97496346D01*
X113357900Y-97496365D01*
X113357900Y-100444184D01*
X113352673Y-100438948D01*
X112419454Y-100051441D01*
X111408979Y-100050560D01*
X111296334Y-100097103D01*
X111296334Y-95538446D01*
X111296334Y-89538966D01*
X111048022Y-88938005D01*
X110588633Y-88477814D01*
X109988107Y-88228454D01*
X109337866Y-88227886D01*
X108736905Y-88476198D01*
X108276714Y-88935587D01*
X108027354Y-89536113D01*
X108026786Y-90186354D01*
X108275098Y-90787315D01*
X108734487Y-91247506D01*
X109335013Y-91496866D01*
X109985254Y-91497434D01*
X110586215Y-91249122D01*
X111046406Y-90789733D01*
X111295766Y-90189207D01*
X111296334Y-89538966D01*
X111296334Y-95538446D01*
X111048022Y-94937485D01*
X110588633Y-94477294D01*
X109988107Y-94227934D01*
X109337866Y-94227366D01*
X108736905Y-94475678D01*
X108276714Y-94935067D01*
X108027354Y-95535593D01*
X108026786Y-96185834D01*
X108275098Y-96786795D01*
X108734487Y-97246986D01*
X109335013Y-97496346D01*
X109985254Y-97496914D01*
X110586215Y-97248602D01*
X111046406Y-96789213D01*
X111295766Y-96188687D01*
X111296334Y-95538446D01*
X111296334Y-100097103D01*
X110475085Y-100436437D01*
X109759948Y-101150327D01*
X109372441Y-102083546D01*
X109371560Y-103094021D01*
X109757437Y-104027915D01*
X110471327Y-104743052D01*
X111404546Y-105130559D01*
X112415021Y-105131440D01*
X113348915Y-104745563D01*
X113357900Y-104736593D01*
X113357900Y-105883770D01*
X112464685Y-106776985D01*
X112299504Y-107024195D01*
X112241500Y-107315800D01*
X112241500Y-109851170D01*
X112191100Y-109830243D01*
X111635339Y-109829758D01*
X111121697Y-110041990D01*
X110728371Y-110434630D01*
X110515243Y-110947900D01*
X110514758Y-111503661D01*
X110726990Y-112017303D01*
X111119630Y-112410629D01*
X111632900Y-112623757D01*
X111635336Y-112623759D01*
X111121697Y-112835990D01*
X110728371Y-113228630D01*
X110515243Y-113741900D01*
X110514758Y-114297661D01*
X110726990Y-114811303D01*
X111119630Y-115204629D01*
X111480814Y-115354605D01*
X111121697Y-115502990D01*
X110728371Y-115895630D01*
X110515243Y-116408900D01*
X110514758Y-116964661D01*
X110726990Y-117478303D01*
X111119630Y-117871629D01*
X111632900Y-118084757D01*
X111635336Y-118084759D01*
X111121697Y-118296990D01*
X110728371Y-118689630D01*
X110515243Y-119202900D01*
X110514758Y-119758661D01*
X110726990Y-120272303D01*
X111119630Y-120665629D01*
X111632900Y-120878757D01*
X112188661Y-120879242D01*
X112702303Y-120667010D01*
X113055000Y-120314928D01*
X113055000Y-121767309D01*
X113151673Y-122000698D01*
X113330301Y-122179327D01*
X113563690Y-122276000D01*
X113816309Y-122276000D01*
X115340309Y-122276000D01*
X115573698Y-122179327D01*
X115752327Y-122000699D01*
X115849000Y-121767310D01*
X115849000Y-121514691D01*
X115849000Y-119990691D01*
X115752327Y-119757302D01*
X115573699Y-119578673D01*
X115340310Y-119482000D01*
X115113436Y-119482000D01*
X115030315Y-119357601D01*
X115242303Y-119270010D01*
X115635629Y-118877370D01*
X115848757Y-118364100D01*
X115849242Y-117808339D01*
X115836683Y-117777946D01*
X120706215Y-112908416D01*
X120706215Y-112908415D01*
X120871396Y-112661205D01*
X120898500Y-112524944D01*
X120898500Y-117275900D01*
X120956504Y-117567505D01*
X121121685Y-117814715D01*
X131051500Y-127744530D01*
X131051500Y-127847463D01*
X130810000Y-127799426D01*
X130294832Y-127901899D01*
X129858093Y-128193719D01*
X129566273Y-128630458D01*
X129540000Y-128762541D01*
X129513727Y-128630458D01*
X129221907Y-128193719D01*
X128785168Y-127901899D01*
X128270000Y-127799426D01*
X127754832Y-127901899D01*
X127318093Y-128193719D01*
X127026273Y-128630458D01*
X127000000Y-128762541D01*
X126973727Y-128630458D01*
X126681907Y-128193719D01*
X126245168Y-127901899D01*
X125730000Y-127799426D01*
X125214832Y-127901899D01*
X124778093Y-128193719D01*
X124486273Y-128630458D01*
X124383800Y-129145626D01*
X124383800Y-129198374D01*
X124486273Y-129713542D01*
X124778093Y-130150281D01*
X125214832Y-130442101D01*
X125730000Y-130544574D01*
X126245168Y-130442101D01*
X126681907Y-130150281D01*
X126973727Y-129713542D01*
X127000000Y-129581458D01*
X127026273Y-129713542D01*
X127318093Y-130150281D01*
X127754832Y-130442101D01*
X128270000Y-130544574D01*
X128785168Y-130442101D01*
X129221907Y-130150281D01*
X129513727Y-129713542D01*
X129540000Y-129581458D01*
X129566273Y-129713542D01*
X129858093Y-130150281D01*
X130294832Y-130442101D01*
X130810000Y-130544574D01*
X131325168Y-130442101D01*
X131761907Y-130150281D01*
X131791805Y-130105535D01*
X132635969Y-130949700D01*
X132635969Y-130949700D01*
G37*
X132635969Y-130949700D02*
X114452440Y-130949700D01*
X114452440Y-127487979D01*
X114066563Y-126554085D01*
X113352673Y-125838948D01*
X112419454Y-125451441D01*
X111408979Y-125450560D01*
X110475085Y-125836437D01*
X109759948Y-126550327D01*
X109372441Y-127483546D01*
X109371560Y-128494021D01*
X109757437Y-129427915D01*
X110471327Y-130143052D01*
X111404546Y-130530559D01*
X112415021Y-130531440D01*
X113348915Y-130145563D01*
X114064052Y-129431673D01*
X114451559Y-128498454D01*
X114452440Y-127487979D01*
X114452440Y-130949700D01*
X107295834Y-130949700D01*
X107295834Y-95538446D01*
X107295834Y-89538966D01*
X107047522Y-88938005D01*
X106588133Y-88477814D01*
X105987607Y-88228454D01*
X105337366Y-88227886D01*
X104736405Y-88476198D01*
X104276214Y-88935587D01*
X104026854Y-89536113D01*
X104026286Y-90186354D01*
X104274598Y-90787315D01*
X104733987Y-91247506D01*
X105334513Y-91496866D01*
X105984754Y-91497434D01*
X106585715Y-91249122D01*
X107045906Y-90789733D01*
X107295266Y-90189207D01*
X107295834Y-89538966D01*
X107295834Y-95538446D01*
X107047522Y-94937485D01*
X106588133Y-94477294D01*
X105987607Y-94227934D01*
X105337366Y-94227366D01*
X104736405Y-94475678D01*
X104276214Y-94935067D01*
X104026854Y-95535593D01*
X104026286Y-96185834D01*
X104274598Y-96786795D01*
X104733987Y-97246986D01*
X105334513Y-97496346D01*
X105984754Y-97496914D01*
X106585715Y-97248602D01*
X107045906Y-96789213D01*
X107295266Y-96188687D01*
X107295834Y-95538446D01*
X107295834Y-130949700D01*
X100516381Y-130949700D01*
X100533798Y-130862139D01*
X100533798Y-130564821D01*
X100457813Y-130182819D01*
X100344035Y-129908133D01*
X100201868Y-129695365D01*
X100081470Y-129187016D01*
X98678414Y-128736034D01*
X98552000Y-108804751D01*
X98552000Y-81100621D01*
X98639561Y-81118038D01*
X98936879Y-81118038D01*
X99318881Y-81042053D01*
X99593567Y-80928275D01*
X99593567Y-80928274D01*
X99637379Y-80899000D01*
X100145854Y-80899000D01*
X100169438Y-80439109D01*
X100344035Y-80177807D01*
X100457813Y-79903121D01*
X100533798Y-79521119D01*
X100533798Y-79223801D01*
X100515875Y-79133700D01*
X123486469Y-79133700D01*
X122645481Y-79974687D01*
X122617907Y-79933419D01*
X122181168Y-79641599D01*
X121666000Y-79539126D01*
X121150832Y-79641599D01*
X120714093Y-79933419D01*
X120422273Y-80370158D01*
X120396000Y-80502241D01*
X120369727Y-80370158D01*
X120077907Y-79933419D01*
X119641168Y-79641599D01*
X119126000Y-79539126D01*
X118610832Y-79641599D01*
X118174093Y-79933419D01*
X117882273Y-80370158D01*
X117856000Y-80502241D01*
X117829727Y-80370158D01*
X117537907Y-79933419D01*
X117101168Y-79641599D01*
X116586000Y-79539126D01*
X116070832Y-79641599D01*
X115634093Y-79933419D01*
X115342273Y-80370158D01*
X115239800Y-80885326D01*
X115239800Y-80938074D01*
X115342273Y-81453242D01*
X115634093Y-81889981D01*
X116070832Y-82181801D01*
X116586000Y-82284274D01*
X117101168Y-82181801D01*
X117537907Y-81889981D01*
X117829727Y-81453242D01*
X117856000Y-81321158D01*
X117882273Y-81453242D01*
X118174093Y-81889981D01*
X118610832Y-82181801D01*
X119126000Y-82284274D01*
X119641168Y-82181801D01*
X120077907Y-81889981D01*
X120369727Y-81453242D01*
X120396000Y-81321158D01*
X120422273Y-81453242D01*
X120714093Y-81889981D01*
X121150832Y-82181801D01*
X121609111Y-82272958D01*
X118400385Y-85481685D01*
X118235204Y-85728895D01*
X118177200Y-86020500D01*
X118177200Y-88307611D01*
X117986567Y-88228454D01*
X117336326Y-88227886D01*
X116735365Y-88476198D01*
X116275174Y-88935587D01*
X116025814Y-89536113D01*
X116025246Y-90186354D01*
X116273558Y-90787315D01*
X116732947Y-91247506D01*
X117333473Y-91496866D01*
X117983714Y-91497434D01*
X118177200Y-91417487D01*
X118177200Y-94267270D01*
X118149062Y-94295407D01*
X117986567Y-94227934D01*
X117336326Y-94227366D01*
X116735365Y-94475678D01*
X116275174Y-94935067D01*
X116025814Y-95535593D01*
X116025246Y-96185834D01*
X116273558Y-96786795D01*
X116732947Y-97246986D01*
X117333473Y-97496346D01*
X117983714Y-97496914D01*
X118584675Y-97248602D01*
X118998600Y-96835398D01*
X118998600Y-106999770D01*
X115805941Y-110192428D01*
X115861144Y-110037698D01*
X115833362Y-109482632D01*
X115674397Y-109098857D01*
X115432213Y-109029392D01*
X114631605Y-109830000D01*
X114645747Y-109844142D01*
X114466142Y-110023747D01*
X114452000Y-110009605D01*
X114437857Y-110023747D01*
X114258252Y-109844142D01*
X114272395Y-109830000D01*
X114258252Y-109815857D01*
X114437857Y-109636252D01*
X114452000Y-109650395D01*
X115252608Y-108849787D01*
X115183143Y-108607603D01*
X115041471Y-108557059D01*
X115512715Y-108085816D01*
X115512715Y-108085815D01*
X115677896Y-107838605D01*
X115735899Y-107547000D01*
X115735900Y-107547000D01*
X115735900Y-91174500D01*
X115677896Y-90882895D01*
X115512715Y-90635685D01*
X115512715Y-90635684D01*
X115228774Y-90351744D01*
X115296266Y-90189207D01*
X115296834Y-89538966D01*
X115048522Y-88938005D01*
X114589133Y-88477814D01*
X113988607Y-88228454D01*
X113338366Y-88227886D01*
X112737405Y-88476198D01*
X112277214Y-88935587D01*
X112027854Y-89536113D01*
X112027286Y-90186354D01*
X112275598Y-90787315D01*
X112734987Y-91247506D01*
X113335513Y-91496866D01*
X113985754Y-91497434D01*
X114150946Y-91429177D01*
X114211900Y-91490130D01*
X114211900Y-94320653D01*
X113988607Y-94227934D01*
X113338366Y-94227366D01*
X112737405Y-94475678D01*
X112277214Y-94935067D01*
X112027854Y-95535593D01*
X112027286Y-96185834D01*
X112275598Y-96786795D01*
X112734987Y-97246986D01*
X113335513Y-97496346D01*
X113357900Y-97496365D01*
X113357900Y-100444184D01*
X113352673Y-100438948D01*
X112419454Y-100051441D01*
X111408979Y-100050560D01*
X111296334Y-100097103D01*
X111296334Y-95538446D01*
X111296334Y-89538966D01*
X111048022Y-88938005D01*
X110588633Y-88477814D01*
X109988107Y-88228454D01*
X109337866Y-88227886D01*
X108736905Y-88476198D01*
X108276714Y-88935587D01*
X108027354Y-89536113D01*
X108026786Y-90186354D01*
X108275098Y-90787315D01*
X108734487Y-91247506D01*
X109335013Y-91496866D01*
X109985254Y-91497434D01*
X110586215Y-91249122D01*
X111046406Y-90789733D01*
X111295766Y-90189207D01*
X111296334Y-89538966D01*
X111296334Y-95538446D01*
X111048022Y-94937485D01*
X110588633Y-94477294D01*
X109988107Y-94227934D01*
X109337866Y-94227366D01*
X108736905Y-94475678D01*
X108276714Y-94935067D01*
X108027354Y-95535593D01*
X108026786Y-96185834D01*
X108275098Y-96786795D01*
X108734487Y-97246986D01*
X109335013Y-97496346D01*
X109985254Y-97496914D01*
X110586215Y-97248602D01*
X111046406Y-96789213D01*
X111295766Y-96188687D01*
X111296334Y-95538446D01*
X111296334Y-100097103D01*
X110475085Y-100436437D01*
X109759948Y-101150327D01*
X109372441Y-102083546D01*
X109371560Y-103094021D01*
X109757437Y-104027915D01*
X110471327Y-104743052D01*
X111404546Y-105130559D01*
X112415021Y-105131440D01*
X113348915Y-104745563D01*
X113357900Y-104736593D01*
X113357900Y-105883770D01*
X112464685Y-106776985D01*
X112299504Y-107024195D01*
X112241500Y-107315800D01*
X112241500Y-109851170D01*
X112191100Y-109830243D01*
X111635339Y-109829758D01*
X111121697Y-110041990D01*
X110728371Y-110434630D01*
X110515243Y-110947900D01*
X110514758Y-111503661D01*
X110726990Y-112017303D01*
X111119630Y-112410629D01*
X111632900Y-112623757D01*
X111635336Y-112623759D01*
X111121697Y-112835990D01*
X110728371Y-113228630D01*
X110515243Y-113741900D01*
X110514758Y-114297661D01*
X110726990Y-114811303D01*
X111119630Y-115204629D01*
X111480814Y-115354605D01*
X111121697Y-115502990D01*
X110728371Y-115895630D01*
X110515243Y-116408900D01*
X110514758Y-116964661D01*
X110726990Y-117478303D01*
X111119630Y-117871629D01*
X111632900Y-118084757D01*
X111635336Y-118084759D01*
X111121697Y-118296990D01*
X110728371Y-118689630D01*
X110515243Y-119202900D01*
X110514758Y-119758661D01*
X110726990Y-120272303D01*
X111119630Y-120665629D01*
X111632900Y-120878757D01*
X112188661Y-120879242D01*
X112702303Y-120667010D01*
X113055000Y-120314928D01*
X113055000Y-121767309D01*
X113151673Y-122000698D01*
X113330301Y-122179327D01*
X113563690Y-122276000D01*
X113816309Y-122276000D01*
X115340309Y-122276000D01*
X115573698Y-122179327D01*
X115752327Y-122000699D01*
X115849000Y-121767310D01*
X115849000Y-121514691D01*
X115849000Y-119990691D01*
X115752327Y-119757302D01*
X115573699Y-119578673D01*
X115340310Y-119482000D01*
X115113436Y-119482000D01*
X115030315Y-119357601D01*
X115242303Y-119270010D01*
X115635629Y-118877370D01*
X115848757Y-118364100D01*
X115849242Y-117808339D01*
X115836683Y-117777946D01*
X120706215Y-112908416D01*
X120706215Y-112908415D01*
X120871396Y-112661205D01*
X120898500Y-112524944D01*
X120898500Y-117275900D01*
X120956504Y-117567505D01*
X121121685Y-117814715D01*
X131051500Y-127744530D01*
X131051500Y-127847463D01*
X130810000Y-127799426D01*
X130294832Y-127901899D01*
X129858093Y-128193719D01*
X129566273Y-128630458D01*
X129540000Y-128762541D01*
X129513727Y-128630458D01*
X129221907Y-128193719D01*
X128785168Y-127901899D01*
X128270000Y-127799426D01*
X127754832Y-127901899D01*
X127318093Y-128193719D01*
X127026273Y-128630458D01*
X127000000Y-128762541D01*
X126973727Y-128630458D01*
X126681907Y-128193719D01*
X126245168Y-127901899D01*
X125730000Y-127799426D01*
X125214832Y-127901899D01*
X124778093Y-128193719D01*
X124486273Y-128630458D01*
X124383800Y-129145626D01*
X124383800Y-129198374D01*
X124486273Y-129713542D01*
X124778093Y-130150281D01*
X125214832Y-130442101D01*
X125730000Y-130544574D01*
X126245168Y-130442101D01*
X126681907Y-130150281D01*
X126973727Y-129713542D01*
X127000000Y-129581458D01*
X127026273Y-129713542D01*
X127318093Y-130150281D01*
X127754832Y-130442101D01*
X128270000Y-130544574D01*
X128785168Y-130442101D01*
X129221907Y-130150281D01*
X129513727Y-129713542D01*
X129540000Y-129581458D01*
X129566273Y-129713542D01*
X129858093Y-130150281D01*
X130294832Y-130442101D01*
X130810000Y-130544574D01*
X131325168Y-130442101D01*
X131761907Y-130150281D01*
X131791805Y-130105535D01*
X132635969Y-130949700D01*
G36*
X135254800Y-126718535D02*
X135158815Y-126574885D01*
X135158815Y-126574884D01*
X124422800Y-115838869D01*
X124422800Y-96935295D01*
X124733947Y-97246986D01*
X125334473Y-97496346D01*
X125356700Y-97496365D01*
X125356700Y-112398817D01*
X125290160Y-112465241D01*
X125140970Y-112824530D01*
X125140631Y-113213563D01*
X125289193Y-113573112D01*
X125564041Y-113848440D01*
X125923330Y-113997630D01*
X126312363Y-113997969D01*
X126671912Y-113849407D01*
X126947240Y-113574559D01*
X127096430Y-113215270D01*
X127096769Y-112826237D01*
X126948207Y-112466688D01*
X126880700Y-112399063D01*
X126880700Y-108285630D01*
X131830012Y-113234943D01*
X131829931Y-113328963D01*
X131978493Y-113688512D01*
X132253341Y-113963840D01*
X132612630Y-114113030D01*
X133001663Y-114113369D01*
X133361212Y-113964807D01*
X133636540Y-113689959D01*
X133785730Y-113330670D01*
X133786069Y-112941637D01*
X133637507Y-112582088D01*
X133584311Y-112528800D01*
X134475714Y-112528800D01*
X134475531Y-112739763D01*
X134624093Y-113099312D01*
X134898941Y-113374640D01*
X135165892Y-113485487D01*
X135165731Y-113670363D01*
X135254800Y-113885927D01*
X135254800Y-126718535D01*
X135254800Y-126718535D01*
G37*
X135254800Y-126718535D02*
X135158815Y-126574885D01*
X135158815Y-126574884D01*
X124422800Y-115838869D01*
X124422800Y-96935295D01*
X124733947Y-97246986D01*
X125334473Y-97496346D01*
X125356700Y-97496365D01*
X125356700Y-112398817D01*
X125290160Y-112465241D01*
X125140970Y-112824530D01*
X125140631Y-113213563D01*
X125289193Y-113573112D01*
X125564041Y-113848440D01*
X125923330Y-113997630D01*
X126312363Y-113997969D01*
X126671912Y-113849407D01*
X126947240Y-113574559D01*
X127096430Y-113215270D01*
X127096769Y-112826237D01*
X126948207Y-112466688D01*
X126880700Y-112399063D01*
X126880700Y-108285630D01*
X131830012Y-113234943D01*
X131829931Y-113328963D01*
X131978493Y-113688512D01*
X132253341Y-113963840D01*
X132612630Y-114113030D01*
X133001663Y-114113369D01*
X133361212Y-113964807D01*
X133636540Y-113689959D01*
X133785730Y-113330670D01*
X133786069Y-112941637D01*
X133637507Y-112582088D01*
X133584311Y-112528800D01*
X134475714Y-112528800D01*
X134475531Y-112739763D01*
X134624093Y-113099312D01*
X134898941Y-113374640D01*
X135165892Y-113485487D01*
X135165731Y-113670363D01*
X135254800Y-113885927D01*
X135254800Y-126718535D01*
G36*
X147314500Y-110527400D02*
X146514230Y-110527400D01*
X133752987Y-97766157D01*
X133753069Y-97672137D01*
X133680559Y-97496649D01*
X133983174Y-97496914D01*
X134148409Y-97428639D01*
X147111585Y-110391816D01*
X147314500Y-110527400D01*
X147314500Y-110527400D01*
G37*
X147314500Y-110527400D02*
X146514230Y-110527400D01*
X133752987Y-97766157D01*
X133753069Y-97672137D01*
X133680559Y-97496649D01*
X133983174Y-97496914D01*
X134148409Y-97428639D01*
X147111585Y-110391816D01*
X147314500Y-110527400D01*
G36*
X151810170Y-109091000D02*
X147966030Y-109091000D01*
X135226212Y-96351182D01*
X135293686Y-96188687D01*
X135294254Y-95538446D01*
X135045942Y-94937485D01*
X134586553Y-94477294D01*
X133986027Y-94227934D01*
X133335786Y-94227366D01*
X132893000Y-94410321D01*
X132893000Y-91314189D01*
X133332933Y-91496866D01*
X133983174Y-91497434D01*
X134148353Y-91429183D01*
X137060491Y-94341321D01*
X136735325Y-94475678D01*
X136275134Y-94935067D01*
X136025774Y-95535593D01*
X136025206Y-96185834D01*
X136273518Y-96786795D01*
X136732907Y-97246986D01*
X137333433Y-97496346D01*
X137983674Y-97496914D01*
X138584635Y-97248602D01*
X139044826Y-96789213D01*
X139180835Y-96461665D01*
X151810170Y-109091000D01*
X151810170Y-109091000D01*
G37*
X151810170Y-109091000D02*
X147966030Y-109091000D01*
X135226212Y-96351182D01*
X135293686Y-96188687D01*
X135294254Y-95538446D01*
X135045942Y-94937485D01*
X134586553Y-94477294D01*
X133986027Y-94227934D01*
X133335786Y-94227366D01*
X132893000Y-94410321D01*
X132893000Y-91314189D01*
X133332933Y-91496866D01*
X133983174Y-91497434D01*
X134148353Y-91429183D01*
X137060491Y-94341321D01*
X136735325Y-94475678D01*
X136275134Y-94935067D01*
X136025774Y-95535593D01*
X136025206Y-96185834D01*
X136273518Y-96786795D01*
X136732907Y-97246986D01*
X137333433Y-97496346D01*
X137983674Y-97496914D01*
X138584635Y-97248602D01*
X139044826Y-96789213D01*
X139180835Y-96461665D01*
X151810170Y-109091000D01*
G36*
X155179770Y-108277600D02*
X153152030Y-108277600D01*
X142257399Y-97382969D01*
X142582595Y-97248602D01*
X143042786Y-96789213D01*
X143292146Y-96188687D01*
X143292714Y-95538446D01*
X143044402Y-94937485D01*
X142585013Y-94477294D01*
X141984487Y-94227934D01*
X141334246Y-94227366D01*
X140733285Y-94475678D01*
X140273094Y-94935067D01*
X140137072Y-95262642D01*
X139294754Y-94420324D01*
X139294754Y-89538966D01*
X139046442Y-88938005D01*
X138587053Y-88477814D01*
X137986527Y-88228454D01*
X137336286Y-88227886D01*
X136735325Y-88476198D01*
X136275134Y-88935587D01*
X136025774Y-89536113D01*
X136025206Y-90186354D01*
X136273518Y-90787315D01*
X136732907Y-91247506D01*
X137333433Y-91496866D01*
X137983674Y-91497434D01*
X138584635Y-91249122D01*
X139044826Y-90789733D01*
X139294186Y-90189207D01*
X139294754Y-89538966D01*
X139294754Y-94420324D01*
X135226188Y-90351758D01*
X135293686Y-90189207D01*
X135294254Y-89538966D01*
X135045942Y-88938005D01*
X134586553Y-88477814D01*
X133986027Y-88228454D01*
X133335786Y-88227886D01*
X132893000Y-88410841D01*
X132893000Y-84453230D01*
X134904815Y-82441416D01*
X134904815Y-82441415D01*
X135069996Y-82194205D01*
X135101785Y-82034388D01*
X135317907Y-81889981D01*
X135609727Y-81453242D01*
X135636000Y-81321158D01*
X135662273Y-81453242D01*
X135954093Y-81889981D01*
X136390832Y-82181801D01*
X136906000Y-82284274D01*
X137421168Y-82181801D01*
X137857907Y-81889981D01*
X138149727Y-81453242D01*
X138176000Y-81321158D01*
X138202273Y-81453242D01*
X138494093Y-81889981D01*
X138930832Y-82181801D01*
X139446000Y-82284274D01*
X139961168Y-82181801D01*
X140397907Y-81889981D01*
X140562027Y-81644357D01*
X146779751Y-87862081D01*
X146569200Y-87820200D01*
X142938400Y-87820200D01*
X142646795Y-87878204D01*
X142399584Y-88043385D01*
X142147023Y-88295945D01*
X141984487Y-88228454D01*
X141334246Y-88227886D01*
X140733285Y-88476198D01*
X140273094Y-88935587D01*
X140023734Y-89536113D01*
X140023166Y-90186354D01*
X140271478Y-90787315D01*
X140730867Y-91247506D01*
X141331393Y-91496866D01*
X141981634Y-91497434D01*
X142582595Y-91249122D01*
X143042786Y-90789733D01*
X143292146Y-90189207D01*
X143292714Y-89538966D01*
X143224457Y-89373773D01*
X143254030Y-89344200D01*
X144103923Y-89344200D01*
X144024234Y-89536113D01*
X144023666Y-90186354D01*
X144091922Y-90351547D01*
X143828085Y-90615385D01*
X143662904Y-90862595D01*
X143604900Y-91154200D01*
X143604900Y-96387100D01*
X143662904Y-96678705D01*
X143828085Y-96925915D01*
X155179770Y-108277600D01*
X155179770Y-108277600D01*
G37*
X155179770Y-108277600D02*
X153152030Y-108277600D01*
X142257399Y-97382969D01*
X142582595Y-97248602D01*
X143042786Y-96789213D01*
X143292146Y-96188687D01*
X143292714Y-95538446D01*
X143044402Y-94937485D01*
X142585013Y-94477294D01*
X141984487Y-94227934D01*
X141334246Y-94227366D01*
X140733285Y-94475678D01*
X140273094Y-94935067D01*
X140137072Y-95262642D01*
X139294754Y-94420324D01*
X139294754Y-89538966D01*
X139046442Y-88938005D01*
X138587053Y-88477814D01*
X137986527Y-88228454D01*
X137336286Y-88227886D01*
X136735325Y-88476198D01*
X136275134Y-88935587D01*
X136025774Y-89536113D01*
X136025206Y-90186354D01*
X136273518Y-90787315D01*
X136732907Y-91247506D01*
X137333433Y-91496866D01*
X137983674Y-91497434D01*
X138584635Y-91249122D01*
X139044826Y-90789733D01*
X139294186Y-90189207D01*
X139294754Y-89538966D01*
X139294754Y-94420324D01*
X135226188Y-90351758D01*
X135293686Y-90189207D01*
X135294254Y-89538966D01*
X135045942Y-88938005D01*
X134586553Y-88477814D01*
X133986027Y-88228454D01*
X133335786Y-88227886D01*
X132893000Y-88410841D01*
X132893000Y-84453230D01*
X134904815Y-82441416D01*
X134904815Y-82441415D01*
X135069996Y-82194205D01*
X135101785Y-82034388D01*
X135317907Y-81889981D01*
X135609727Y-81453242D01*
X135636000Y-81321158D01*
X135662273Y-81453242D01*
X135954093Y-81889981D01*
X136390832Y-82181801D01*
X136906000Y-82284274D01*
X137421168Y-82181801D01*
X137857907Y-81889981D01*
X138149727Y-81453242D01*
X138176000Y-81321158D01*
X138202273Y-81453242D01*
X138494093Y-81889981D01*
X138930832Y-82181801D01*
X139446000Y-82284274D01*
X139961168Y-82181801D01*
X140397907Y-81889981D01*
X140562027Y-81644357D01*
X146779751Y-87862081D01*
X146569200Y-87820200D01*
X142938400Y-87820200D01*
X142646795Y-87878204D01*
X142399584Y-88043385D01*
X142147023Y-88295945D01*
X141984487Y-88228454D01*
X141334246Y-88227886D01*
X140733285Y-88476198D01*
X140273094Y-88935587D01*
X140023734Y-89536113D01*
X140023166Y-90186354D01*
X140271478Y-90787315D01*
X140730867Y-91247506D01*
X141331393Y-91496866D01*
X141981634Y-91497434D01*
X142582595Y-91249122D01*
X143042786Y-90789733D01*
X143292146Y-90189207D01*
X143292714Y-89538966D01*
X143224457Y-89373773D01*
X143254030Y-89344200D01*
X144103923Y-89344200D01*
X144024234Y-89536113D01*
X144023666Y-90186354D01*
X144091922Y-90351547D01*
X143828085Y-90615385D01*
X143662904Y-90862595D01*
X143604900Y-91154200D01*
X143604900Y-96387100D01*
X143662904Y-96678705D01*
X143828085Y-96925915D01*
X155179770Y-108277600D01*
G36*
X163886613Y-116967000D02*
X163535371Y-117317630D01*
X163522760Y-117348000D01*
X160683030Y-117348000D01*
X158082415Y-114747385D01*
X157835205Y-114582204D01*
X157543600Y-114524200D01*
X149285330Y-114524200D01*
X146812530Y-112051400D01*
X157684069Y-112051400D01*
X161741485Y-116108816D01*
X161925000Y-116231436D01*
X161925000Y-116458309D01*
X162021673Y-116691698D01*
X162200301Y-116870327D01*
X162433690Y-116967000D01*
X162686309Y-116967000D01*
X163886613Y-116967000D01*
X163886613Y-116967000D01*
G37*
X163886613Y-116967000D02*
X163535371Y-117317630D01*
X163522760Y-117348000D01*
X160683030Y-117348000D01*
X158082415Y-114747385D01*
X157835205Y-114582204D01*
X157543600Y-114524200D01*
X149285330Y-114524200D01*
X146812530Y-112051400D01*
X157684069Y-112051400D01*
X161741485Y-116108816D01*
X161925000Y-116231436D01*
X161925000Y-116458309D01*
X162021673Y-116691698D01*
X162200301Y-116870327D01*
X162433690Y-116967000D01*
X162686309Y-116967000D01*
X163886613Y-116967000D01*
G36*
X163950662Y-119303607D02*
X153853270Y-129401000D01*
X144815895Y-129401000D01*
X144856200Y-129198374D01*
X144856200Y-129145626D01*
X144753727Y-128630458D01*
X144461907Y-128193719D01*
X144025168Y-127901899D01*
X143510000Y-127799426D01*
X142994832Y-127901899D01*
X142558093Y-128193719D01*
X142266273Y-128630458D01*
X142239446Y-128765326D01*
X142046357Y-128363458D01*
X141655009Y-128013101D01*
X141305089Y-127868171D01*
X141097000Y-127991361D01*
X141097000Y-129045000D01*
X141117000Y-129045000D01*
X141117000Y-129299000D01*
X141097000Y-129299000D01*
X141097000Y-129319000D01*
X140843000Y-129319000D01*
X140843000Y-129299000D01*
X140843000Y-129045000D01*
X140843000Y-127991361D01*
X140634911Y-127868171D01*
X140284991Y-128013101D01*
X139893643Y-128363458D01*
X139699999Y-128766479D01*
X139506357Y-128363458D01*
X139115009Y-128013101D01*
X138765089Y-127868171D01*
X138557000Y-127991361D01*
X138557000Y-129045000D01*
X139611457Y-129045000D01*
X139700000Y-128894448D01*
X139788543Y-129045000D01*
X140843000Y-129045000D01*
X140843000Y-129299000D01*
X139788543Y-129299000D01*
X139728554Y-129401000D01*
X139671445Y-129401000D01*
X139611457Y-129299000D01*
X138557000Y-129299000D01*
X138557000Y-129319000D01*
X138303000Y-129319000D01*
X138303000Y-129299000D01*
X138283000Y-129299000D01*
X138283000Y-129045000D01*
X138303000Y-129045000D01*
X138303000Y-127991361D01*
X138094911Y-127868171D01*
X137744991Y-128013101D01*
X137353643Y-128363458D01*
X137160553Y-128765326D01*
X137133727Y-128630458D01*
X136885740Y-128259319D01*
X136965129Y-128140506D01*
X137032800Y-127800300D01*
X137032800Y-113885755D01*
X137121530Y-113672070D01*
X137121869Y-113283037D01*
X136973307Y-112923488D01*
X136698459Y-112648160D01*
X136505436Y-112568010D01*
X136505436Y-112568009D01*
X136596634Y-112431523D01*
X136662796Y-112332505D01*
X136662796Y-112332504D01*
X136720800Y-112040900D01*
X136720800Y-107241400D01*
X136662796Y-106949796D01*
X136662796Y-106949795D01*
X136596634Y-106850776D01*
X136497616Y-106702585D01*
X132893000Y-103097969D01*
X132893000Y-100287130D01*
X148430884Y-115825015D01*
X148430885Y-115825015D01*
X148678095Y-115990196D01*
X148969700Y-116048200D01*
X154553159Y-116048200D01*
X153930948Y-116669327D01*
X153543441Y-117602546D01*
X153542560Y-118613021D01*
X153928437Y-119546915D01*
X154642327Y-120262052D01*
X155575546Y-120649559D01*
X156586021Y-120650440D01*
X157519915Y-120264563D01*
X158235052Y-119550673D01*
X158622559Y-118617454D01*
X158623440Y-117606979D01*
X158508449Y-117328679D01*
X159828584Y-118648815D01*
X159828585Y-118648815D01*
X160075795Y-118813996D01*
X160367400Y-118872000D01*
X163522295Y-118872000D01*
X163533990Y-118900303D01*
X163926630Y-119293629D01*
X163950662Y-119303607D01*
X163950662Y-119303607D01*
G37*
X163950662Y-119303607D02*
X153853270Y-129401000D01*
X144815895Y-129401000D01*
X144856200Y-129198374D01*
X144856200Y-129145626D01*
X144753727Y-128630458D01*
X144461907Y-128193719D01*
X144025168Y-127901899D01*
X143510000Y-127799426D01*
X142994832Y-127901899D01*
X142558093Y-128193719D01*
X142266273Y-128630458D01*
X142239446Y-128765326D01*
X142046357Y-128363458D01*
X141655009Y-128013101D01*
X141305089Y-127868171D01*
X141097000Y-127991361D01*
X141097000Y-129045000D01*
X141117000Y-129045000D01*
X141117000Y-129299000D01*
X141097000Y-129299000D01*
X141097000Y-129319000D01*
X140843000Y-129319000D01*
X140843000Y-129299000D01*
X140843000Y-129045000D01*
X140843000Y-127991361D01*
X140634911Y-127868171D01*
X140284991Y-128013101D01*
X139893643Y-128363458D01*
X139699999Y-128766479D01*
X139506357Y-128363458D01*
X139115009Y-128013101D01*
X138765089Y-127868171D01*
X138557000Y-127991361D01*
X138557000Y-129045000D01*
X139611457Y-129045000D01*
X139700000Y-128894448D01*
X139788543Y-129045000D01*
X140843000Y-129045000D01*
X140843000Y-129299000D01*
X139788543Y-129299000D01*
X139728554Y-129401000D01*
X139671445Y-129401000D01*
X139611457Y-129299000D01*
X138557000Y-129299000D01*
X138557000Y-129319000D01*
X138303000Y-129319000D01*
X138303000Y-129299000D01*
X138283000Y-129299000D01*
X138283000Y-129045000D01*
X138303000Y-129045000D01*
X138303000Y-127991361D01*
X138094911Y-127868171D01*
X137744991Y-128013101D01*
X137353643Y-128363458D01*
X137160553Y-128765326D01*
X137133727Y-128630458D01*
X136885740Y-128259319D01*
X136965129Y-128140506D01*
X137032800Y-127800300D01*
X137032800Y-113885755D01*
X137121530Y-113672070D01*
X137121869Y-113283037D01*
X136973307Y-112923488D01*
X136698459Y-112648160D01*
X136505436Y-112568010D01*
X136505436Y-112568009D01*
X136596634Y-112431523D01*
X136662796Y-112332505D01*
X136662796Y-112332504D01*
X136720800Y-112040900D01*
X136720800Y-107241400D01*
X136662796Y-106949796D01*
X136662796Y-106949795D01*
X136596634Y-106850776D01*
X136497616Y-106702585D01*
X132893000Y-103097969D01*
X132893000Y-100287130D01*
X148430884Y-115825015D01*
X148430885Y-115825015D01*
X148678095Y-115990196D01*
X148969700Y-116048200D01*
X154553159Y-116048200D01*
X153930948Y-116669327D01*
X153543441Y-117602546D01*
X153542560Y-118613021D01*
X153928437Y-119546915D01*
X154642327Y-120262052D01*
X155575546Y-120649559D01*
X156586021Y-120650440D01*
X157519915Y-120264563D01*
X158235052Y-119550673D01*
X158622559Y-118617454D01*
X158623440Y-117606979D01*
X158508449Y-117328679D01*
X159828584Y-118648815D01*
X159828585Y-118648815D01*
X160075795Y-118813996D01*
X160367400Y-118872000D01*
X163522295Y-118872000D01*
X163533990Y-118900303D01*
X163926630Y-119293629D01*
X163950662Y-119303607D01*
G36*
X165347182Y-114376112D02*
X165325697Y-114384990D01*
X164932371Y-114777630D01*
X164719243Y-115290900D01*
X164719000Y-115569353D01*
X164719000Y-114681691D01*
X164622327Y-114448302D01*
X164443699Y-114269673D01*
X164210310Y-114173000D01*
X163957691Y-114173000D01*
X162433691Y-114173000D01*
X162200302Y-114269673D01*
X162128952Y-114341021D01*
X158538515Y-110750585D01*
X158335598Y-110615000D01*
X161586070Y-110615000D01*
X165347182Y-114376112D01*
X165347182Y-114376112D01*
G37*
X165347182Y-114376112D02*
X165325697Y-114384990D01*
X164932371Y-114777630D01*
X164719243Y-115290900D01*
X164719000Y-115569353D01*
X164719000Y-114681691D01*
X164622327Y-114448302D01*
X164443699Y-114269673D01*
X164210310Y-114173000D01*
X163957691Y-114173000D01*
X162433691Y-114173000D01*
X162200302Y-114269673D01*
X162128952Y-114341021D01*
X158538515Y-110750585D01*
X158335598Y-110615000D01*
X161586070Y-110615000D01*
X165347182Y-114376112D01*
G36*
X166480612Y-106322043D02*
X166480565Y-106376664D01*
X166252359Y-106148060D01*
X165893070Y-105998870D01*
X165504037Y-105998531D01*
X165144488Y-106147093D01*
X165076863Y-106214600D01*
X157088530Y-106214600D01*
X151293714Y-100419784D01*
X151293714Y-95538446D01*
X151045402Y-94937485D01*
X150586013Y-94477294D01*
X149985487Y-94227934D01*
X149335246Y-94227366D01*
X148734285Y-94475678D01*
X148274094Y-94935067D01*
X148024734Y-95535593D01*
X148024166Y-96185834D01*
X148272478Y-96786795D01*
X148731867Y-97246986D01*
X149332393Y-97496346D01*
X149982634Y-97496914D01*
X150583595Y-97248602D01*
X151043786Y-96789213D01*
X151293146Y-96188687D01*
X151293714Y-95538446D01*
X151293714Y-100419784D01*
X147225154Y-96351224D01*
X147292646Y-96188687D01*
X147293214Y-95538446D01*
X147044902Y-94937485D01*
X146585513Y-94477294D01*
X145984987Y-94227934D01*
X145334746Y-94227366D01*
X145128900Y-94312419D01*
X145128900Y-91469830D01*
X145169355Y-91429374D01*
X145331893Y-91496866D01*
X145982134Y-91497434D01*
X146583095Y-91249122D01*
X147043286Y-90789733D01*
X147235705Y-90326335D01*
X161150684Y-104241315D01*
X161150685Y-104241315D01*
X161397895Y-104406496D01*
X161689500Y-104464500D01*
X164623069Y-104464500D01*
X166480612Y-106322043D01*
X166480612Y-106322043D01*
G37*
X166480612Y-106322043D02*
X166480565Y-106376664D01*
X166252359Y-106148060D01*
X165893070Y-105998870D01*
X165504037Y-105998531D01*
X165144488Y-106147093D01*
X165076863Y-106214600D01*
X157088530Y-106214600D01*
X151293714Y-100419784D01*
X151293714Y-95538446D01*
X151045402Y-94937485D01*
X150586013Y-94477294D01*
X149985487Y-94227934D01*
X149335246Y-94227366D01*
X148734285Y-94475678D01*
X148274094Y-94935067D01*
X148024734Y-95535593D01*
X148024166Y-96185834D01*
X148272478Y-96786795D01*
X148731867Y-97246986D01*
X149332393Y-97496346D01*
X149982634Y-97496914D01*
X150583595Y-97248602D01*
X151043786Y-96789213D01*
X151293146Y-96188687D01*
X151293714Y-95538446D01*
X151293714Y-100419784D01*
X147225154Y-96351224D01*
X147292646Y-96188687D01*
X147293214Y-95538446D01*
X147044902Y-94937485D01*
X146585513Y-94477294D01*
X145984987Y-94227934D01*
X145334746Y-94227366D01*
X145128900Y-94312419D01*
X145128900Y-91469830D01*
X145169355Y-91429374D01*
X145331893Y-91496866D01*
X145982134Y-91497434D01*
X146583095Y-91249122D01*
X147043286Y-90789733D01*
X147235705Y-90326335D01*
X161150684Y-104241315D01*
X161150685Y-104241315D01*
X161397895Y-104406496D01*
X161689500Y-104464500D01*
X164623069Y-104464500D01*
X166480612Y-106322043D01*
G36*
X177126669Y-91046700D02*
X171221000Y-96952370D01*
X171221000Y-83451600D01*
X171162996Y-83159996D01*
X171162996Y-83159995D01*
X171096834Y-83060976D01*
X170997816Y-82912785D01*
X169907210Y-81822179D01*
X170153727Y-81453242D01*
X170180000Y-81321158D01*
X170206273Y-81453242D01*
X170498093Y-81889981D01*
X170934832Y-82181801D01*
X171450000Y-82284274D01*
X171678900Y-82238743D01*
X171678900Y-85283300D01*
X171736904Y-85574905D01*
X171902085Y-85822115D01*
X177126669Y-91046700D01*
X177126669Y-91046700D01*
G37*
X177126669Y-91046700D02*
X171221000Y-96952370D01*
X171221000Y-83451600D01*
X171162996Y-83159996D01*
X171162996Y-83159995D01*
X171096834Y-83060976D01*
X170997816Y-82912785D01*
X169907210Y-81822179D01*
X170153727Y-81453242D01*
X170180000Y-81321158D01*
X170206273Y-81453242D01*
X170498093Y-81889981D01*
X170934832Y-82181801D01*
X171450000Y-82284274D01*
X171678900Y-82238743D01*
X171678900Y-85283300D01*
X171736904Y-85574905D01*
X171902085Y-85822115D01*
X177126669Y-91046700D01*
G36*
X191026755Y-84721999D02*
X190728290Y-84921428D01*
X190522109Y-85230000D01*
X180376830Y-85230000D01*
X177215091Y-82068261D01*
X177481907Y-81889981D01*
X177773727Y-81453242D01*
X177800000Y-81321158D01*
X177826273Y-81453242D01*
X178118093Y-81889981D01*
X178554832Y-82181801D01*
X179070000Y-82284274D01*
X179585168Y-82181801D01*
X180021907Y-81889981D01*
X180313727Y-81453242D01*
X180340000Y-81321158D01*
X180366273Y-81453242D01*
X180658093Y-81889981D01*
X181094832Y-82181801D01*
X181610000Y-82284274D01*
X182125168Y-82181801D01*
X182561907Y-81889981D01*
X182853727Y-81453242D01*
X182880000Y-81321158D01*
X182906273Y-81453242D01*
X183198093Y-81889981D01*
X183634832Y-82181801D01*
X184150000Y-82284274D01*
X184665168Y-82181801D01*
X185101907Y-81889981D01*
X185393727Y-81453242D01*
X185496200Y-80938074D01*
X185496200Y-80885326D01*
X185393727Y-80370158D01*
X185101907Y-79933419D01*
X184665168Y-79641599D01*
X184150000Y-79539126D01*
X183634832Y-79641599D01*
X183198093Y-79933419D01*
X182906273Y-80370158D01*
X182880000Y-80502241D01*
X182853727Y-80370158D01*
X182561907Y-79933419D01*
X182125168Y-79641599D01*
X181610000Y-79539126D01*
X181094832Y-79641599D01*
X180658093Y-79933419D01*
X180366273Y-80370158D01*
X180340000Y-80502241D01*
X180313727Y-80370158D01*
X180021907Y-79933419D01*
X179585168Y-79641599D01*
X179070000Y-79539126D01*
X178554832Y-79641599D01*
X178118093Y-79933419D01*
X177826273Y-80370158D01*
X177800000Y-80502241D01*
X177773727Y-80370158D01*
X177481907Y-79933419D01*
X177045168Y-79641599D01*
X176530000Y-79539126D01*
X176014832Y-79641599D01*
X175578093Y-79933419D01*
X175357067Y-80264206D01*
X175272505Y-80207704D01*
X175102596Y-80173907D01*
X175102596Y-80173906D01*
X174941907Y-79933419D01*
X174505168Y-79641599D01*
X173990000Y-79539126D01*
X173474832Y-79641599D01*
X173038093Y-79933419D01*
X172817067Y-80264206D01*
X172732505Y-80207704D01*
X172562596Y-80173906D01*
X172401907Y-79933419D01*
X171965168Y-79641599D01*
X171450000Y-79539126D01*
X170934832Y-79641599D01*
X170498093Y-79933419D01*
X170206273Y-80370158D01*
X170180000Y-80502241D01*
X170153727Y-80370158D01*
X169861907Y-79933419D01*
X169425168Y-79641599D01*
X168910000Y-79539126D01*
X168394832Y-79641599D01*
X167958093Y-79933419D01*
X167666273Y-80370158D01*
X167640000Y-80502241D01*
X167613727Y-80370158D01*
X167321907Y-79933419D01*
X166885168Y-79641599D01*
X166370000Y-79539126D01*
X165854832Y-79641599D01*
X165418093Y-79933419D01*
X165126273Y-80370158D01*
X165023800Y-80885326D01*
X165023800Y-80938074D01*
X165126273Y-81453242D01*
X165418093Y-81889981D01*
X165854832Y-82181801D01*
X166370000Y-82284274D01*
X166885168Y-82181801D01*
X167321907Y-81889981D01*
X167613727Y-81453242D01*
X167640000Y-81321158D01*
X167666273Y-81453242D01*
X167958093Y-81889981D01*
X168174214Y-82034388D01*
X168206004Y-82194205D01*
X168371185Y-82441415D01*
X169697000Y-83767230D01*
X169697000Y-105605669D01*
X143225030Y-79133700D01*
X163601114Y-79133700D01*
X189615082Y-79222183D01*
X189716696Y-82321400D01*
X190818128Y-82321400D01*
X190728290Y-82381428D01*
X190408941Y-82859369D01*
X190296800Y-83423138D01*
X190296800Y-83480862D01*
X190408941Y-84044631D01*
X190728290Y-84522572D01*
X191026755Y-84721999D01*
X191026755Y-84721999D01*
G37*
X191026755Y-84721999D02*
X190728290Y-84921428D01*
X190522109Y-85230000D01*
X180376830Y-85230000D01*
X177215091Y-82068261D01*
X177481907Y-81889981D01*
X177773727Y-81453242D01*
X177800000Y-81321158D01*
X177826273Y-81453242D01*
X178118093Y-81889981D01*
X178554832Y-82181801D01*
X179070000Y-82284274D01*
X179585168Y-82181801D01*
X180021907Y-81889981D01*
X180313727Y-81453242D01*
X180340000Y-81321158D01*
X180366273Y-81453242D01*
X180658093Y-81889981D01*
X181094832Y-82181801D01*
X181610000Y-82284274D01*
X182125168Y-82181801D01*
X182561907Y-81889981D01*
X182853727Y-81453242D01*
X182880000Y-81321158D01*
X182906273Y-81453242D01*
X183198093Y-81889981D01*
X183634832Y-82181801D01*
X184150000Y-82284274D01*
X184665168Y-82181801D01*
X185101907Y-81889981D01*
X185393727Y-81453242D01*
X185496200Y-80938074D01*
X185496200Y-80885326D01*
X185393727Y-80370158D01*
X185101907Y-79933419D01*
X184665168Y-79641599D01*
X184150000Y-79539126D01*
X183634832Y-79641599D01*
X183198093Y-79933419D01*
X182906273Y-80370158D01*
X182880000Y-80502241D01*
X182853727Y-80370158D01*
X182561907Y-79933419D01*
X182125168Y-79641599D01*
X181610000Y-79539126D01*
X181094832Y-79641599D01*
X180658093Y-79933419D01*
X180366273Y-80370158D01*
X180340000Y-80502241D01*
X180313727Y-80370158D01*
X180021907Y-79933419D01*
X179585168Y-79641599D01*
X179070000Y-79539126D01*
X178554832Y-79641599D01*
X178118093Y-79933419D01*
X177826273Y-80370158D01*
X177800000Y-80502241D01*
X177773727Y-80370158D01*
X177481907Y-79933419D01*
X177045168Y-79641599D01*
X176530000Y-79539126D01*
X176014832Y-79641599D01*
X175578093Y-79933419D01*
X175357067Y-80264206D01*
X175272505Y-80207704D01*
X175102596Y-80173907D01*
X175102596Y-80173906D01*
X174941907Y-79933419D01*
X174505168Y-79641599D01*
X173990000Y-79539126D01*
X173474832Y-79641599D01*
X173038093Y-79933419D01*
X172817067Y-80264206D01*
X172732505Y-80207704D01*
X172562596Y-80173906D01*
X172401907Y-79933419D01*
X171965168Y-79641599D01*
X171450000Y-79539126D01*
X170934832Y-79641599D01*
X170498093Y-79933419D01*
X170206273Y-80370158D01*
X170180000Y-80502241D01*
X170153727Y-80370158D01*
X169861907Y-79933419D01*
X169425168Y-79641599D01*
X168910000Y-79539126D01*
X168394832Y-79641599D01*
X167958093Y-79933419D01*
X167666273Y-80370158D01*
X167640000Y-80502241D01*
X167613727Y-80370158D01*
X167321907Y-79933419D01*
X166885168Y-79641599D01*
X166370000Y-79539126D01*
X165854832Y-79641599D01*
X165418093Y-79933419D01*
X165126273Y-80370158D01*
X165023800Y-80885326D01*
X165023800Y-80938074D01*
X165126273Y-81453242D01*
X165418093Y-81889981D01*
X165854832Y-82181801D01*
X166370000Y-82284274D01*
X166885168Y-82181801D01*
X167321907Y-81889981D01*
X167613727Y-81453242D01*
X167640000Y-81321158D01*
X167666273Y-81453242D01*
X167958093Y-81889981D01*
X168174214Y-82034388D01*
X168206004Y-82194205D01*
X168371185Y-82441415D01*
X169697000Y-83767230D01*
X169697000Y-105605669D01*
X143225030Y-79133700D01*
X163601114Y-79133700D01*
X189615082Y-79222183D01*
X189716696Y-82321400D01*
X190818128Y-82321400D01*
X190728290Y-82381428D01*
X190408941Y-82859369D01*
X190296800Y-83423138D01*
X190296800Y-83480862D01*
X190408941Y-84044631D01*
X190728290Y-84522572D01*
X191026755Y-84721999D01*
G36*
X191026755Y-89801999D02*
X190728290Y-90001428D01*
X190522109Y-90310000D01*
X178545230Y-90310000D01*
X173202900Y-84967669D01*
X173202900Y-82000101D01*
X173474832Y-82181801D01*
X173990000Y-82284274D01*
X174505168Y-82181801D01*
X174905726Y-81914156D01*
X179522385Y-86530815D01*
X179769595Y-86695996D01*
X180061200Y-86754000D01*
X190522109Y-86754000D01*
X190728290Y-87062572D01*
X191026755Y-87261999D01*
X190728290Y-87461428D01*
X190408941Y-87939369D01*
X190296800Y-88503138D01*
X190296800Y-88560862D01*
X190408941Y-89124631D01*
X190728290Y-89602572D01*
X191026755Y-89801999D01*
X191026755Y-89801999D01*
G37*
X191026755Y-89801999D02*
X190728290Y-90001428D01*
X190522109Y-90310000D01*
X178545230Y-90310000D01*
X173202900Y-84967669D01*
X173202900Y-82000101D01*
X173474832Y-82181801D01*
X173990000Y-82284274D01*
X174505168Y-82181801D01*
X174905726Y-81914156D01*
X179522385Y-86530815D01*
X179769595Y-86695996D01*
X180061200Y-86754000D01*
X190522109Y-86754000D01*
X190728290Y-87062572D01*
X191026755Y-87261999D01*
X190728290Y-87461428D01*
X190408941Y-87939369D01*
X190296800Y-88503138D01*
X190296800Y-88560862D01*
X190408941Y-89124631D01*
X190728290Y-89602572D01*
X191026755Y-89801999D01*
G36*
X191026755Y-94881999D02*
X190728290Y-95081428D01*
X190502184Y-95419820D01*
X190502183Y-95419820D01*
X190360495Y-95448004D01*
X190113284Y-95613185D01*
X188231969Y-97494500D01*
X172834130Y-97494500D01*
X178494630Y-91834000D01*
X190522109Y-91834000D01*
X190728290Y-92142572D01*
X191026755Y-92341999D01*
X190728290Y-92541428D01*
X190408941Y-93019369D01*
X190296800Y-93583138D01*
X190296800Y-93640862D01*
X190408941Y-94204631D01*
X190728290Y-94682572D01*
X191026755Y-94881999D01*
X191026755Y-94881999D01*
G37*
X191026755Y-94881999D02*
X190728290Y-95081428D01*
X190502184Y-95419820D01*
X190502183Y-95419820D01*
X190360495Y-95448004D01*
X190113284Y-95613185D01*
X188231969Y-97494500D01*
X172834130Y-97494500D01*
X178494630Y-91834000D01*
X190522109Y-91834000D01*
X190728290Y-92142572D01*
X191026755Y-92341999D01*
X190728290Y-92541428D01*
X190408941Y-93019369D01*
X190296800Y-93583138D01*
X190296800Y-93640862D01*
X190408941Y-94204631D01*
X190728290Y-94682572D01*
X191026755Y-94881999D01*
G36*
X191026755Y-115201999D02*
X190728290Y-115401428D01*
X190491996Y-115755066D01*
X183004415Y-108267485D01*
X182757205Y-108102304D01*
X182465600Y-108044300D01*
X172707730Y-108044300D01*
X172065012Y-107401582D01*
X172124840Y-107341859D01*
X172274030Y-106982570D01*
X172274369Y-106593537D01*
X172125807Y-106233988D01*
X171990700Y-106098645D01*
X171990700Y-99234476D01*
X172096663Y-99234569D01*
X172456212Y-99086007D01*
X172523836Y-99018500D01*
X188547600Y-99018500D01*
X188547600Y-99018499D01*
X188839204Y-98960496D01*
X188839205Y-98960496D01*
X189086415Y-98795315D01*
X190700599Y-97181130D01*
X190728290Y-97222572D01*
X191026755Y-97421999D01*
X190728290Y-97621428D01*
X190408941Y-98099369D01*
X190296800Y-98663138D01*
X190296800Y-98720862D01*
X190408941Y-99284631D01*
X190728290Y-99762572D01*
X191026755Y-99961999D01*
X190728290Y-100161428D01*
X190408941Y-100639369D01*
X190296800Y-101203138D01*
X190296800Y-101260862D01*
X190408941Y-101824631D01*
X190728290Y-102302572D01*
X191026755Y-102501999D01*
X190728290Y-102701428D01*
X190408941Y-103179369D01*
X190296800Y-103743138D01*
X190296800Y-103800862D01*
X190408941Y-104364631D01*
X190728290Y-104842572D01*
X191026755Y-105041999D01*
X190728290Y-105241428D01*
X190408941Y-105719369D01*
X190296800Y-106283138D01*
X190296800Y-106340862D01*
X190408941Y-106904631D01*
X190728290Y-107382572D01*
X191026755Y-107581999D01*
X190728290Y-107781428D01*
X190408941Y-108259369D01*
X190296800Y-108823138D01*
X190296800Y-108880862D01*
X190408941Y-109444631D01*
X190728290Y-109922572D01*
X191026755Y-110121999D01*
X190728290Y-110321428D01*
X190408941Y-110799369D01*
X190296800Y-111363138D01*
X190296800Y-111420862D01*
X190408941Y-111984631D01*
X190728290Y-112462572D01*
X191026755Y-112661999D01*
X190728290Y-112861428D01*
X190408941Y-113339369D01*
X190296800Y-113903138D01*
X190296800Y-113960862D01*
X190408941Y-114524631D01*
X190728290Y-115002572D01*
X191026755Y-115201999D01*
X191026755Y-115201999D01*
G37*
X191026755Y-115201999D02*
X190728290Y-115401428D01*
X190491996Y-115755066D01*
X183004415Y-108267485D01*
X182757205Y-108102304D01*
X182465600Y-108044300D01*
X172707730Y-108044300D01*
X172065012Y-107401582D01*
X172124840Y-107341859D01*
X172274030Y-106982570D01*
X172274369Y-106593537D01*
X172125807Y-106233988D01*
X171990700Y-106098645D01*
X171990700Y-99234476D01*
X172096663Y-99234569D01*
X172456212Y-99086007D01*
X172523836Y-99018500D01*
X188547600Y-99018500D01*
X188547600Y-99018499D01*
X188839204Y-98960496D01*
X188839205Y-98960496D01*
X189086415Y-98795315D01*
X190700599Y-97181130D01*
X190728290Y-97222572D01*
X191026755Y-97421999D01*
X190728290Y-97621428D01*
X190408941Y-98099369D01*
X190296800Y-98663138D01*
X190296800Y-98720862D01*
X190408941Y-99284631D01*
X190728290Y-99762572D01*
X191026755Y-99961999D01*
X190728290Y-100161428D01*
X190408941Y-100639369D01*
X190296800Y-101203138D01*
X190296800Y-101260862D01*
X190408941Y-101824631D01*
X190728290Y-102302572D01*
X191026755Y-102501999D01*
X190728290Y-102701428D01*
X190408941Y-103179369D01*
X190296800Y-103743138D01*
X190296800Y-103800862D01*
X190408941Y-104364631D01*
X190728290Y-104842572D01*
X191026755Y-105041999D01*
X190728290Y-105241428D01*
X190408941Y-105719369D01*
X190296800Y-106283138D01*
X190296800Y-106340862D01*
X190408941Y-106904631D01*
X190728290Y-107382572D01*
X191026755Y-107581999D01*
X190728290Y-107781428D01*
X190408941Y-108259369D01*
X190296800Y-108823138D01*
X190296800Y-108880862D01*
X190408941Y-109444631D01*
X190728290Y-109922572D01*
X191026755Y-110121999D01*
X190728290Y-110321428D01*
X190408941Y-110799369D01*
X190296800Y-111363138D01*
X190296800Y-111420862D01*
X190408941Y-111984631D01*
X190728290Y-112462572D01*
X191026755Y-112661999D01*
X190728290Y-112861428D01*
X190408941Y-113339369D01*
X190296800Y-113903138D01*
X190296800Y-113960862D01*
X190408941Y-114524631D01*
X190728290Y-115002572D01*
X191026755Y-115201999D01*
G36*
X198551800Y-127714447D02*
X197249396Y-129209800D01*
X196737095Y-129209800D01*
X196655559Y-129155319D01*
X196655558Y-129155318D01*
X196494651Y-129088668D01*
X196380873Y-129041540D01*
X196380872Y-129041540D01*
X195997901Y-128965362D01*
X195997900Y-128965362D01*
X195739788Y-128965361D01*
X195739788Y-124447039D01*
X195618975Y-124219000D01*
X194437000Y-124219000D01*
X194437000Y-125400300D01*
X194665038Y-125521779D01*
X195069962Y-125354063D01*
X195495084Y-124967169D01*
X195739788Y-124447039D01*
X195739788Y-128965361D01*
X195700582Y-128965361D01*
X195317608Y-129041540D01*
X195317607Y-129041540D01*
X195042921Y-129155318D01*
X194961383Y-129209800D01*
X194883177Y-129209800D01*
X194856126Y-129280130D01*
X194718255Y-129372253D01*
X194718253Y-129372255D01*
X194508017Y-129582490D01*
X194291079Y-129907161D01*
X194291078Y-129907162D01*
X194224428Y-130068069D01*
X194183000Y-130168085D01*
X194183000Y-125400300D01*
X194183000Y-124219000D01*
X193078975Y-124219000D01*
X193001025Y-124219000D01*
X191897000Y-124219000D01*
X191897000Y-125400300D01*
X192125038Y-125521779D01*
X192529962Y-125354063D01*
X192955084Y-124967169D01*
X193040000Y-124786675D01*
X193124916Y-124967169D01*
X193550038Y-125354063D01*
X193954962Y-125521779D01*
X194183000Y-125400300D01*
X194183000Y-130168085D01*
X194177300Y-130181847D01*
X194177300Y-130181848D01*
X194101122Y-130564818D01*
X194101122Y-130564820D01*
X194101122Y-130564822D01*
X194101122Y-130862138D01*
X194101122Y-130862140D01*
X194101122Y-130862141D01*
X194118539Y-130949700D01*
X184023440Y-130949700D01*
X184023440Y-117606979D01*
X183637563Y-116673085D01*
X182923673Y-115957948D01*
X181990454Y-115570441D01*
X180979979Y-115569560D01*
X180046085Y-115955437D01*
X179330948Y-116669327D01*
X178943441Y-117602546D01*
X178942560Y-118613021D01*
X179328437Y-119546915D01*
X180042327Y-120262052D01*
X180975546Y-120649559D01*
X181986021Y-120650440D01*
X182919915Y-120264563D01*
X183635052Y-119550673D01*
X184022559Y-118617454D01*
X184023440Y-117606979D01*
X184023440Y-130949700D01*
X175780144Y-130949700D01*
X175780144Y-115777698D01*
X175752362Y-115222632D01*
X175593397Y-114838857D01*
X175351213Y-114769392D01*
X174550605Y-115570000D01*
X175351213Y-116370608D01*
X175593397Y-116301143D01*
X175780144Y-115777698D01*
X175780144Y-130949700D01*
X155750930Y-130949700D01*
X167205617Y-119495012D01*
X167233900Y-119506757D01*
X167789661Y-119507242D01*
X168303303Y-119295010D01*
X168696629Y-118902370D01*
X168846605Y-118541185D01*
X168994990Y-118900303D01*
X169387630Y-119293629D01*
X169900900Y-119506757D01*
X170456661Y-119507242D01*
X170970303Y-119295010D01*
X171363629Y-118902370D01*
X171576757Y-118389100D01*
X171576759Y-118386663D01*
X171788990Y-118900303D01*
X172181630Y-119293629D01*
X172694900Y-119506757D01*
X173250661Y-119507242D01*
X173764303Y-119295010D01*
X174157629Y-118902370D01*
X174370757Y-118389100D01*
X174371242Y-117833339D01*
X174159010Y-117319697D01*
X173766370Y-116926371D01*
X173736000Y-116913760D01*
X173736000Y-116826697D01*
X174163302Y-116979144D01*
X174718368Y-116951362D01*
X175102143Y-116792397D01*
X175171608Y-116550213D01*
X174371000Y-115749605D01*
X174356857Y-115763747D01*
X174177252Y-115584142D01*
X174191395Y-115570000D01*
X174177252Y-115555857D01*
X174356857Y-115376252D01*
X174371000Y-115390395D01*
X175171608Y-114589787D01*
X175102143Y-114347603D01*
X174578698Y-114160856D01*
X174023632Y-114188638D01*
X173736000Y-114307779D01*
X173736000Y-114252900D01*
X173677996Y-113961295D01*
X173512815Y-113714085D01*
X166675687Y-106876957D01*
X166675734Y-106822335D01*
X166903941Y-107050940D01*
X167263230Y-107200130D01*
X167652263Y-107200469D01*
X167948032Y-107078260D01*
X168102330Y-107142330D01*
X168491363Y-107142669D01*
X168749733Y-107035912D01*
X168749631Y-107153363D01*
X168898193Y-107512912D01*
X169173041Y-107788240D01*
X169532330Y-107937430D01*
X169921363Y-107937769D01*
X170280912Y-107789207D01*
X170289151Y-107780981D01*
X171853284Y-109345115D01*
X171853285Y-109345115D01*
X172100495Y-109510296D01*
X172392100Y-109568300D01*
X182149970Y-109568300D01*
X190646101Y-118064431D01*
X190408941Y-118419369D01*
X190296800Y-118983138D01*
X190296800Y-119040862D01*
X190408941Y-119604631D01*
X190728290Y-120082572D01*
X191026755Y-120281999D01*
X190728290Y-120481428D01*
X190408941Y-120959369D01*
X190296800Y-121523138D01*
X190296800Y-121580862D01*
X190408941Y-122144631D01*
X190490170Y-122266199D01*
X190347056Y-122409312D01*
X190253037Y-122409231D01*
X189893488Y-122557793D01*
X189618160Y-122832641D01*
X189468970Y-123191930D01*
X189468631Y-123580963D01*
X189617193Y-123940512D01*
X189892041Y-124215840D01*
X190251330Y-124365030D01*
X190383598Y-124365145D01*
X190340212Y-124447039D01*
X190584916Y-124967169D01*
X191010038Y-125354063D01*
X191414962Y-125521779D01*
X191643000Y-125400300D01*
X191643000Y-124219000D01*
X191623000Y-124219000D01*
X191623000Y-123965000D01*
X191643000Y-123965000D01*
X191643000Y-123945000D01*
X191897000Y-123945000D01*
X191897000Y-123965000D01*
X193001025Y-123965000D01*
X193078975Y-123965000D01*
X194183000Y-123965000D01*
X194183000Y-123945000D01*
X194437000Y-123945000D01*
X194437000Y-123965000D01*
X195618975Y-123965000D01*
X195739788Y-123736961D01*
X195495084Y-123216831D01*
X195069962Y-122829937D01*
X195052308Y-122822625D01*
X195351710Y-122622572D01*
X195671059Y-122144631D01*
X195783200Y-121580862D01*
X195783200Y-121523138D01*
X195671059Y-120959369D01*
X195444833Y-120620797D01*
X196014315Y-120051316D01*
X196014315Y-120051315D01*
X196179496Y-119804105D01*
X196237499Y-119512500D01*
X196237500Y-119512500D01*
X196237500Y-98203800D01*
X196179496Y-97912195D01*
X196014315Y-97664985D01*
X195439906Y-97090576D01*
X195671059Y-96744631D01*
X195783200Y-96180862D01*
X195783200Y-96123138D01*
X195671059Y-95559369D01*
X195351710Y-95081428D01*
X195053244Y-94882000D01*
X195351710Y-94682572D01*
X195671059Y-94204631D01*
X195783200Y-93640862D01*
X195783200Y-93583138D01*
X195671059Y-93019369D01*
X195351710Y-92541428D01*
X195053244Y-92342000D01*
X195351710Y-92142572D01*
X195671059Y-91664631D01*
X195783200Y-91100862D01*
X195783200Y-91043138D01*
X195671059Y-90479369D01*
X195351710Y-90001428D01*
X195053244Y-89802000D01*
X195351710Y-89602572D01*
X195671059Y-89124631D01*
X195783200Y-88560862D01*
X195783200Y-88503138D01*
X195671059Y-87939369D01*
X195351710Y-87461428D01*
X195053244Y-87262000D01*
X195351710Y-87062572D01*
X195671059Y-86584631D01*
X195783200Y-86020862D01*
X195783200Y-85963138D01*
X195671059Y-85399369D01*
X195351710Y-84921428D01*
X195053244Y-84722000D01*
X195351710Y-84522572D01*
X195671059Y-84044631D01*
X195783200Y-83480862D01*
X195783200Y-83423138D01*
X195671059Y-82859369D01*
X195351710Y-82381428D01*
X195261871Y-82321400D01*
X196088000Y-82321400D01*
X196088000Y-91071700D01*
X196113400Y-91199394D01*
X196113400Y-91287165D01*
X196135537Y-91310685D01*
X196135537Y-91310686D01*
X196146004Y-91363305D01*
X196311185Y-91610515D01*
X198122451Y-93421782D01*
X198551800Y-93877965D01*
X198551800Y-127714447D01*
X198551800Y-127714447D01*
G37*
X198551800Y-127714447D02*
X197249396Y-129209800D01*
X196737095Y-129209800D01*
X196655559Y-129155319D01*
X196655558Y-129155318D01*
X196494651Y-129088668D01*
X196380873Y-129041540D01*
X196380872Y-129041540D01*
X195997901Y-128965362D01*
X195997900Y-128965362D01*
X195739788Y-128965361D01*
X195739788Y-124447039D01*
X195618975Y-124219000D01*
X194437000Y-124219000D01*
X194437000Y-125400300D01*
X194665038Y-125521779D01*
X195069962Y-125354063D01*
X195495084Y-124967169D01*
X195739788Y-124447039D01*
X195739788Y-128965361D01*
X195700582Y-128965361D01*
X195317608Y-129041540D01*
X195317607Y-129041540D01*
X195042921Y-129155318D01*
X194961383Y-129209800D01*
X194883177Y-129209800D01*
X194856126Y-129280130D01*
X194718255Y-129372253D01*
X194718253Y-129372255D01*
X194508017Y-129582490D01*
X194291079Y-129907161D01*
X194291078Y-129907162D01*
X194224428Y-130068069D01*
X194183000Y-130168085D01*
X194183000Y-125400300D01*
X194183000Y-124219000D01*
X193078975Y-124219000D01*
X193001025Y-124219000D01*
X191897000Y-124219000D01*
X191897000Y-125400300D01*
X192125038Y-125521779D01*
X192529962Y-125354063D01*
X192955084Y-124967169D01*
X193040000Y-124786675D01*
X193124916Y-124967169D01*
X193550038Y-125354063D01*
X193954962Y-125521779D01*
X194183000Y-125400300D01*
X194183000Y-130168085D01*
X194177300Y-130181847D01*
X194177300Y-130181848D01*
X194101122Y-130564818D01*
X194101122Y-130564820D01*
X194101122Y-130564822D01*
X194101122Y-130862138D01*
X194101122Y-130862140D01*
X194101122Y-130862141D01*
X194118539Y-130949700D01*
X184023440Y-130949700D01*
X184023440Y-117606979D01*
X183637563Y-116673085D01*
X182923673Y-115957948D01*
X181990454Y-115570441D01*
X180979979Y-115569560D01*
X180046085Y-115955437D01*
X179330948Y-116669327D01*
X178943441Y-117602546D01*
X178942560Y-118613021D01*
X179328437Y-119546915D01*
X180042327Y-120262052D01*
X180975546Y-120649559D01*
X181986021Y-120650440D01*
X182919915Y-120264563D01*
X183635052Y-119550673D01*
X184022559Y-118617454D01*
X184023440Y-117606979D01*
X184023440Y-130949700D01*
X175780144Y-130949700D01*
X175780144Y-115777698D01*
X175752362Y-115222632D01*
X175593397Y-114838857D01*
X175351213Y-114769392D01*
X174550605Y-115570000D01*
X175351213Y-116370608D01*
X175593397Y-116301143D01*
X175780144Y-115777698D01*
X175780144Y-130949700D01*
X155750930Y-130949700D01*
X167205617Y-119495012D01*
X167233900Y-119506757D01*
X167789661Y-119507242D01*
X168303303Y-119295010D01*
X168696629Y-118902370D01*
X168846605Y-118541185D01*
X168994990Y-118900303D01*
X169387630Y-119293629D01*
X169900900Y-119506757D01*
X170456661Y-119507242D01*
X170970303Y-119295010D01*
X171363629Y-118902370D01*
X171576757Y-118389100D01*
X171576759Y-118386663D01*
X171788990Y-118900303D01*
X172181630Y-119293629D01*
X172694900Y-119506757D01*
X173250661Y-119507242D01*
X173764303Y-119295010D01*
X174157629Y-118902370D01*
X174370757Y-118389100D01*
X174371242Y-117833339D01*
X174159010Y-117319697D01*
X173766370Y-116926371D01*
X173736000Y-116913760D01*
X173736000Y-116826697D01*
X174163302Y-116979144D01*
X174718368Y-116951362D01*
X175102143Y-116792397D01*
X175171608Y-116550213D01*
X174371000Y-115749605D01*
X174356857Y-115763747D01*
X174177252Y-115584142D01*
X174191395Y-115570000D01*
X174177252Y-115555857D01*
X174356857Y-115376252D01*
X174371000Y-115390395D01*
X175171608Y-114589787D01*
X175102143Y-114347603D01*
X174578698Y-114160856D01*
X174023632Y-114188638D01*
X173736000Y-114307779D01*
X173736000Y-114252900D01*
X173677996Y-113961295D01*
X173512815Y-113714085D01*
X166675687Y-106876957D01*
X166675734Y-106822335D01*
X166903941Y-107050940D01*
X167263230Y-107200130D01*
X167652263Y-107200469D01*
X167948032Y-107078260D01*
X168102330Y-107142330D01*
X168491363Y-107142669D01*
X168749733Y-107035912D01*
X168749631Y-107153363D01*
X168898193Y-107512912D01*
X169173041Y-107788240D01*
X169532330Y-107937430D01*
X169921363Y-107937769D01*
X170280912Y-107789207D01*
X170289151Y-107780981D01*
X171853284Y-109345115D01*
X171853285Y-109345115D01*
X172100495Y-109510296D01*
X172392100Y-109568300D01*
X182149970Y-109568300D01*
X190646101Y-118064431D01*
X190408941Y-118419369D01*
X190296800Y-118983138D01*
X190296800Y-119040862D01*
X190408941Y-119604631D01*
X190728290Y-120082572D01*
X191026755Y-120281999D01*
X190728290Y-120481428D01*
X190408941Y-120959369D01*
X190296800Y-121523138D01*
X190296800Y-121580862D01*
X190408941Y-122144631D01*
X190490170Y-122266199D01*
X190347056Y-122409312D01*
X190253037Y-122409231D01*
X189893488Y-122557793D01*
X189618160Y-122832641D01*
X189468970Y-123191930D01*
X189468631Y-123580963D01*
X189617193Y-123940512D01*
X189892041Y-124215840D01*
X190251330Y-124365030D01*
X190383598Y-124365145D01*
X190340212Y-124447039D01*
X190584916Y-124967169D01*
X191010038Y-125354063D01*
X191414962Y-125521779D01*
X191643000Y-125400300D01*
X191643000Y-124219000D01*
X191623000Y-124219000D01*
X191623000Y-123965000D01*
X191643000Y-123965000D01*
X191643000Y-123945000D01*
X191897000Y-123945000D01*
X191897000Y-123965000D01*
X193001025Y-123965000D01*
X193078975Y-123965000D01*
X194183000Y-123965000D01*
X194183000Y-123945000D01*
X194437000Y-123945000D01*
X194437000Y-123965000D01*
X195618975Y-123965000D01*
X195739788Y-123736961D01*
X195495084Y-123216831D01*
X195069962Y-122829937D01*
X195052308Y-122822625D01*
X195351710Y-122622572D01*
X195671059Y-122144631D01*
X195783200Y-121580862D01*
X195783200Y-121523138D01*
X195671059Y-120959369D01*
X195444833Y-120620797D01*
X196014315Y-120051316D01*
X196014315Y-120051315D01*
X196179496Y-119804105D01*
X196237499Y-119512500D01*
X196237500Y-119512500D01*
X196237500Y-98203800D01*
X196179496Y-97912195D01*
X196014315Y-97664985D01*
X195439906Y-97090576D01*
X195671059Y-96744631D01*
X195783200Y-96180862D01*
X195783200Y-96123138D01*
X195671059Y-95559369D01*
X195351710Y-95081428D01*
X195053244Y-94882000D01*
X195351710Y-94682572D01*
X195671059Y-94204631D01*
X195783200Y-93640862D01*
X195783200Y-93583138D01*
X195671059Y-93019369D01*
X195351710Y-92541428D01*
X195053244Y-92342000D01*
X195351710Y-92142572D01*
X195671059Y-91664631D01*
X195783200Y-91100862D01*
X195783200Y-91043138D01*
X195671059Y-90479369D01*
X195351710Y-90001428D01*
X195053244Y-89802000D01*
X195351710Y-89602572D01*
X195671059Y-89124631D01*
X195783200Y-88560862D01*
X195783200Y-88503138D01*
X195671059Y-87939369D01*
X195351710Y-87461428D01*
X195053244Y-87262000D01*
X195351710Y-87062572D01*
X195671059Y-86584631D01*
X195783200Y-86020862D01*
X195783200Y-85963138D01*
X195671059Y-85399369D01*
X195351710Y-84921428D01*
X195053244Y-84722000D01*
X195351710Y-84522572D01*
X195671059Y-84044631D01*
X195783200Y-83480862D01*
X195783200Y-83423138D01*
X195671059Y-82859369D01*
X195351710Y-82381428D01*
X195261871Y-82321400D01*
X196088000Y-82321400D01*
X196088000Y-91071700D01*
X196113400Y-91199394D01*
X196113400Y-91287165D01*
X196135537Y-91310685D01*
X196135537Y-91310686D01*
X196146004Y-91363305D01*
X196311185Y-91610515D01*
X198122451Y-93421782D01*
X198551800Y-93877965D01*
X198551800Y-127714447D01*
M02*
