M48
INCH,TZ
T1C0.013
T2C0.033
T3C0.037
T4C0.040
T5C0.041
T6C0.120
%
G90
G05
T1
X45917Y-40035
X45949Y-39575
X46035Y-42260
X46091Y-39063
X46169Y-38614
X46346Y-40055
X46390Y-41909
X46413Y-39402
X46531Y-33260
X46638Y-38713
X46646Y-39654
X46650Y-39102
X46683Y-41617
X46862Y-32953
X47146Y-32669
X47197Y-33957
X47465Y-32417
X47488Y-33661
X47775Y-33370
X48110Y-33063
X48401Y-32744
X49524Y-45598
X49653Y-44496
X49835Y-45843
X50378Y-46488
X50917Y-46949
X51177Y-45843
X51382Y-47421
X51661Y-46291
X52087Y-46713
X52201Y-48201
X52269Y-39008
X52274Y-38530
X52274Y-39516
X52287Y-44541
X52287Y-43743
X52689Y-47272
X53142Y-49142
X53269Y-43797
X53291Y-45921
X53328Y-44309
X53600Y-44676
X54118Y-45894
X54164Y-41676
X54504Y-46469
X54890Y-39272
X54965Y-46461
X54976Y-38283
X55020Y-44618
X55035Y-33673
X55181Y-37114
X55390Y-44031
X55480Y-44882
X55571Y-39665
X55748Y-46528
X56142Y-44110
X56146Y-39862
X56189Y-44579
X56441Y-46461
X56512Y-44921
X56803Y-44461
X57091Y-42835
X57268Y-39224
X57366Y-46492
X57484Y-43165
X57681Y-32185
X57969Y-42264
X58004Y-46528
X58154Y-32657
X58256Y-31992
X58280Y-40173
X58583Y-33134
X58862Y-46535
X58937Y-42461
X58961Y-40965
X59059Y-31976
X59118Y-33665
X59166Y-34704
X59228Y-46098
X59724Y-46362
X60213Y-45913
X60280Y-42240
X60957Y-45059
X61094Y-44799
X61378Y-44472
X62075Y-44161
X62083Y-33594
X62224Y-44638
X62402Y-43539
X62831Y-45150
X62870Y-43780
X63169Y-44181
X63480Y-44488
X63780Y-35067
X64283Y-37268
X64500Y-33315
X64846Y-35984
X64850Y-41349
X65235Y-42117
X65429Y-38051
X65811Y-37598
X65929Y-41820
X66240Y-38650
X66259Y-41797
X66260Y-39169
X66610Y-38350
X66764Y-36713
X66822Y-42110
X66839Y-38665
X67439Y-42042
X67512Y-37299
X67678Y-38684
X67969Y-37252
X67976Y-35500
X68020Y-38335
X68260Y-35224
X68303Y-38051
X68331Y-40469
X68839Y-39500
X69020Y-40480
X69441Y-34173
X69516Y-39713
X69520Y-42587
X69531Y-44831
X69571Y-38339
X69819Y-39220
X69909Y-33591
X69949Y-34705
X69965Y-33539
X69992Y-37953
X70016Y-42591
X70280Y-39079
X70449Y-38079
X70457Y-42591
X70772Y-39961
X70870Y-38390
X70882Y-42591
X70941Y-35209
X71169Y-39429
X71169Y-44110
X71295Y-42587
X71776Y-42591
X72169Y-44039
X72220Y-42587
X72252Y-38331
X72272Y-39130
X72469Y-42862
X72689Y-36339
X72752Y-35402
X73012Y-39118
X73161Y-36220
X73339Y-35370
X73358Y-38071
X73551Y-39012
X73591Y-43217
X73720Y-36819
X73720Y-37382
X73831Y-38299
X74551Y-36291
X74979Y-48578
X75130Y-35350
T2
X45900Y-31855
X46900Y-31855
X47900Y-31855
X48900Y-31855
X49500Y-50855
X49900Y-31855
X50500Y-50855
X50900Y-31855
X51500Y-50855
X51900Y-31855
X52500Y-50855
X52900Y-31855
X53500Y-50855
X53900Y-31855
X54500Y-50855
X54900Y-31855
X55500Y-50855
X56500Y-50855
X65500Y-31855
X66500Y-31855
X67500Y-31855
X68500Y-31855
X69500Y-31855
X70500Y-31855
X71500Y-31855
X72500Y-31855
T3
X75500Y-31855
X75500Y-32855
X75500Y-33855
X75500Y-34855
X75500Y-35855
X75500Y-36855
X75500Y-37855
X75500Y-38855
X75500Y-39855
X75500Y-40855
X75500Y-41855
X75500Y-42855
X75500Y-43855
X75500Y-44855
X75500Y-45855
X75500Y-46855
X75500Y-47855
X75500Y-48855
X76500Y-31855
X76500Y-32855
X76500Y-33855
X76500Y-34855
X76500Y-35855
X76500Y-36855
X76500Y-37855
X76500Y-38855
X76500Y-39855
X76500Y-40855
X76500Y-41855
X76500Y-42855
X76500Y-43855
X76500Y-44855
X76500Y-45855
X76500Y-46855
X76500Y-47855
X76500Y-48855
T4
X44060Y-43790
X44060Y-44890
X44060Y-45940
X44060Y-47040
X45060Y-43240
X45060Y-44340
X45060Y-45440
X45060Y-46490
X45060Y-47590
X64300Y-45500
X64850Y-46500
X65400Y-45500
X65950Y-46500
X66500Y-45500
X67000Y-46500
X67550Y-45500
X68100Y-46500
X68650Y-45500
T5
X41599Y-35379
X41599Y-37741
X43174Y-35379
X43174Y-37741
X44749Y-35379
X44749Y-37741
X46323Y-35379
X46323Y-37741
X47898Y-35379
X47898Y-37741
X49473Y-35379
X49473Y-37741
X51047Y-35379
X51047Y-37741
X52622Y-35379
X52622Y-37741
X54197Y-35379
X54197Y-37741
X55771Y-35379
X55771Y-37741
X57346Y-35379
X57346Y-37741
X58921Y-35379
X58921Y-37741
T6
X44060Y-40390
X44060Y-50390
X61450Y-46500
X71450Y-46500
T0
M30
