%FSLAX46Y46*%
G04 Gerber Fmt 4.6, Leading zero omitted, Abs format (unit mm)*
G04 Created by KiCad (PCBNEW (2014-10-27 BZR 5228)-product) date Fri 14 Nov 2014 06:43:38 PM PST*
%MOMM*%
G01*
G04 APERTURE LIST*
%ADD10C,0.100000*%
%ADD11C,0.170180*%
%ADD12C,0.150000*%
%ADD13C,0.304800*%
%ADD14C,0.127000*%
%ADD15C,0.500000*%
%ADD16C,1.998980*%
%ADD17C,0.099060*%
G04 APERTURE END LIST*
D10*
D11*
X132647267Y-84272967D02*
X132647267Y-85085767D01*
X132647267Y-84679367D02*
X131224867Y-84679367D01*
X131428067Y-84814833D01*
X131563533Y-84950300D01*
X131631267Y-85085767D01*
X132647267Y-82918300D02*
X132647267Y-83731100D01*
X132647267Y-83324700D02*
X131224867Y-83324700D01*
X131428067Y-83460166D01*
X131563533Y-83595633D01*
X131631267Y-83731100D01*
X139454467Y-83544833D02*
X139386733Y-83680300D01*
X139319000Y-83748033D01*
X139183533Y-83815767D01*
X139115800Y-83815767D01*
X138980333Y-83748033D01*
X138912600Y-83680300D01*
X138844867Y-83544833D01*
X138844867Y-83273900D01*
X138912600Y-83138433D01*
X138980333Y-83070700D01*
X139115800Y-83002967D01*
X139183533Y-83002967D01*
X139319000Y-83070700D01*
X139386733Y-83138433D01*
X139454467Y-83273900D01*
X139454467Y-83544833D01*
X139522200Y-83680300D01*
X139589933Y-83748033D01*
X139725400Y-83815767D01*
X139996333Y-83815767D01*
X140131800Y-83748033D01*
X140199533Y-83680300D01*
X140267267Y-83544833D01*
X140267267Y-83273900D01*
X140199533Y-83138433D01*
X140131800Y-83070700D01*
X139996333Y-83002967D01*
X139725400Y-83002967D01*
X139589933Y-83070700D01*
X139522200Y-83138433D01*
X139454467Y-83273900D01*
X137727267Y-83680300D02*
X137727267Y-83409367D01*
X137659533Y-83273900D01*
X137591800Y-83206167D01*
X137388600Y-83070700D01*
X137117667Y-83002967D01*
X136575800Y-83002967D01*
X136440333Y-83070700D01*
X136372600Y-83138433D01*
X136304867Y-83273900D01*
X136304867Y-83544833D01*
X136372600Y-83680300D01*
X136440333Y-83748033D01*
X136575800Y-83815767D01*
X136914467Y-83815767D01*
X137049933Y-83748033D01*
X137117667Y-83680300D01*
X137185400Y-83544833D01*
X137185400Y-83273900D01*
X137117667Y-83138433D01*
X137049933Y-83070700D01*
X136914467Y-83002967D01*
X135187267Y-84272967D02*
X135187267Y-85085767D01*
X135187267Y-84679367D02*
X133764867Y-84679367D01*
X133968067Y-84814833D01*
X134103533Y-84950300D01*
X134171267Y-85085767D01*
X133764867Y-83392433D02*
X133764867Y-83256966D01*
X133832600Y-83121500D01*
X133900333Y-83053766D01*
X134035800Y-82986033D01*
X134306733Y-82918300D01*
X134645400Y-82918300D01*
X134916333Y-82986033D01*
X135051800Y-83053766D01*
X135119533Y-83121500D01*
X135187267Y-83256966D01*
X135187267Y-83392433D01*
X135119533Y-83527900D01*
X135051800Y-83595633D01*
X134916333Y-83663366D01*
X134645400Y-83731100D01*
X134306733Y-83731100D01*
X134035800Y-83663366D01*
X133900333Y-83595633D01*
X133832600Y-83527900D01*
X133764867Y-83392433D01*
X130107267Y-84272967D02*
X130107267Y-85085767D01*
X130107267Y-84679367D02*
X128684867Y-84679367D01*
X128888067Y-84814833D01*
X129023533Y-84950300D01*
X129091267Y-85085767D01*
X128820333Y-83731100D02*
X128752600Y-83663366D01*
X128684867Y-83527900D01*
X128684867Y-83189233D01*
X128752600Y-83053766D01*
X128820333Y-82986033D01*
X128955800Y-82918300D01*
X129091267Y-82918300D01*
X129294467Y-82986033D01*
X130107267Y-83798833D01*
X130107267Y-82918300D01*
X127567267Y-84272967D02*
X127567267Y-85085767D01*
X127567267Y-84679367D02*
X126144867Y-84679367D01*
X126348067Y-84814833D01*
X126483533Y-84950300D01*
X126551267Y-85085767D01*
X126144867Y-83798833D02*
X126144867Y-82918300D01*
X126686733Y-83392433D01*
X126686733Y-83189233D01*
X126754467Y-83053766D01*
X126822200Y-82986033D01*
X126957667Y-82918300D01*
X127296333Y-82918300D01*
X127431800Y-82986033D01*
X127499533Y-83053766D01*
X127567267Y-83189233D01*
X127567267Y-83595633D01*
X127499533Y-83731100D01*
X127431800Y-83798833D01*
X166937267Y-83891967D02*
X166937267Y-84704767D01*
X166937267Y-84298367D02*
X165514867Y-84298367D01*
X165718067Y-84433833D01*
X165853533Y-84569300D01*
X165921267Y-84704767D01*
X165989000Y-82672766D02*
X166937267Y-82672766D01*
X165447133Y-83011433D02*
X166463133Y-83350100D01*
X166463133Y-82469566D01*
X169477267Y-83891967D02*
X169477267Y-84704767D01*
X169477267Y-84298367D02*
X168054867Y-84298367D01*
X168258067Y-84433833D01*
X168393533Y-84569300D01*
X168461267Y-84704767D01*
X168054867Y-82605033D02*
X168054867Y-83282366D01*
X168732200Y-83350100D01*
X168664467Y-83282366D01*
X168596733Y-83146900D01*
X168596733Y-82808233D01*
X168664467Y-82672766D01*
X168732200Y-82605033D01*
X168867667Y-82537300D01*
X169206333Y-82537300D01*
X169341800Y-82605033D01*
X169409533Y-82672766D01*
X169477267Y-82808233D01*
X169477267Y-83146900D01*
X169409533Y-83282366D01*
X169341800Y-83350100D01*
X172017267Y-83891967D02*
X172017267Y-84704767D01*
X172017267Y-84298367D02*
X170594867Y-84298367D01*
X170798067Y-84433833D01*
X170933533Y-84569300D01*
X171001267Y-84704767D01*
X170594867Y-82672766D02*
X170594867Y-82943700D01*
X170662600Y-83079166D01*
X170730333Y-83146900D01*
X170933533Y-83282366D01*
X171204467Y-83350100D01*
X171746333Y-83350100D01*
X171881800Y-83282366D01*
X171949533Y-83214633D01*
X172017267Y-83079166D01*
X172017267Y-82808233D01*
X171949533Y-82672766D01*
X171881800Y-82605033D01*
X171746333Y-82537300D01*
X171407667Y-82537300D01*
X171272200Y-82605033D01*
X171204467Y-82672766D01*
X171136733Y-82808233D01*
X171136733Y-83079166D01*
X171204467Y-83214633D01*
X171272200Y-83282366D01*
X171407667Y-83350100D01*
X174557267Y-83891967D02*
X174557267Y-84704767D01*
X174557267Y-84298367D02*
X173134867Y-84298367D01*
X173338067Y-84433833D01*
X173473533Y-84569300D01*
X173541267Y-84704767D01*
X173134867Y-83417833D02*
X173134867Y-82469566D01*
X174557267Y-83079166D01*
X177097267Y-83891967D02*
X177097267Y-84704767D01*
X177097267Y-84298367D02*
X175674867Y-84298367D01*
X175878067Y-84433833D01*
X176013533Y-84569300D01*
X176081267Y-84704767D01*
X176284467Y-83079166D02*
X176216733Y-83214633D01*
X176149000Y-83282366D01*
X176013533Y-83350100D01*
X175945800Y-83350100D01*
X175810333Y-83282366D01*
X175742600Y-83214633D01*
X175674867Y-83079166D01*
X175674867Y-82808233D01*
X175742600Y-82672766D01*
X175810333Y-82605033D01*
X175945800Y-82537300D01*
X176013533Y-82537300D01*
X176149000Y-82605033D01*
X176216733Y-82672766D01*
X176284467Y-82808233D01*
X176284467Y-83079166D01*
X176352200Y-83214633D01*
X176419933Y-83282366D01*
X176555400Y-83350100D01*
X176826333Y-83350100D01*
X176961800Y-83282366D01*
X177029533Y-83214633D01*
X177097267Y-83079166D01*
X177097267Y-82808233D01*
X177029533Y-82672766D01*
X176961800Y-82605033D01*
X176826333Y-82537300D01*
X176555400Y-82537300D01*
X176419933Y-82605033D01*
X176352200Y-82672766D01*
X176284467Y-82808233D01*
X179637267Y-83891967D02*
X179637267Y-84704767D01*
X179637267Y-84298367D02*
X178214867Y-84298367D01*
X178418067Y-84433833D01*
X178553533Y-84569300D01*
X178621267Y-84704767D01*
X179637267Y-83214633D02*
X179637267Y-82943700D01*
X179569533Y-82808233D01*
X179501800Y-82740500D01*
X179298600Y-82605033D01*
X179027667Y-82537300D01*
X178485800Y-82537300D01*
X178350333Y-82605033D01*
X178282600Y-82672766D01*
X178214867Y-82808233D01*
X178214867Y-83079166D01*
X178282600Y-83214633D01*
X178350333Y-83282366D01*
X178485800Y-83350100D01*
X178824467Y-83350100D01*
X178959933Y-83282366D01*
X179027667Y-83214633D01*
X179095400Y-83079166D01*
X179095400Y-82808233D01*
X179027667Y-82672766D01*
X178959933Y-82605033D01*
X178824467Y-82537300D01*
X180890333Y-84704767D02*
X180822600Y-84637033D01*
X180754867Y-84501567D01*
X180754867Y-84162900D01*
X180822600Y-84027433D01*
X180890333Y-83959700D01*
X181025800Y-83891967D01*
X181161267Y-83891967D01*
X181364467Y-83959700D01*
X182177267Y-84772500D01*
X182177267Y-83891967D01*
X180754867Y-83011433D02*
X180754867Y-82875966D01*
X180822600Y-82740500D01*
X180890333Y-82672766D01*
X181025800Y-82605033D01*
X181296733Y-82537300D01*
X181635400Y-82537300D01*
X181906333Y-82605033D01*
X182041800Y-82672766D01*
X182109533Y-82740500D01*
X182177267Y-82875966D01*
X182177267Y-83011433D01*
X182109533Y-83146900D01*
X182041800Y-83214633D01*
X181906333Y-83282366D01*
X181635400Y-83350100D01*
X181296733Y-83350100D01*
X181025800Y-83282366D01*
X180890333Y-83214633D01*
X180822600Y-83146900D01*
X180754867Y-83011433D01*
X183430333Y-84704767D02*
X183362600Y-84637033D01*
X183294867Y-84501567D01*
X183294867Y-84162900D01*
X183362600Y-84027433D01*
X183430333Y-83959700D01*
X183565800Y-83891967D01*
X183701267Y-83891967D01*
X183904467Y-83959700D01*
X184717267Y-84772500D01*
X184717267Y-83891967D01*
X184717267Y-82537300D02*
X184717267Y-83350100D01*
X184717267Y-82943700D02*
X183294867Y-82943700D01*
X183498067Y-83079166D01*
X183633533Y-83214633D01*
X183701267Y-83350100D01*
X188230933Y-82732033D02*
X188298667Y-82664300D01*
X188434133Y-82596567D01*
X188772800Y-82596567D01*
X188908267Y-82664300D01*
X188976000Y-82732033D01*
X189043733Y-82867500D01*
X189043733Y-83002967D01*
X188976000Y-83206167D01*
X188163200Y-84018967D01*
X189043733Y-84018967D01*
X189585600Y-82732033D02*
X189653334Y-82664300D01*
X189788800Y-82596567D01*
X190127467Y-82596567D01*
X190262934Y-82664300D01*
X190330667Y-82732033D01*
X190398400Y-82867500D01*
X190398400Y-83002967D01*
X190330667Y-83206167D01*
X189517867Y-84018967D01*
X190398400Y-84018967D01*
X188230933Y-85272033D02*
X188298667Y-85204300D01*
X188434133Y-85136567D01*
X188772800Y-85136567D01*
X188908267Y-85204300D01*
X188976000Y-85272033D01*
X189043733Y-85407500D01*
X189043733Y-85542967D01*
X188976000Y-85746167D01*
X188163200Y-86558967D01*
X189043733Y-86558967D01*
X190262934Y-85610700D02*
X190262934Y-86558967D01*
X189924267Y-85068833D02*
X189585600Y-86084833D01*
X190466134Y-86084833D01*
X188230933Y-87812033D02*
X188298667Y-87744300D01*
X188434133Y-87676567D01*
X188772800Y-87676567D01*
X188908267Y-87744300D01*
X188976000Y-87812033D01*
X189043733Y-87947500D01*
X189043733Y-88082967D01*
X188976000Y-88286167D01*
X188163200Y-89098967D01*
X189043733Y-89098967D01*
X190262934Y-87676567D02*
X189992000Y-87676567D01*
X189856534Y-87744300D01*
X189788800Y-87812033D01*
X189653334Y-88015233D01*
X189585600Y-88286167D01*
X189585600Y-88828033D01*
X189653334Y-88963500D01*
X189721067Y-89031233D01*
X189856534Y-89098967D01*
X190127467Y-89098967D01*
X190262934Y-89031233D01*
X190330667Y-88963500D01*
X190398400Y-88828033D01*
X190398400Y-88489367D01*
X190330667Y-88353900D01*
X190262934Y-88286167D01*
X190127467Y-88218433D01*
X189856534Y-88218433D01*
X189721067Y-88286167D01*
X189653334Y-88353900D01*
X189585600Y-88489367D01*
X188230933Y-90352033D02*
X188298667Y-90284300D01*
X188434133Y-90216567D01*
X188772800Y-90216567D01*
X188908267Y-90284300D01*
X188976000Y-90352033D01*
X189043733Y-90487500D01*
X189043733Y-90622967D01*
X188976000Y-90826167D01*
X188163200Y-91638967D01*
X189043733Y-91638967D01*
X189856534Y-90826167D02*
X189721067Y-90758433D01*
X189653334Y-90690700D01*
X189585600Y-90555233D01*
X189585600Y-90487500D01*
X189653334Y-90352033D01*
X189721067Y-90284300D01*
X189856534Y-90216567D01*
X190127467Y-90216567D01*
X190262934Y-90284300D01*
X190330667Y-90352033D01*
X190398400Y-90487500D01*
X190398400Y-90555233D01*
X190330667Y-90690700D01*
X190262934Y-90758433D01*
X190127467Y-90826167D01*
X189856534Y-90826167D01*
X189721067Y-90893900D01*
X189653334Y-90961633D01*
X189585600Y-91097100D01*
X189585600Y-91368033D01*
X189653334Y-91503500D01*
X189721067Y-91571233D01*
X189856534Y-91638967D01*
X190127467Y-91638967D01*
X190262934Y-91571233D01*
X190330667Y-91503500D01*
X190398400Y-91368033D01*
X190398400Y-91097100D01*
X190330667Y-90961633D01*
X190262934Y-90893900D01*
X190127467Y-90826167D01*
X188163200Y-92756567D02*
X189043733Y-92756567D01*
X188569600Y-93298433D01*
X188772800Y-93298433D01*
X188908267Y-93366167D01*
X188976000Y-93433900D01*
X189043733Y-93569367D01*
X189043733Y-93908033D01*
X188976000Y-94043500D01*
X188908267Y-94111233D01*
X188772800Y-94178967D01*
X188366400Y-94178967D01*
X188230933Y-94111233D01*
X188163200Y-94043500D01*
X189924267Y-92756567D02*
X190059734Y-92756567D01*
X190195200Y-92824300D01*
X190262934Y-92892033D01*
X190330667Y-93027500D01*
X190398400Y-93298433D01*
X190398400Y-93637100D01*
X190330667Y-93908033D01*
X190262934Y-94043500D01*
X190195200Y-94111233D01*
X190059734Y-94178967D01*
X189924267Y-94178967D01*
X189788800Y-94111233D01*
X189721067Y-94043500D01*
X189653334Y-93908033D01*
X189585600Y-93637100D01*
X189585600Y-93298433D01*
X189653334Y-93027500D01*
X189721067Y-92892033D01*
X189788800Y-92824300D01*
X189924267Y-92756567D01*
X196418200Y-92756567D02*
X197298733Y-92756567D01*
X196824600Y-93298433D01*
X197027800Y-93298433D01*
X197163267Y-93366167D01*
X197231000Y-93433900D01*
X197298733Y-93569367D01*
X197298733Y-93908033D01*
X197231000Y-94043500D01*
X197163267Y-94111233D01*
X197027800Y-94178967D01*
X196621400Y-94178967D01*
X196485933Y-94111233D01*
X196418200Y-94043500D01*
X198653400Y-94178967D02*
X197840600Y-94178967D01*
X198247000Y-94178967D02*
X198247000Y-92756567D01*
X198111534Y-92959767D01*
X197976067Y-93095233D01*
X197840600Y-93162967D01*
X188163200Y-95296567D02*
X189043733Y-95296567D01*
X188569600Y-95838433D01*
X188772800Y-95838433D01*
X188908267Y-95906167D01*
X188976000Y-95973900D01*
X189043733Y-96109367D01*
X189043733Y-96448033D01*
X188976000Y-96583500D01*
X188908267Y-96651233D01*
X188772800Y-96718967D01*
X188366400Y-96718967D01*
X188230933Y-96651233D01*
X188163200Y-96583500D01*
X189585600Y-95432033D02*
X189653334Y-95364300D01*
X189788800Y-95296567D01*
X190127467Y-95296567D01*
X190262934Y-95364300D01*
X190330667Y-95432033D01*
X190398400Y-95567500D01*
X190398400Y-95702967D01*
X190330667Y-95906167D01*
X189517867Y-96718967D01*
X190398400Y-96718967D01*
X196418200Y-95296567D02*
X197298733Y-95296567D01*
X196824600Y-95838433D01*
X197027800Y-95838433D01*
X197163267Y-95906167D01*
X197231000Y-95973900D01*
X197298733Y-96109367D01*
X197298733Y-96448033D01*
X197231000Y-96583500D01*
X197163267Y-96651233D01*
X197027800Y-96718967D01*
X196621400Y-96718967D01*
X196485933Y-96651233D01*
X196418200Y-96583500D01*
X197772867Y-95296567D02*
X198653400Y-95296567D01*
X198179267Y-95838433D01*
X198382467Y-95838433D01*
X198517934Y-95906167D01*
X198585667Y-95973900D01*
X198653400Y-96109367D01*
X198653400Y-96448033D01*
X198585667Y-96583500D01*
X198517934Y-96651233D01*
X198382467Y-96718967D01*
X197976067Y-96718967D01*
X197840600Y-96651233D01*
X197772867Y-96583500D01*
X188163200Y-97836567D02*
X189043733Y-97836567D01*
X188569600Y-98378433D01*
X188772800Y-98378433D01*
X188908267Y-98446167D01*
X188976000Y-98513900D01*
X189043733Y-98649367D01*
X189043733Y-98988033D01*
X188976000Y-99123500D01*
X188908267Y-99191233D01*
X188772800Y-99258967D01*
X188366400Y-99258967D01*
X188230933Y-99191233D01*
X188163200Y-99123500D01*
X190262934Y-98310700D02*
X190262934Y-99258967D01*
X189924267Y-97768833D02*
X189585600Y-98784833D01*
X190466134Y-98784833D01*
X196418200Y-97836567D02*
X197298733Y-97836567D01*
X196824600Y-98378433D01*
X197027800Y-98378433D01*
X197163267Y-98446167D01*
X197231000Y-98513900D01*
X197298733Y-98649367D01*
X197298733Y-98988033D01*
X197231000Y-99123500D01*
X197163267Y-99191233D01*
X197027800Y-99258967D01*
X196621400Y-99258967D01*
X196485933Y-99191233D01*
X196418200Y-99123500D01*
X198585667Y-97836567D02*
X197908334Y-97836567D01*
X197840600Y-98513900D01*
X197908334Y-98446167D01*
X198043800Y-98378433D01*
X198382467Y-98378433D01*
X198517934Y-98446167D01*
X198585667Y-98513900D01*
X198653400Y-98649367D01*
X198653400Y-98988033D01*
X198585667Y-99123500D01*
X198517934Y-99191233D01*
X198382467Y-99258967D01*
X198043800Y-99258967D01*
X197908334Y-99191233D01*
X197840600Y-99123500D01*
X188163200Y-100376567D02*
X189043733Y-100376567D01*
X188569600Y-100918433D01*
X188772800Y-100918433D01*
X188908267Y-100986167D01*
X188976000Y-101053900D01*
X189043733Y-101189367D01*
X189043733Y-101528033D01*
X188976000Y-101663500D01*
X188908267Y-101731233D01*
X188772800Y-101798967D01*
X188366400Y-101798967D01*
X188230933Y-101731233D01*
X188163200Y-101663500D01*
X190262934Y-100376567D02*
X189992000Y-100376567D01*
X189856534Y-100444300D01*
X189788800Y-100512033D01*
X189653334Y-100715233D01*
X189585600Y-100986167D01*
X189585600Y-101528033D01*
X189653334Y-101663500D01*
X189721067Y-101731233D01*
X189856534Y-101798967D01*
X190127467Y-101798967D01*
X190262934Y-101731233D01*
X190330667Y-101663500D01*
X190398400Y-101528033D01*
X190398400Y-101189367D01*
X190330667Y-101053900D01*
X190262934Y-100986167D01*
X190127467Y-100918433D01*
X189856534Y-100918433D01*
X189721067Y-100986167D01*
X189653334Y-101053900D01*
X189585600Y-101189367D01*
X196418200Y-100376567D02*
X197298733Y-100376567D01*
X196824600Y-100918433D01*
X197027800Y-100918433D01*
X197163267Y-100986167D01*
X197231000Y-101053900D01*
X197298733Y-101189367D01*
X197298733Y-101528033D01*
X197231000Y-101663500D01*
X197163267Y-101731233D01*
X197027800Y-101798967D01*
X196621400Y-101798967D01*
X196485933Y-101731233D01*
X196418200Y-101663500D01*
X197772867Y-100376567D02*
X198721134Y-100376567D01*
X198111534Y-101798967D01*
X188163200Y-102916567D02*
X189043733Y-102916567D01*
X188569600Y-103458433D01*
X188772800Y-103458433D01*
X188908267Y-103526167D01*
X188976000Y-103593900D01*
X189043733Y-103729367D01*
X189043733Y-104068033D01*
X188976000Y-104203500D01*
X188908267Y-104271233D01*
X188772800Y-104338967D01*
X188366400Y-104338967D01*
X188230933Y-104271233D01*
X188163200Y-104203500D01*
X189856534Y-103526167D02*
X189721067Y-103458433D01*
X189653334Y-103390700D01*
X189585600Y-103255233D01*
X189585600Y-103187500D01*
X189653334Y-103052033D01*
X189721067Y-102984300D01*
X189856534Y-102916567D01*
X190127467Y-102916567D01*
X190262934Y-102984300D01*
X190330667Y-103052033D01*
X190398400Y-103187500D01*
X190398400Y-103255233D01*
X190330667Y-103390700D01*
X190262934Y-103458433D01*
X190127467Y-103526167D01*
X189856534Y-103526167D01*
X189721067Y-103593900D01*
X189653334Y-103661633D01*
X189585600Y-103797100D01*
X189585600Y-104068033D01*
X189653334Y-104203500D01*
X189721067Y-104271233D01*
X189856534Y-104338967D01*
X190127467Y-104338967D01*
X190262934Y-104271233D01*
X190330667Y-104203500D01*
X190398400Y-104068033D01*
X190398400Y-103797100D01*
X190330667Y-103661633D01*
X190262934Y-103593900D01*
X190127467Y-103526167D01*
X196418200Y-102916567D02*
X197298733Y-102916567D01*
X196824600Y-103458433D01*
X197027800Y-103458433D01*
X197163267Y-103526167D01*
X197231000Y-103593900D01*
X197298733Y-103729367D01*
X197298733Y-104068033D01*
X197231000Y-104203500D01*
X197163267Y-104271233D01*
X197027800Y-104338967D01*
X196621400Y-104338967D01*
X196485933Y-104271233D01*
X196418200Y-104203500D01*
X197976067Y-104338967D02*
X198247000Y-104338967D01*
X198382467Y-104271233D01*
X198450200Y-104203500D01*
X198585667Y-104000300D01*
X198653400Y-103729367D01*
X198653400Y-103187500D01*
X198585667Y-103052033D01*
X198517934Y-102984300D01*
X198382467Y-102916567D01*
X198111534Y-102916567D01*
X197976067Y-102984300D01*
X197908334Y-103052033D01*
X197840600Y-103187500D01*
X197840600Y-103526167D01*
X197908334Y-103661633D01*
X197976067Y-103729367D01*
X198111534Y-103797100D01*
X198382467Y-103797100D01*
X198517934Y-103729367D01*
X198585667Y-103661633D01*
X198653400Y-103526167D01*
X197163267Y-105930700D02*
X197163267Y-106878967D01*
X196824600Y-105388833D02*
X196485933Y-106404833D01*
X197366467Y-106404833D01*
X198653400Y-106878967D02*
X197840600Y-106878967D01*
X198247000Y-106878967D02*
X198247000Y-105456567D01*
X198111534Y-105659767D01*
X197976067Y-105795233D01*
X197840600Y-105862967D01*
X188908267Y-105930700D02*
X188908267Y-106878967D01*
X188569600Y-105388833D02*
X188230933Y-106404833D01*
X189111467Y-106404833D01*
X189924267Y-105456567D02*
X190059734Y-105456567D01*
X190195200Y-105524300D01*
X190262934Y-105592033D01*
X190330667Y-105727500D01*
X190398400Y-105998433D01*
X190398400Y-106337100D01*
X190330667Y-106608033D01*
X190262934Y-106743500D01*
X190195200Y-106811233D01*
X190059734Y-106878967D01*
X189924267Y-106878967D01*
X189788800Y-106811233D01*
X189721067Y-106743500D01*
X189653334Y-106608033D01*
X189585600Y-106337100D01*
X189585600Y-105998433D01*
X189653334Y-105727500D01*
X189721067Y-105592033D01*
X189788800Y-105524300D01*
X189924267Y-105456567D01*
X197163267Y-108470700D02*
X197163267Y-109418967D01*
X196824600Y-107928833D02*
X196485933Y-108944833D01*
X197366467Y-108944833D01*
X197772867Y-107996567D02*
X198653400Y-107996567D01*
X198179267Y-108538433D01*
X198382467Y-108538433D01*
X198517934Y-108606167D01*
X198585667Y-108673900D01*
X198653400Y-108809367D01*
X198653400Y-109148033D01*
X198585667Y-109283500D01*
X198517934Y-109351233D01*
X198382467Y-109418967D01*
X197976067Y-109418967D01*
X197840600Y-109351233D01*
X197772867Y-109283500D01*
X188908267Y-108470700D02*
X188908267Y-109418967D01*
X188569600Y-107928833D02*
X188230933Y-108944833D01*
X189111467Y-108944833D01*
X189585600Y-108132033D02*
X189653334Y-108064300D01*
X189788800Y-107996567D01*
X190127467Y-107996567D01*
X190262934Y-108064300D01*
X190330667Y-108132033D01*
X190398400Y-108267500D01*
X190398400Y-108402967D01*
X190330667Y-108606167D01*
X189517867Y-109418967D01*
X190398400Y-109418967D01*
X197163267Y-111010700D02*
X197163267Y-111958967D01*
X196824600Y-110468833D02*
X196485933Y-111484833D01*
X197366467Y-111484833D01*
X198585667Y-110536567D02*
X197908334Y-110536567D01*
X197840600Y-111213900D01*
X197908334Y-111146167D01*
X198043800Y-111078433D01*
X198382467Y-111078433D01*
X198517934Y-111146167D01*
X198585667Y-111213900D01*
X198653400Y-111349367D01*
X198653400Y-111688033D01*
X198585667Y-111823500D01*
X198517934Y-111891233D01*
X198382467Y-111958967D01*
X198043800Y-111958967D01*
X197908334Y-111891233D01*
X197840600Y-111823500D01*
X197163267Y-113550700D02*
X197163267Y-114498967D01*
X196824600Y-113008833D02*
X196485933Y-114024833D01*
X197366467Y-114024833D01*
X197772867Y-113076567D02*
X198721134Y-113076567D01*
X198111534Y-114498967D01*
X197163267Y-116090700D02*
X197163267Y-117038967D01*
X196824600Y-115548833D02*
X196485933Y-116564833D01*
X197366467Y-116564833D01*
X197976067Y-117038967D02*
X198247000Y-117038967D01*
X198382467Y-116971233D01*
X198450200Y-116903500D01*
X198585667Y-116700300D01*
X198653400Y-116429367D01*
X198653400Y-115887500D01*
X198585667Y-115752033D01*
X198517934Y-115684300D01*
X198382467Y-115616567D01*
X198111534Y-115616567D01*
X197976067Y-115684300D01*
X197908334Y-115752033D01*
X197840600Y-115887500D01*
X197840600Y-116226167D01*
X197908334Y-116361633D01*
X197976067Y-116429367D01*
X198111534Y-116497100D01*
X198382467Y-116497100D01*
X198517934Y-116429367D01*
X198585667Y-116361633D01*
X198653400Y-116226167D01*
X197231000Y-118156567D02*
X196553667Y-118156567D01*
X196485933Y-118833900D01*
X196553667Y-118766167D01*
X196689133Y-118698433D01*
X197027800Y-118698433D01*
X197163267Y-118766167D01*
X197231000Y-118833900D01*
X197298733Y-118969367D01*
X197298733Y-119308033D01*
X197231000Y-119443500D01*
X197163267Y-119511233D01*
X197027800Y-119578967D01*
X196689133Y-119578967D01*
X196553667Y-119511233D01*
X196485933Y-119443500D01*
X198653400Y-119578967D02*
X197840600Y-119578967D01*
X198247000Y-119578967D02*
X198247000Y-118156567D01*
X198111534Y-118359767D01*
X197976067Y-118495233D01*
X197840600Y-118562967D01*
X188908267Y-111010700D02*
X188908267Y-111958967D01*
X188569600Y-110468833D02*
X188230933Y-111484833D01*
X189111467Y-111484833D01*
X190262934Y-111010700D02*
X190262934Y-111958967D01*
X189924267Y-110468833D02*
X189585600Y-111484833D01*
X190466134Y-111484833D01*
X188908267Y-113550700D02*
X188908267Y-114498967D01*
X188569600Y-113008833D02*
X188230933Y-114024833D01*
X189111467Y-114024833D01*
X190262934Y-113076567D02*
X189992000Y-113076567D01*
X189856534Y-113144300D01*
X189788800Y-113212033D01*
X189653334Y-113415233D01*
X189585600Y-113686167D01*
X189585600Y-114228033D01*
X189653334Y-114363500D01*
X189721067Y-114431233D01*
X189856534Y-114498967D01*
X190127467Y-114498967D01*
X190262934Y-114431233D01*
X190330667Y-114363500D01*
X190398400Y-114228033D01*
X190398400Y-113889367D01*
X190330667Y-113753900D01*
X190262934Y-113686167D01*
X190127467Y-113618433D01*
X189856534Y-113618433D01*
X189721067Y-113686167D01*
X189653334Y-113753900D01*
X189585600Y-113889367D01*
X188976000Y-118156567D02*
X188298667Y-118156567D01*
X188230933Y-118833900D01*
X188298667Y-118766167D01*
X188434133Y-118698433D01*
X188772800Y-118698433D01*
X188908267Y-118766167D01*
X188976000Y-118833900D01*
X189043733Y-118969367D01*
X189043733Y-119308033D01*
X188976000Y-119443500D01*
X188908267Y-119511233D01*
X188772800Y-119578967D01*
X188434133Y-119578967D01*
X188298667Y-119511233D01*
X188230933Y-119443500D01*
X189924267Y-118156567D02*
X190059734Y-118156567D01*
X190195200Y-118224300D01*
X190262934Y-118292033D01*
X190330667Y-118427500D01*
X190398400Y-118698433D01*
X190398400Y-119037100D01*
X190330667Y-119308033D01*
X190262934Y-119443500D01*
X190195200Y-119511233D01*
X190059734Y-119578967D01*
X189924267Y-119578967D01*
X189788800Y-119511233D01*
X189721067Y-119443500D01*
X189653334Y-119308033D01*
X189585600Y-119037100D01*
X189585600Y-118698433D01*
X189653334Y-118427500D01*
X189721067Y-118292033D01*
X189788800Y-118224300D01*
X189924267Y-118156567D01*
X188908267Y-116090700D02*
X188908267Y-117038967D01*
X188569600Y-115548833D02*
X188230933Y-116564833D01*
X189111467Y-116564833D01*
X189856534Y-116226167D02*
X189721067Y-116158433D01*
X189653334Y-116090700D01*
X189585600Y-115955233D01*
X189585600Y-115887500D01*
X189653334Y-115752033D01*
X189721067Y-115684300D01*
X189856534Y-115616567D01*
X190127467Y-115616567D01*
X190262934Y-115684300D01*
X190330667Y-115752033D01*
X190398400Y-115887500D01*
X190398400Y-115955233D01*
X190330667Y-116090700D01*
X190262934Y-116158433D01*
X190127467Y-116226167D01*
X189856534Y-116226167D01*
X189721067Y-116293900D01*
X189653334Y-116361633D01*
X189585600Y-116497100D01*
X189585600Y-116768033D01*
X189653334Y-116903500D01*
X189721067Y-116971233D01*
X189856534Y-117038967D01*
X190127467Y-117038967D01*
X190262934Y-116971233D01*
X190330667Y-116903500D01*
X190398400Y-116768033D01*
X190398400Y-116497100D01*
X190330667Y-116361633D01*
X190262934Y-116293900D01*
X190127467Y-116226167D01*
X197231000Y-120696567D02*
X196553667Y-120696567D01*
X196485933Y-121373900D01*
X196553667Y-121306167D01*
X196689133Y-121238433D01*
X197027800Y-121238433D01*
X197163267Y-121306167D01*
X197231000Y-121373900D01*
X197298733Y-121509367D01*
X197298733Y-121848033D01*
X197231000Y-121983500D01*
X197163267Y-122051233D01*
X197027800Y-122118967D01*
X196689133Y-122118967D01*
X196553667Y-122051233D01*
X196485933Y-121983500D01*
X197772867Y-120696567D02*
X198653400Y-120696567D01*
X198179267Y-121238433D01*
X198382467Y-121238433D01*
X198517934Y-121306167D01*
X198585667Y-121373900D01*
X198653400Y-121509367D01*
X198653400Y-121848033D01*
X198585667Y-121983500D01*
X198517934Y-122051233D01*
X198382467Y-122118967D01*
X197976067Y-122118967D01*
X197840600Y-122051233D01*
X197772867Y-121983500D01*
X188976000Y-120696567D02*
X188298667Y-120696567D01*
X188230933Y-121373900D01*
X188298667Y-121306167D01*
X188434133Y-121238433D01*
X188772800Y-121238433D01*
X188908267Y-121306167D01*
X188976000Y-121373900D01*
X189043733Y-121509367D01*
X189043733Y-121848033D01*
X188976000Y-121983500D01*
X188908267Y-122051233D01*
X188772800Y-122118967D01*
X188434133Y-122118967D01*
X188298667Y-122051233D01*
X188230933Y-121983500D01*
X189585600Y-120832033D02*
X189653334Y-120764300D01*
X189788800Y-120696567D01*
X190127467Y-120696567D01*
X190262934Y-120764300D01*
X190330667Y-120832033D01*
X190398400Y-120967500D01*
X190398400Y-121102967D01*
X190330667Y-121306167D01*
X189517867Y-122118967D01*
X190398400Y-122118967D01*
D12*
X129255000Y-105400000D02*
X128555000Y-105400000D01*
X128555000Y-104200000D02*
X129255000Y-104200000D01*
X160178000Y-103794000D02*
X160878000Y-103794000D01*
X160878000Y-104994000D02*
X160178000Y-104994000D01*
X125587000Y-107335000D02*
X125587000Y-106635000D01*
X126787000Y-106635000D02*
X126787000Y-107335000D01*
X164219000Y-101409000D02*
X165219000Y-101409000D01*
X165219000Y-99709000D02*
X164219000Y-99709000D01*
X165040000Y-111029000D02*
X165040000Y-111729000D01*
X163840000Y-111729000D02*
X163840000Y-111029000D01*
X134968000Y-103747000D02*
X133968000Y-103747000D01*
X133968000Y-105447000D02*
X134968000Y-105447000D01*
X137307000Y-107331000D02*
X136607000Y-107331000D01*
X136607000Y-106131000D02*
X137307000Y-106131000D01*
X161554000Y-109570000D02*
X161554000Y-108870000D01*
X162754000Y-108870000D02*
X162754000Y-109570000D01*
D13*
X115468000Y-131547000D02*
X115468000Y-99035000D01*
X115468000Y-99035000D02*
X97688000Y-99035000D01*
X97688000Y-99035000D02*
X97688000Y-131547000D01*
X97688000Y-131547000D02*
X115468000Y-131547000D01*
X97688000Y-124435000D02*
X105308000Y-124435000D01*
X105308000Y-124435000D02*
X105308000Y-106147000D01*
X105308000Y-106147000D02*
X97688000Y-106147000D01*
X97688000Y-122911000D02*
X89052000Y-122911000D01*
X89052000Y-122911000D02*
X89052000Y-107671000D01*
X89052000Y-107671000D02*
X97688000Y-107671000D01*
X185039000Y-114554000D02*
X152527000Y-114554000D01*
X152527000Y-114554000D02*
X152527000Y-132334000D01*
X152527000Y-132334000D02*
X185039000Y-132334000D01*
X185039000Y-132334000D02*
X185039000Y-114554000D01*
X177927000Y-132334000D02*
X177927000Y-124714000D01*
X177927000Y-124714000D02*
X159639000Y-124714000D01*
X159639000Y-124714000D02*
X159639000Y-132334000D01*
X176403000Y-132334000D02*
X176403000Y-140970000D01*
X176403000Y-140970000D02*
X161163000Y-140970000D01*
X161163000Y-140970000D02*
X161163000Y-132334000D01*
D14*
X133045000Y-105791000D02*
X129489000Y-105791000D01*
X133045000Y-115697000D02*
X129489000Y-115697000D01*
X133045000Y-115697000D02*
X133045000Y-105791000D01*
X129489000Y-105791000D02*
X129489000Y-115697000D01*
X130534981Y-106553000D02*
G75*
G03X130534981Y-106553000I-283981J0D01*
G01*
X162687000Y-103632000D02*
X162687000Y-107188000D01*
X172593000Y-103632000D02*
X172593000Y-107188000D01*
X172593000Y-103632000D02*
X162687000Y-103632000D01*
X162687000Y-107188000D02*
X172593000Y-107188000D01*
X163732981Y-106426000D02*
G75*
G03X163732981Y-106426000I-283981J0D01*
G01*
D15*
X78080000Y-95712400D02*
X78080000Y-90012400D01*
X81680000Y-90012400D02*
X81680000Y-95712400D01*
X99161200Y-95712400D02*
X81680000Y-95712400D01*
X99161200Y-90012400D02*
X81680000Y-90012400D01*
D16*
X99161200Y-97360740D02*
X99161200Y-88364060D01*
X99161200Y-88364060D02*
X103161700Y-88364060D01*
X152158300Y-88364060D02*
X156158800Y-88364060D01*
X156158800Y-97360740D02*
X156158800Y-88364060D01*
X99161200Y-97360740D02*
X103161700Y-97360740D01*
X152158300Y-97360740D02*
X156158800Y-97360740D01*
D12*
X128738334Y-107057143D02*
X128690715Y-107104762D01*
X128547858Y-107152381D01*
X128452620Y-107152381D01*
X128309762Y-107104762D01*
X128214524Y-107009524D01*
X128166905Y-106914286D01*
X128119286Y-106723810D01*
X128119286Y-106580952D01*
X128166905Y-106390476D01*
X128214524Y-106295238D01*
X128309762Y-106200000D01*
X128452620Y-106152381D01*
X128547858Y-106152381D01*
X128690715Y-106200000D01*
X128738334Y-106247619D01*
X129690715Y-107152381D02*
X129119286Y-107152381D01*
X129405000Y-107152381D02*
X129405000Y-106152381D01*
X129309762Y-106295238D01*
X129214524Y-106390476D01*
X129119286Y-106438095D01*
X124500238Y-102352381D02*
X124595477Y-102352381D01*
X124690715Y-102400000D01*
X124738334Y-102447619D01*
X124785953Y-102542857D01*
X124833572Y-102733333D01*
X124833572Y-102971429D01*
X124785953Y-103161905D01*
X124738334Y-103257143D01*
X124690715Y-103304762D01*
X124595477Y-103352381D01*
X124500238Y-103352381D01*
X124405000Y-103304762D01*
X124357381Y-103257143D01*
X124309762Y-103161905D01*
X124262143Y-102971429D01*
X124262143Y-102733333D01*
X124309762Y-102542857D01*
X124357381Y-102447619D01*
X124405000Y-102400000D01*
X124500238Y-102352381D01*
X125262143Y-103257143D02*
X125309762Y-103304762D01*
X125262143Y-103352381D01*
X125214524Y-103304762D01*
X125262143Y-103257143D01*
X125262143Y-103352381D01*
X125643095Y-102352381D02*
X126262143Y-102352381D01*
X125928809Y-102733333D01*
X126071667Y-102733333D01*
X126166905Y-102780952D01*
X126214524Y-102828571D01*
X126262143Y-102923810D01*
X126262143Y-103161905D01*
X126214524Y-103257143D01*
X126166905Y-103304762D01*
X126071667Y-103352381D01*
X125785952Y-103352381D01*
X125690714Y-103304762D01*
X125643095Y-103257143D01*
X126595476Y-102352381D02*
X127214524Y-102352381D01*
X126881190Y-102733333D01*
X127024048Y-102733333D01*
X127119286Y-102780952D01*
X127166905Y-102828571D01*
X127214524Y-102923810D01*
X127214524Y-103161905D01*
X127166905Y-103257143D01*
X127119286Y-103304762D01*
X127024048Y-103352381D01*
X126738333Y-103352381D01*
X126643095Y-103304762D01*
X126595476Y-103257143D01*
X128071667Y-102685714D02*
X128071667Y-103352381D01*
X127643095Y-102685714D02*
X127643095Y-103209524D01*
X127690714Y-103304762D01*
X127785952Y-103352381D01*
X127928810Y-103352381D01*
X128024048Y-103304762D01*
X128071667Y-103257143D01*
X128881191Y-102828571D02*
X128547857Y-102828571D01*
X128547857Y-103352381D02*
X128547857Y-102352381D01*
X129024048Y-102352381D01*
X129166905Y-103447619D02*
X129928810Y-103447619D01*
X130357381Y-102352381D02*
X130452620Y-102352381D01*
X130547858Y-102400000D01*
X130595477Y-102447619D01*
X130643096Y-102542857D01*
X130690715Y-102733333D01*
X130690715Y-102971429D01*
X130643096Y-103161905D01*
X130595477Y-103257143D01*
X130547858Y-103304762D01*
X130452620Y-103352381D01*
X130357381Y-103352381D01*
X130262143Y-103304762D01*
X130214524Y-103257143D01*
X130166905Y-103161905D01*
X130119286Y-102971429D01*
X130119286Y-102733333D01*
X130166905Y-102542857D01*
X130214524Y-102447619D01*
X130262143Y-102400000D01*
X130357381Y-102352381D01*
X131547858Y-102352381D02*
X131357381Y-102352381D01*
X131262143Y-102400000D01*
X131214524Y-102447619D01*
X131119286Y-102590476D01*
X131071667Y-102780952D01*
X131071667Y-103161905D01*
X131119286Y-103257143D01*
X131166905Y-103304762D01*
X131262143Y-103352381D01*
X131452620Y-103352381D01*
X131547858Y-103304762D01*
X131595477Y-103257143D01*
X131643096Y-103161905D01*
X131643096Y-102923810D01*
X131595477Y-102828571D01*
X131547858Y-102780952D01*
X131452620Y-102733333D01*
X131262143Y-102733333D01*
X131166905Y-102780952D01*
X131119286Y-102828571D01*
X131071667Y-102923810D01*
X132262143Y-102352381D02*
X132357382Y-102352381D01*
X132452620Y-102400000D01*
X132500239Y-102447619D01*
X132547858Y-102542857D01*
X132595477Y-102733333D01*
X132595477Y-102971429D01*
X132547858Y-103161905D01*
X132500239Y-103257143D01*
X132452620Y-103304762D01*
X132357382Y-103352381D01*
X132262143Y-103352381D01*
X132166905Y-103304762D01*
X132119286Y-103257143D01*
X132071667Y-103161905D01*
X132024048Y-102971429D01*
X132024048Y-102733333D01*
X132071667Y-102542857D01*
X132119286Y-102447619D01*
X132166905Y-102400000D01*
X132262143Y-102352381D01*
X132928810Y-102352381D02*
X133547858Y-102352381D01*
X133214524Y-102733333D01*
X133357382Y-102733333D01*
X133452620Y-102780952D01*
X133500239Y-102828571D01*
X133547858Y-102923810D01*
X133547858Y-103161905D01*
X133500239Y-103257143D01*
X133452620Y-103304762D01*
X133357382Y-103352381D01*
X133071667Y-103352381D01*
X132976429Y-103304762D01*
X132928810Y-103257143D01*
X160361334Y-102851143D02*
X160313715Y-102898762D01*
X160170858Y-102946381D01*
X160075620Y-102946381D01*
X159932762Y-102898762D01*
X159837524Y-102803524D01*
X159789905Y-102708286D01*
X159742286Y-102517810D01*
X159742286Y-102374952D01*
X159789905Y-102184476D01*
X159837524Y-102089238D01*
X159932762Y-101994000D01*
X160075620Y-101946381D01*
X160170858Y-101946381D01*
X160313715Y-101994000D01*
X160361334Y-102041619D01*
X160742286Y-102041619D02*
X160789905Y-101994000D01*
X160885143Y-101946381D01*
X161123239Y-101946381D01*
X161218477Y-101994000D01*
X161266096Y-102041619D01*
X161313715Y-102136857D01*
X161313715Y-102232095D01*
X161266096Y-102374952D01*
X160694667Y-102946381D01*
X161313715Y-102946381D01*
X158408952Y-105746381D02*
X158504191Y-105746381D01*
X158599429Y-105794000D01*
X158647048Y-105841619D01*
X158694667Y-105936857D01*
X158742286Y-106127333D01*
X158742286Y-106365429D01*
X158694667Y-106555905D01*
X158647048Y-106651143D01*
X158599429Y-106698762D01*
X158504191Y-106746381D01*
X158408952Y-106746381D01*
X158313714Y-106698762D01*
X158266095Y-106651143D01*
X158218476Y-106555905D01*
X158170857Y-106365429D01*
X158170857Y-106127333D01*
X158218476Y-105936857D01*
X158266095Y-105841619D01*
X158313714Y-105794000D01*
X158408952Y-105746381D01*
X159170857Y-106651143D02*
X159218476Y-106698762D01*
X159170857Y-106746381D01*
X159123238Y-106698762D01*
X159170857Y-106651143D01*
X159170857Y-106746381D01*
X159551809Y-105746381D02*
X160170857Y-105746381D01*
X159837523Y-106127333D01*
X159980381Y-106127333D01*
X160075619Y-106174952D01*
X160123238Y-106222571D01*
X160170857Y-106317810D01*
X160170857Y-106555905D01*
X160123238Y-106651143D01*
X160075619Y-106698762D01*
X159980381Y-106746381D01*
X159694666Y-106746381D01*
X159599428Y-106698762D01*
X159551809Y-106651143D01*
X160504190Y-105746381D02*
X161123238Y-105746381D01*
X160789904Y-106127333D01*
X160932762Y-106127333D01*
X161028000Y-106174952D01*
X161075619Y-106222571D01*
X161123238Y-106317810D01*
X161123238Y-106555905D01*
X161075619Y-106651143D01*
X161028000Y-106698762D01*
X160932762Y-106746381D01*
X160647047Y-106746381D01*
X160551809Y-106698762D01*
X160504190Y-106651143D01*
X161980381Y-106079714D02*
X161980381Y-106746381D01*
X161551809Y-106079714D02*
X161551809Y-106603524D01*
X161599428Y-106698762D01*
X161694666Y-106746381D01*
X161837524Y-106746381D01*
X161932762Y-106698762D01*
X161980381Y-106651143D01*
X162789905Y-106222571D02*
X162456571Y-106222571D01*
X162456571Y-106746381D02*
X162456571Y-105746381D01*
X162932762Y-105746381D01*
X124644143Y-107151666D02*
X124691762Y-107199285D01*
X124739381Y-107342142D01*
X124739381Y-107437380D01*
X124691762Y-107580238D01*
X124596524Y-107675476D01*
X124501286Y-107723095D01*
X124310810Y-107770714D01*
X124167952Y-107770714D01*
X123977476Y-107723095D01*
X123882238Y-107675476D01*
X123787000Y-107580238D01*
X123739381Y-107437380D01*
X123739381Y-107342142D01*
X123787000Y-107199285D01*
X123834619Y-107151666D01*
X123739381Y-106818333D02*
X123739381Y-106199285D01*
X124120333Y-106532619D01*
X124120333Y-106389761D01*
X124167952Y-106294523D01*
X124215571Y-106246904D01*
X124310810Y-106199285D01*
X124548905Y-106199285D01*
X124644143Y-106246904D01*
X124691762Y-106294523D01*
X124739381Y-106389761D01*
X124739381Y-106675476D01*
X124691762Y-106770714D01*
X124644143Y-106818333D01*
X127539381Y-109104048D02*
X127539381Y-109008809D01*
X127587000Y-108913571D01*
X127634619Y-108865952D01*
X127729857Y-108818333D01*
X127920333Y-108770714D01*
X128158429Y-108770714D01*
X128348905Y-108818333D01*
X128444143Y-108865952D01*
X128491762Y-108913571D01*
X128539381Y-109008809D01*
X128539381Y-109104048D01*
X128491762Y-109199286D01*
X128444143Y-109246905D01*
X128348905Y-109294524D01*
X128158429Y-109342143D01*
X127920333Y-109342143D01*
X127729857Y-109294524D01*
X127634619Y-109246905D01*
X127587000Y-109199286D01*
X127539381Y-109104048D01*
X128444143Y-108342143D02*
X128491762Y-108294524D01*
X128539381Y-108342143D01*
X128491762Y-108389762D01*
X128444143Y-108342143D01*
X128539381Y-108342143D01*
X127539381Y-107961191D02*
X127539381Y-107342143D01*
X127920333Y-107675477D01*
X127920333Y-107532619D01*
X127967952Y-107437381D01*
X128015571Y-107389762D01*
X128110810Y-107342143D01*
X128348905Y-107342143D01*
X128444143Y-107389762D01*
X128491762Y-107437381D01*
X128539381Y-107532619D01*
X128539381Y-107818334D01*
X128491762Y-107913572D01*
X128444143Y-107961191D01*
X127539381Y-107008810D02*
X127539381Y-106389762D01*
X127920333Y-106723096D01*
X127920333Y-106580238D01*
X127967952Y-106485000D01*
X128015571Y-106437381D01*
X128110810Y-106389762D01*
X128348905Y-106389762D01*
X128444143Y-106437381D01*
X128491762Y-106485000D01*
X128539381Y-106580238D01*
X128539381Y-106865953D01*
X128491762Y-106961191D01*
X128444143Y-107008810D01*
X127872714Y-105532619D02*
X128539381Y-105532619D01*
X127872714Y-105961191D02*
X128396524Y-105961191D01*
X128491762Y-105913572D01*
X128539381Y-105818334D01*
X128539381Y-105675476D01*
X128491762Y-105580238D01*
X128444143Y-105532619D01*
X128015571Y-104723095D02*
X128015571Y-105056429D01*
X128539381Y-105056429D02*
X127539381Y-105056429D01*
X127539381Y-104580238D01*
X164552334Y-103016143D02*
X164504715Y-103063762D01*
X164361858Y-103111381D01*
X164266620Y-103111381D01*
X164123762Y-103063762D01*
X164028524Y-102968524D01*
X163980905Y-102873286D01*
X163933286Y-102682810D01*
X163933286Y-102539952D01*
X163980905Y-102349476D01*
X164028524Y-102254238D01*
X164123762Y-102159000D01*
X164266620Y-102111381D01*
X164361858Y-102111381D01*
X164504715Y-102159000D01*
X164552334Y-102206619D01*
X165409477Y-102444714D02*
X165409477Y-103111381D01*
X165171381Y-102063762D02*
X164933286Y-102778048D01*
X165552334Y-102778048D01*
X162123762Y-97911381D02*
X162219001Y-97911381D01*
X162314239Y-97959000D01*
X162361858Y-98006619D01*
X162409477Y-98101857D01*
X162457096Y-98292333D01*
X162457096Y-98530429D01*
X162409477Y-98720905D01*
X162361858Y-98816143D01*
X162314239Y-98863762D01*
X162219001Y-98911381D01*
X162123762Y-98911381D01*
X162028524Y-98863762D01*
X161980905Y-98816143D01*
X161933286Y-98720905D01*
X161885667Y-98530429D01*
X161885667Y-98292333D01*
X161933286Y-98101857D01*
X161980905Y-98006619D01*
X162028524Y-97959000D01*
X162123762Y-97911381D01*
X162885667Y-98816143D02*
X162933286Y-98863762D01*
X162885667Y-98911381D01*
X162838048Y-98863762D01*
X162885667Y-98816143D01*
X162885667Y-98911381D01*
X163552333Y-97911381D02*
X163647572Y-97911381D01*
X163742810Y-97959000D01*
X163790429Y-98006619D01*
X163838048Y-98101857D01*
X163885667Y-98292333D01*
X163885667Y-98530429D01*
X163838048Y-98720905D01*
X163790429Y-98816143D01*
X163742810Y-98863762D01*
X163647572Y-98911381D01*
X163552333Y-98911381D01*
X163457095Y-98863762D01*
X163409476Y-98816143D01*
X163361857Y-98720905D01*
X163314238Y-98530429D01*
X163314238Y-98292333D01*
X163361857Y-98101857D01*
X163409476Y-98006619D01*
X163457095Y-97959000D01*
X163552333Y-97911381D01*
X164742810Y-98244714D02*
X164742810Y-98911381D01*
X164504714Y-97863762D02*
X164266619Y-98578048D01*
X164885667Y-98578048D01*
X165171381Y-97911381D02*
X165838048Y-97911381D01*
X165409476Y-98911381D01*
X166647572Y-98244714D02*
X166647572Y-98911381D01*
X166219000Y-98244714D02*
X166219000Y-98768524D01*
X166266619Y-98863762D01*
X166361857Y-98911381D01*
X166504715Y-98911381D01*
X166599953Y-98863762D01*
X166647572Y-98816143D01*
X167457096Y-98387571D02*
X167123762Y-98387571D01*
X167123762Y-98911381D02*
X167123762Y-97911381D01*
X167599953Y-97911381D01*
X166697143Y-111545666D02*
X166744762Y-111593285D01*
X166792381Y-111736142D01*
X166792381Y-111831380D01*
X166744762Y-111974238D01*
X166649524Y-112069476D01*
X166554286Y-112117095D01*
X166363810Y-112164714D01*
X166220952Y-112164714D01*
X166030476Y-112117095D01*
X165935238Y-112069476D01*
X165840000Y-111974238D01*
X165792381Y-111831380D01*
X165792381Y-111736142D01*
X165840000Y-111593285D01*
X165887619Y-111545666D01*
X165792381Y-110640904D02*
X165792381Y-111117095D01*
X166268571Y-111164714D01*
X166220952Y-111117095D01*
X166173333Y-111021857D01*
X166173333Y-110783761D01*
X166220952Y-110688523D01*
X166268571Y-110640904D01*
X166363810Y-110593285D01*
X166601905Y-110593285D01*
X166697143Y-110640904D01*
X166744762Y-110688523D01*
X166792381Y-110783761D01*
X166792381Y-111021857D01*
X166744762Y-111117095D01*
X166697143Y-111164714D01*
X161992381Y-113498048D02*
X161992381Y-113402809D01*
X162040000Y-113307571D01*
X162087619Y-113259952D01*
X162182857Y-113212333D01*
X162373333Y-113164714D01*
X162611429Y-113164714D01*
X162801905Y-113212333D01*
X162897143Y-113259952D01*
X162944762Y-113307571D01*
X162992381Y-113402809D01*
X162992381Y-113498048D01*
X162944762Y-113593286D01*
X162897143Y-113640905D01*
X162801905Y-113688524D01*
X162611429Y-113736143D01*
X162373333Y-113736143D01*
X162182857Y-113688524D01*
X162087619Y-113640905D01*
X162040000Y-113593286D01*
X161992381Y-113498048D01*
X162897143Y-112736143D02*
X162944762Y-112688524D01*
X162992381Y-112736143D01*
X162944762Y-112783762D01*
X162897143Y-112736143D01*
X162992381Y-112736143D01*
X161992381Y-112355191D02*
X161992381Y-111736143D01*
X162373333Y-112069477D01*
X162373333Y-111926619D01*
X162420952Y-111831381D01*
X162468571Y-111783762D01*
X162563810Y-111736143D01*
X162801905Y-111736143D01*
X162897143Y-111783762D01*
X162944762Y-111831381D01*
X162992381Y-111926619D01*
X162992381Y-112212334D01*
X162944762Y-112307572D01*
X162897143Y-112355191D01*
X161992381Y-111402810D02*
X161992381Y-110783762D01*
X162373333Y-111117096D01*
X162373333Y-110974238D01*
X162420952Y-110879000D01*
X162468571Y-110831381D01*
X162563810Y-110783762D01*
X162801905Y-110783762D01*
X162897143Y-110831381D01*
X162944762Y-110879000D01*
X162992381Y-110974238D01*
X162992381Y-111259953D01*
X162944762Y-111355191D01*
X162897143Y-111402810D01*
X162325714Y-109926619D02*
X162992381Y-109926619D01*
X162325714Y-110355191D02*
X162849524Y-110355191D01*
X162944762Y-110307572D01*
X162992381Y-110212334D01*
X162992381Y-110069476D01*
X162944762Y-109974238D01*
X162897143Y-109926619D01*
X162468571Y-109117095D02*
X162468571Y-109450429D01*
X162992381Y-109450429D02*
X161992381Y-109450429D01*
X161992381Y-108974238D01*
X134301334Y-102854143D02*
X134253715Y-102901762D01*
X134110858Y-102949381D01*
X134015620Y-102949381D01*
X133872762Y-102901762D01*
X133777524Y-102806524D01*
X133729905Y-102711286D01*
X133682286Y-102520810D01*
X133682286Y-102377952D01*
X133729905Y-102187476D01*
X133777524Y-102092238D01*
X133872762Y-101997000D01*
X134015620Y-101949381D01*
X134110858Y-101949381D01*
X134253715Y-101997000D01*
X134301334Y-102044619D01*
X135158477Y-101949381D02*
X134968000Y-101949381D01*
X134872762Y-101997000D01*
X134825143Y-102044619D01*
X134729905Y-102187476D01*
X134682286Y-102377952D01*
X134682286Y-102758905D01*
X134729905Y-102854143D01*
X134777524Y-102901762D01*
X134872762Y-102949381D01*
X135063239Y-102949381D01*
X135158477Y-102901762D01*
X135206096Y-102854143D01*
X135253715Y-102758905D01*
X135253715Y-102520810D01*
X135206096Y-102425571D01*
X135158477Y-102377952D01*
X135063239Y-102330333D01*
X134872762Y-102330333D01*
X134777524Y-102377952D01*
X134729905Y-102425571D01*
X134682286Y-102520810D01*
X129587047Y-106149381D02*
X129682286Y-106149381D01*
X129777524Y-106197000D01*
X129825143Y-106244619D01*
X129872762Y-106339857D01*
X129920381Y-106530333D01*
X129920381Y-106768429D01*
X129872762Y-106958905D01*
X129825143Y-107054143D01*
X129777524Y-107101762D01*
X129682286Y-107149381D01*
X129587047Y-107149381D01*
X129491809Y-107101762D01*
X129444190Y-107054143D01*
X129396571Y-106958905D01*
X129348952Y-106768429D01*
X129348952Y-106530333D01*
X129396571Y-106339857D01*
X129444190Y-106244619D01*
X129491809Y-106197000D01*
X129587047Y-106149381D01*
X130348952Y-107054143D02*
X130396571Y-107101762D01*
X130348952Y-107149381D01*
X130301333Y-107101762D01*
X130348952Y-107054143D01*
X130348952Y-107149381D01*
X131015618Y-106149381D02*
X131110857Y-106149381D01*
X131206095Y-106197000D01*
X131253714Y-106244619D01*
X131301333Y-106339857D01*
X131348952Y-106530333D01*
X131348952Y-106768429D01*
X131301333Y-106958905D01*
X131253714Y-107054143D01*
X131206095Y-107101762D01*
X131110857Y-107149381D01*
X131015618Y-107149381D01*
X130920380Y-107101762D01*
X130872761Y-107054143D01*
X130825142Y-106958905D01*
X130777523Y-106768429D01*
X130777523Y-106530333D01*
X130825142Y-106339857D01*
X130872761Y-106244619D01*
X130920380Y-106197000D01*
X131015618Y-106149381D01*
X132206095Y-106482714D02*
X132206095Y-107149381D01*
X131967999Y-106101762D02*
X131729904Y-106816048D01*
X132348952Y-106816048D01*
X132634666Y-106149381D02*
X133301333Y-106149381D01*
X132872761Y-107149381D01*
X134110857Y-106482714D02*
X134110857Y-107149381D01*
X133682285Y-106482714D02*
X133682285Y-107006524D01*
X133729904Y-107101762D01*
X133825142Y-107149381D01*
X133968000Y-107149381D01*
X134063238Y-107101762D01*
X134110857Y-107054143D01*
X134920381Y-106625571D02*
X134587047Y-106625571D01*
X134587047Y-107149381D02*
X134587047Y-106149381D01*
X135063238Y-106149381D01*
X135206095Y-107244619D02*
X135968000Y-107244619D01*
X136396571Y-106149381D02*
X136491810Y-106149381D01*
X136587048Y-106197000D01*
X136634667Y-106244619D01*
X136682286Y-106339857D01*
X136729905Y-106530333D01*
X136729905Y-106768429D01*
X136682286Y-106958905D01*
X136634667Y-107054143D01*
X136587048Y-107101762D01*
X136491810Y-107149381D01*
X136396571Y-107149381D01*
X136301333Y-107101762D01*
X136253714Y-107054143D01*
X136206095Y-106958905D01*
X136158476Y-106768429D01*
X136158476Y-106530333D01*
X136206095Y-106339857D01*
X136253714Y-106244619D01*
X136301333Y-106197000D01*
X136396571Y-106149381D01*
X137301333Y-106577952D02*
X137206095Y-106530333D01*
X137158476Y-106482714D01*
X137110857Y-106387476D01*
X137110857Y-106339857D01*
X137158476Y-106244619D01*
X137206095Y-106197000D01*
X137301333Y-106149381D01*
X137491810Y-106149381D01*
X137587048Y-106197000D01*
X137634667Y-106244619D01*
X137682286Y-106339857D01*
X137682286Y-106387476D01*
X137634667Y-106482714D01*
X137587048Y-106530333D01*
X137491810Y-106577952D01*
X137301333Y-106577952D01*
X137206095Y-106625571D01*
X137158476Y-106673190D01*
X137110857Y-106768429D01*
X137110857Y-106958905D01*
X137158476Y-107054143D01*
X137206095Y-107101762D01*
X137301333Y-107149381D01*
X137491810Y-107149381D01*
X137587048Y-107101762D01*
X137634667Y-107054143D01*
X137682286Y-106958905D01*
X137682286Y-106768429D01*
X137634667Y-106673190D01*
X137587048Y-106625571D01*
X137491810Y-106577952D01*
X138301333Y-106149381D02*
X138396572Y-106149381D01*
X138491810Y-106197000D01*
X138539429Y-106244619D01*
X138587048Y-106339857D01*
X138634667Y-106530333D01*
X138634667Y-106768429D01*
X138587048Y-106958905D01*
X138539429Y-107054143D01*
X138491810Y-107101762D01*
X138396572Y-107149381D01*
X138301333Y-107149381D01*
X138206095Y-107101762D01*
X138158476Y-107054143D01*
X138110857Y-106958905D01*
X138063238Y-106768429D01*
X138063238Y-106530333D01*
X138110857Y-106339857D01*
X138158476Y-106244619D01*
X138206095Y-106197000D01*
X138301333Y-106149381D01*
X139539429Y-106149381D02*
X139063238Y-106149381D01*
X139015619Y-106625571D01*
X139063238Y-106577952D01*
X139158476Y-106530333D01*
X139396572Y-106530333D01*
X139491810Y-106577952D01*
X139539429Y-106625571D01*
X139587048Y-106720810D01*
X139587048Y-106958905D01*
X139539429Y-107054143D01*
X139491810Y-107101762D01*
X139396572Y-107149381D01*
X139158476Y-107149381D01*
X139063238Y-107101762D01*
X139015619Y-107054143D01*
X136790334Y-108988143D02*
X136742715Y-109035762D01*
X136599858Y-109083381D01*
X136504620Y-109083381D01*
X136361762Y-109035762D01*
X136266524Y-108940524D01*
X136218905Y-108845286D01*
X136171286Y-108654810D01*
X136171286Y-108511952D01*
X136218905Y-108321476D01*
X136266524Y-108226238D01*
X136361762Y-108131000D01*
X136504620Y-108083381D01*
X136599858Y-108083381D01*
X136742715Y-108131000D01*
X136790334Y-108178619D01*
X137123667Y-108083381D02*
X137790334Y-108083381D01*
X137361762Y-109083381D01*
X134837952Y-104283381D02*
X134933191Y-104283381D01*
X135028429Y-104331000D01*
X135076048Y-104378619D01*
X135123667Y-104473857D01*
X135171286Y-104664333D01*
X135171286Y-104902429D01*
X135123667Y-105092905D01*
X135076048Y-105188143D01*
X135028429Y-105235762D01*
X134933191Y-105283381D01*
X134837952Y-105283381D01*
X134742714Y-105235762D01*
X134695095Y-105188143D01*
X134647476Y-105092905D01*
X134599857Y-104902429D01*
X134599857Y-104664333D01*
X134647476Y-104473857D01*
X134695095Y-104378619D01*
X134742714Y-104331000D01*
X134837952Y-104283381D01*
X135599857Y-105188143D02*
X135647476Y-105235762D01*
X135599857Y-105283381D01*
X135552238Y-105235762D01*
X135599857Y-105188143D01*
X135599857Y-105283381D01*
X135980809Y-104283381D02*
X136599857Y-104283381D01*
X136266523Y-104664333D01*
X136409381Y-104664333D01*
X136504619Y-104711952D01*
X136552238Y-104759571D01*
X136599857Y-104854810D01*
X136599857Y-105092905D01*
X136552238Y-105188143D01*
X136504619Y-105235762D01*
X136409381Y-105283381D01*
X136123666Y-105283381D01*
X136028428Y-105235762D01*
X135980809Y-105188143D01*
X136933190Y-104283381D02*
X137552238Y-104283381D01*
X137218904Y-104664333D01*
X137361762Y-104664333D01*
X137457000Y-104711952D01*
X137504619Y-104759571D01*
X137552238Y-104854810D01*
X137552238Y-105092905D01*
X137504619Y-105188143D01*
X137457000Y-105235762D01*
X137361762Y-105283381D01*
X137076047Y-105283381D01*
X136980809Y-105235762D01*
X136933190Y-105188143D01*
X138409381Y-104616714D02*
X138409381Y-105283381D01*
X137980809Y-104616714D02*
X137980809Y-105140524D01*
X138028428Y-105235762D01*
X138123666Y-105283381D01*
X138266524Y-105283381D01*
X138361762Y-105235762D01*
X138409381Y-105188143D01*
X139218905Y-104759571D02*
X138885571Y-104759571D01*
X138885571Y-105283381D02*
X138885571Y-104283381D01*
X139361762Y-104283381D01*
X160611143Y-109386666D02*
X160658762Y-109434285D01*
X160706381Y-109577142D01*
X160706381Y-109672380D01*
X160658762Y-109815238D01*
X160563524Y-109910476D01*
X160468286Y-109958095D01*
X160277810Y-110005714D01*
X160134952Y-110005714D01*
X159944476Y-109958095D01*
X159849238Y-109910476D01*
X159754000Y-109815238D01*
X159706381Y-109672380D01*
X159706381Y-109577142D01*
X159754000Y-109434285D01*
X159801619Y-109386666D01*
X160134952Y-108815238D02*
X160087333Y-108910476D01*
X160039714Y-108958095D01*
X159944476Y-109005714D01*
X159896857Y-109005714D01*
X159801619Y-108958095D01*
X159754000Y-108910476D01*
X159706381Y-108815238D01*
X159706381Y-108624761D01*
X159754000Y-108529523D01*
X159801619Y-108481904D01*
X159896857Y-108434285D01*
X159944476Y-108434285D01*
X160039714Y-108481904D01*
X160087333Y-108529523D01*
X160134952Y-108624761D01*
X160134952Y-108815238D01*
X160182571Y-108910476D01*
X160230190Y-108958095D01*
X160325429Y-109005714D01*
X160515905Y-109005714D01*
X160611143Y-108958095D01*
X160658762Y-108910476D01*
X160706381Y-108815238D01*
X160706381Y-108624761D01*
X160658762Y-108529523D01*
X160611143Y-108481904D01*
X160515905Y-108434285D01*
X160325429Y-108434285D01*
X160230190Y-108481904D01*
X160182571Y-108529523D01*
X160134952Y-108624761D01*
X163506381Y-111339048D02*
X163506381Y-111243809D01*
X163554000Y-111148571D01*
X163601619Y-111100952D01*
X163696857Y-111053333D01*
X163887333Y-111005714D01*
X164125429Y-111005714D01*
X164315905Y-111053333D01*
X164411143Y-111100952D01*
X164458762Y-111148571D01*
X164506381Y-111243809D01*
X164506381Y-111339048D01*
X164458762Y-111434286D01*
X164411143Y-111481905D01*
X164315905Y-111529524D01*
X164125429Y-111577143D01*
X163887333Y-111577143D01*
X163696857Y-111529524D01*
X163601619Y-111481905D01*
X163554000Y-111434286D01*
X163506381Y-111339048D01*
X164411143Y-110577143D02*
X164458762Y-110529524D01*
X164506381Y-110577143D01*
X164458762Y-110624762D01*
X164411143Y-110577143D01*
X164506381Y-110577143D01*
X163506381Y-110196191D02*
X163506381Y-109577143D01*
X163887333Y-109910477D01*
X163887333Y-109767619D01*
X163934952Y-109672381D01*
X163982571Y-109624762D01*
X164077810Y-109577143D01*
X164315905Y-109577143D01*
X164411143Y-109624762D01*
X164458762Y-109672381D01*
X164506381Y-109767619D01*
X164506381Y-110053334D01*
X164458762Y-110148572D01*
X164411143Y-110196191D01*
X163506381Y-109243810D02*
X163506381Y-108624762D01*
X163887333Y-108958096D01*
X163887333Y-108815238D01*
X163934952Y-108720000D01*
X163982571Y-108672381D01*
X164077810Y-108624762D01*
X164315905Y-108624762D01*
X164411143Y-108672381D01*
X164458762Y-108720000D01*
X164506381Y-108815238D01*
X164506381Y-109100953D01*
X164458762Y-109196191D01*
X164411143Y-109243810D01*
X163839714Y-107767619D02*
X164506381Y-107767619D01*
X163839714Y-108196191D02*
X164363524Y-108196191D01*
X164458762Y-108148572D01*
X164506381Y-108053334D01*
X164506381Y-107910476D01*
X164458762Y-107815238D01*
X164411143Y-107767619D01*
X163982571Y-106958095D02*
X163982571Y-107291429D01*
X164506381Y-107291429D02*
X163506381Y-107291429D01*
X163506381Y-106815238D01*
D13*
X102187429Y-114656000D02*
X103276000Y-114656000D01*
X103493714Y-114728572D01*
X103638857Y-114873715D01*
X103711429Y-115091429D01*
X103711429Y-115236572D01*
X103711429Y-113132000D02*
X103711429Y-114002857D01*
X103711429Y-113567429D02*
X102187429Y-113567429D01*
X102405143Y-113712572D01*
X102550286Y-113857714D01*
X102622857Y-114002857D01*
X110061429Y-126231143D02*
X108537429Y-126231143D01*
X108537429Y-125868286D01*
X108610000Y-125650571D01*
X108755143Y-125505429D01*
X108900286Y-125432857D01*
X109190571Y-125360286D01*
X109408286Y-125360286D01*
X109698571Y-125432857D01*
X109843714Y-125505429D01*
X109988857Y-125650571D01*
X110061429Y-125868286D01*
X110061429Y-126231143D01*
X109263143Y-124199143D02*
X109335714Y-123981429D01*
X109408286Y-123908857D01*
X109553429Y-123836286D01*
X109771143Y-123836286D01*
X109916286Y-123908857D01*
X109988857Y-123981429D01*
X110061429Y-124126571D01*
X110061429Y-124707143D01*
X108537429Y-124707143D01*
X108537429Y-124199143D01*
X108610000Y-124054000D01*
X108682571Y-123981429D01*
X108827714Y-123908857D01*
X108972857Y-123908857D01*
X109118000Y-123981429D01*
X109190571Y-124054000D01*
X109263143Y-124199143D01*
X109263143Y-124707143D01*
X110061429Y-123110571D02*
X110061429Y-122820286D01*
X109988857Y-122675143D01*
X109916286Y-122602571D01*
X109698571Y-122457429D01*
X109408286Y-122384857D01*
X108827714Y-122384857D01*
X108682571Y-122457429D01*
X108610000Y-122530000D01*
X108537429Y-122675143D01*
X108537429Y-122965429D01*
X108610000Y-123110571D01*
X108682571Y-123183143D01*
X108827714Y-123255714D01*
X109190571Y-123255714D01*
X109335714Y-123183143D01*
X109408286Y-123110571D01*
X109480857Y-122965429D01*
X109480857Y-122675143D01*
X109408286Y-122530000D01*
X109335714Y-122457429D01*
X109190571Y-122384857D01*
X110206571Y-122094571D02*
X110206571Y-120933428D01*
X109263143Y-120062571D02*
X109263143Y-120570571D01*
X110061429Y-120570571D02*
X108537429Y-120570571D01*
X108537429Y-119844857D01*
X109263143Y-119264285D02*
X109263143Y-118756285D01*
X110061429Y-118538571D02*
X110061429Y-119264285D01*
X108537429Y-119264285D01*
X108537429Y-118538571D01*
X110061429Y-117885428D02*
X108537429Y-117885428D01*
X109626000Y-117377428D01*
X108537429Y-116869428D01*
X110061429Y-116869428D01*
X109626000Y-116216285D02*
X109626000Y-115490571D01*
X110061429Y-116361428D02*
X108537429Y-115853428D01*
X110061429Y-115345428D01*
X110061429Y-114111714D02*
X110061429Y-114837428D01*
X108537429Y-114837428D01*
X109263143Y-113603714D02*
X109263143Y-113095714D01*
X110061429Y-112878000D02*
X110061429Y-113603714D01*
X108537429Y-113603714D01*
X108537429Y-112878000D01*
X110206571Y-112587714D02*
X110206571Y-111426571D01*
X110206571Y-111426571D02*
X110206571Y-110265428D01*
X108537429Y-110120285D02*
X108537429Y-109249428D01*
X110061429Y-109684857D02*
X108537429Y-109684857D01*
X108537429Y-108451142D02*
X108537429Y-108160856D01*
X108610000Y-108015714D01*
X108755143Y-107870571D01*
X109045429Y-107797999D01*
X109553429Y-107797999D01*
X109843714Y-107870571D01*
X109988857Y-108015714D01*
X110061429Y-108160856D01*
X110061429Y-108451142D01*
X109988857Y-108596285D01*
X109843714Y-108741428D01*
X109553429Y-108813999D01*
X109045429Y-108813999D01*
X108755143Y-108741428D01*
X108610000Y-108596285D01*
X108537429Y-108451142D01*
X110206571Y-107507714D02*
X110206571Y-106346571D01*
X109916286Y-105112857D02*
X109988857Y-105185428D01*
X110061429Y-105403142D01*
X110061429Y-105548285D01*
X109988857Y-105766000D01*
X109843714Y-105911142D01*
X109698571Y-105983714D01*
X109408286Y-106056285D01*
X109190571Y-106056285D01*
X108900286Y-105983714D01*
X108755143Y-105911142D01*
X108610000Y-105766000D01*
X108537429Y-105548285D01*
X108537429Y-105403142D01*
X108610000Y-105185428D01*
X108682571Y-105112857D01*
X110061429Y-104459714D02*
X108537429Y-104459714D01*
X108537429Y-103879142D01*
X108610000Y-103734000D01*
X108682571Y-103661428D01*
X108827714Y-103588857D01*
X109045429Y-103588857D01*
X109190571Y-103661428D01*
X109263143Y-103734000D01*
X109335714Y-103879142D01*
X109335714Y-104459714D01*
X108537429Y-102935714D02*
X109771143Y-102935714D01*
X109916286Y-102863142D01*
X109988857Y-102790571D01*
X110061429Y-102645428D01*
X110061429Y-102355142D01*
X109988857Y-102210000D01*
X109916286Y-102137428D01*
X109771143Y-102064857D01*
X108537429Y-102064857D01*
X167132000Y-126165429D02*
X167132000Y-127254000D01*
X167059428Y-127471714D01*
X166914285Y-127616857D01*
X166696571Y-127689429D01*
X166551428Y-127689429D01*
X167785143Y-126310571D02*
X167857714Y-126238000D01*
X168002857Y-126165429D01*
X168365714Y-126165429D01*
X168510857Y-126238000D01*
X168583428Y-126310571D01*
X168656000Y-126455714D01*
X168656000Y-126600857D01*
X168583428Y-126818571D01*
X167712571Y-127689429D01*
X168656000Y-127689429D01*
X155339143Y-121339429D02*
X155339143Y-119815429D01*
X155702000Y-119815429D01*
X155919715Y-119888000D01*
X156064857Y-120033143D01*
X156137429Y-120178286D01*
X156210000Y-120468571D01*
X156210000Y-120686286D01*
X156137429Y-120976571D01*
X156064857Y-121121714D01*
X155919715Y-121266857D01*
X155702000Y-121339429D01*
X155339143Y-121339429D01*
X157371143Y-120541143D02*
X157588857Y-120613714D01*
X157661429Y-120686286D01*
X157734000Y-120831429D01*
X157734000Y-121049143D01*
X157661429Y-121194286D01*
X157588857Y-121266857D01*
X157443715Y-121339429D01*
X156863143Y-121339429D01*
X156863143Y-119815429D01*
X157371143Y-119815429D01*
X157516286Y-119888000D01*
X157588857Y-119960571D01*
X157661429Y-120105714D01*
X157661429Y-120250857D01*
X157588857Y-120396000D01*
X157516286Y-120468571D01*
X157371143Y-120541143D01*
X156863143Y-120541143D01*
X158459715Y-121339429D02*
X158750000Y-121339429D01*
X158895143Y-121266857D01*
X158967715Y-121194286D01*
X159112857Y-120976571D01*
X159185429Y-120686286D01*
X159185429Y-120105714D01*
X159112857Y-119960571D01*
X159040286Y-119888000D01*
X158895143Y-119815429D01*
X158604857Y-119815429D01*
X158459715Y-119888000D01*
X158387143Y-119960571D01*
X158314572Y-120105714D01*
X158314572Y-120468571D01*
X158387143Y-120613714D01*
X158459715Y-120686286D01*
X158604857Y-120758857D01*
X158895143Y-120758857D01*
X159040286Y-120686286D01*
X159112857Y-120613714D01*
X159185429Y-120468571D01*
X159475715Y-121484571D02*
X160636858Y-121484571D01*
X160999715Y-121339429D02*
X160999715Y-119815429D01*
X161507715Y-120904000D01*
X162015715Y-119815429D01*
X162015715Y-121339429D01*
X162668858Y-120904000D02*
X163394572Y-120904000D01*
X162523715Y-121339429D02*
X163031715Y-119815429D01*
X163539715Y-121339429D01*
X164773429Y-121339429D02*
X164047715Y-121339429D01*
X164047715Y-119815429D01*
X165281429Y-120541143D02*
X165789429Y-120541143D01*
X166007143Y-121339429D02*
X165281429Y-121339429D01*
X165281429Y-119815429D01*
X166007143Y-119815429D01*
X166297429Y-121484571D02*
X167458572Y-121484571D01*
X167458572Y-121484571D02*
X168619715Y-121484571D01*
X168764858Y-119815429D02*
X169635715Y-119815429D01*
X169200286Y-121339429D02*
X169200286Y-119815429D01*
X170434001Y-119815429D02*
X170724287Y-119815429D01*
X170869429Y-119888000D01*
X171014572Y-120033143D01*
X171087144Y-120323429D01*
X171087144Y-120831429D01*
X171014572Y-121121714D01*
X170869429Y-121266857D01*
X170724287Y-121339429D01*
X170434001Y-121339429D01*
X170288858Y-121266857D01*
X170143715Y-121121714D01*
X170071144Y-120831429D01*
X170071144Y-120323429D01*
X170143715Y-120033143D01*
X170288858Y-119888000D01*
X170434001Y-119815429D01*
X171377429Y-121484571D02*
X172538572Y-121484571D01*
X172901429Y-121339429D02*
X172901429Y-119815429D01*
X173409429Y-120904000D01*
X173917429Y-119815429D01*
X173917429Y-121339429D01*
X174933429Y-119815429D02*
X175223715Y-119815429D01*
X175368857Y-119888000D01*
X175514000Y-120033143D01*
X175586572Y-120323429D01*
X175586572Y-120831429D01*
X175514000Y-121121714D01*
X175368857Y-121266857D01*
X175223715Y-121339429D01*
X174933429Y-121339429D01*
X174788286Y-121266857D01*
X174643143Y-121121714D01*
X174570572Y-120831429D01*
X174570572Y-120323429D01*
X174643143Y-120033143D01*
X174788286Y-119888000D01*
X174933429Y-119815429D01*
X176239714Y-119815429D02*
X176239714Y-121049143D01*
X176312286Y-121194286D01*
X176384857Y-121266857D01*
X176530000Y-121339429D01*
X176820286Y-121339429D01*
X176965428Y-121266857D01*
X177038000Y-121194286D01*
X177110571Y-121049143D01*
X177110571Y-119815429D01*
X177763714Y-121266857D02*
X177981428Y-121339429D01*
X178344285Y-121339429D01*
X178489428Y-121266857D01*
X178561999Y-121194286D01*
X178634571Y-121049143D01*
X178634571Y-120904000D01*
X178561999Y-120758857D01*
X178489428Y-120686286D01*
X178344285Y-120613714D01*
X178053999Y-120541143D01*
X177908857Y-120468571D01*
X177836285Y-120396000D01*
X177763714Y-120250857D01*
X177763714Y-120105714D01*
X177836285Y-119960571D01*
X177908857Y-119888000D01*
X178053999Y-119815429D01*
X178416857Y-119815429D01*
X178634571Y-119888000D01*
X179287714Y-120541143D02*
X179795714Y-120541143D01*
X180013428Y-121339429D02*
X179287714Y-121339429D01*
X179287714Y-119815429D01*
X180013428Y-119815429D01*
D17*
X130484982Y-111125242D02*
X130890052Y-111125242D01*
X130937707Y-111101414D01*
X130961535Y-111077587D01*
X130985362Y-111029931D01*
X130985362Y-110934621D01*
X130961535Y-110886966D01*
X130937707Y-110863138D01*
X130890052Y-110839310D01*
X130484982Y-110839310D01*
X130985362Y-110338930D02*
X130985362Y-110624862D01*
X130985362Y-110481896D02*
X130484982Y-110481896D01*
X130556465Y-110529551D01*
X130604120Y-110577206D01*
X130627948Y-110624862D01*
X132612535Y-112316622D02*
X132636362Y-112245139D01*
X132636362Y-112126001D01*
X132612535Y-112078345D01*
X132588707Y-112054518D01*
X132541052Y-112030690D01*
X132493397Y-112030690D01*
X132445741Y-112054518D01*
X132421914Y-112078345D01*
X132398086Y-112126001D01*
X132374259Y-112221311D01*
X132350431Y-112268966D01*
X132326603Y-112292794D01*
X132278948Y-112316622D01*
X132231293Y-112316622D01*
X132183638Y-112292794D01*
X132159810Y-112268966D01*
X132135982Y-112221311D01*
X132135982Y-112102173D01*
X132159810Y-112030690D01*
X132636362Y-111816242D02*
X132135982Y-111816242D01*
X132135982Y-111625621D01*
X132159810Y-111577966D01*
X132183638Y-111554138D01*
X132231293Y-111530310D01*
X132302776Y-111530310D01*
X132350431Y-111554138D01*
X132374259Y-111577966D01*
X132398086Y-111625621D01*
X132398086Y-111816242D01*
X132135982Y-111363517D02*
X132135982Y-111053758D01*
X132326603Y-111220551D01*
X132326603Y-111149069D01*
X132350431Y-111101413D01*
X132374259Y-111077586D01*
X132421914Y-111053758D01*
X132541052Y-111053758D01*
X132588707Y-111077586D01*
X132612535Y-111101413D01*
X132636362Y-111149069D01*
X132636362Y-111292034D01*
X132612535Y-111339690D01*
X132588707Y-111363517D01*
X132183638Y-110863138D02*
X132159810Y-110839310D01*
X132135982Y-110791655D01*
X132135982Y-110672517D01*
X132159810Y-110624861D01*
X132183638Y-110601034D01*
X132231293Y-110577206D01*
X132278948Y-110577206D01*
X132350431Y-110601034D01*
X132636362Y-110886965D01*
X132636362Y-110577206D01*
X132135982Y-110410413D02*
X132135982Y-110100654D01*
X132326603Y-110267447D01*
X132326603Y-110195965D01*
X132350431Y-110148309D01*
X132374259Y-110124482D01*
X132421914Y-110100654D01*
X132541052Y-110100654D01*
X132588707Y-110124482D01*
X132612535Y-110148309D01*
X132636362Y-110195965D01*
X132636362Y-110338930D01*
X132612535Y-110386586D01*
X132588707Y-110410413D01*
X132350431Y-109814723D02*
X132326603Y-109862378D01*
X132302776Y-109886206D01*
X132255120Y-109910034D01*
X132231293Y-109910034D01*
X132183638Y-109886206D01*
X132159810Y-109862378D01*
X132135982Y-109814723D01*
X132135982Y-109719413D01*
X132159810Y-109671757D01*
X132183638Y-109647930D01*
X132231293Y-109624102D01*
X132255120Y-109624102D01*
X132302776Y-109647930D01*
X132326603Y-109671757D01*
X132350431Y-109719413D01*
X132350431Y-109814723D01*
X132374259Y-109862378D01*
X132398086Y-109886206D01*
X132445741Y-109910034D01*
X132541052Y-109910034D01*
X132588707Y-109886206D01*
X132612535Y-109862378D01*
X132636362Y-109814723D01*
X132636362Y-109719413D01*
X132612535Y-109671757D01*
X132588707Y-109647930D01*
X132541052Y-109624102D01*
X132445741Y-109624102D01*
X132398086Y-109647930D01*
X132374259Y-109671757D01*
X132350431Y-109719413D01*
X132374259Y-109409654D02*
X132374259Y-109242861D01*
X132636362Y-109171378D02*
X132636362Y-109409654D01*
X132135982Y-109409654D01*
X132135982Y-109171378D01*
X167258758Y-105643982D02*
X167258758Y-106049052D01*
X167282586Y-106096707D01*
X167306413Y-106120535D01*
X167354069Y-106144362D01*
X167449379Y-106144362D01*
X167497034Y-106120535D01*
X167520862Y-106096707D01*
X167544690Y-106049052D01*
X167544690Y-105643982D01*
X167759138Y-105691638D02*
X167782966Y-105667810D01*
X167830621Y-105643982D01*
X167949759Y-105643982D01*
X167997415Y-105667810D01*
X168021242Y-105691638D01*
X168045070Y-105739293D01*
X168045070Y-105786948D01*
X168021242Y-105858431D01*
X167735311Y-106144362D01*
X168045070Y-106144362D01*
X166067378Y-104469535D02*
X166138861Y-104493362D01*
X166257999Y-104493362D01*
X166305655Y-104469535D01*
X166329482Y-104445707D01*
X166353310Y-104398052D01*
X166353310Y-104350397D01*
X166329482Y-104302741D01*
X166305655Y-104278914D01*
X166257999Y-104255086D01*
X166162689Y-104231259D01*
X166115034Y-104207431D01*
X166091206Y-104183603D01*
X166067378Y-104135948D01*
X166067378Y-104088293D01*
X166091206Y-104040638D01*
X166115034Y-104016810D01*
X166162689Y-103992982D01*
X166281827Y-103992982D01*
X166353310Y-104016810D01*
X166567758Y-104493362D02*
X166567758Y-103992982D01*
X166758379Y-103992982D01*
X166806034Y-104016810D01*
X166829862Y-104040638D01*
X166853690Y-104088293D01*
X166853690Y-104159776D01*
X166829862Y-104207431D01*
X166806034Y-104231259D01*
X166758379Y-104255086D01*
X166567758Y-104255086D01*
X167020483Y-103992982D02*
X167330242Y-103992982D01*
X167163449Y-104183603D01*
X167234931Y-104183603D01*
X167282587Y-104207431D01*
X167306414Y-104231259D01*
X167330242Y-104278914D01*
X167330242Y-104398052D01*
X167306414Y-104445707D01*
X167282587Y-104469535D01*
X167234931Y-104493362D01*
X167091966Y-104493362D01*
X167044310Y-104469535D01*
X167020483Y-104445707D01*
X167520862Y-104040638D02*
X167544690Y-104016810D01*
X167592345Y-103992982D01*
X167711483Y-103992982D01*
X167759139Y-104016810D01*
X167782966Y-104040638D01*
X167806794Y-104088293D01*
X167806794Y-104135948D01*
X167782966Y-104207431D01*
X167497035Y-104493362D01*
X167806794Y-104493362D01*
X168235691Y-104159776D02*
X168235691Y-104493362D01*
X168116553Y-103969155D02*
X167997414Y-104326569D01*
X168307174Y-104326569D01*
X168450139Y-103992982D02*
X168759898Y-103992982D01*
X168593105Y-104183603D01*
X168664587Y-104183603D01*
X168712243Y-104207431D01*
X168736070Y-104231259D01*
X168759898Y-104278914D01*
X168759898Y-104398052D01*
X168736070Y-104445707D01*
X168712243Y-104469535D01*
X168664587Y-104493362D01*
X168521622Y-104493362D01*
X168473966Y-104469535D01*
X168450139Y-104445707D01*
X168974346Y-104231259D02*
X169141139Y-104231259D01*
X169212622Y-104493362D02*
X168974346Y-104493362D01*
X168974346Y-103992982D01*
X169212622Y-103992982D01*
D13*
X132176857Y-94794400D02*
X132249429Y-94576686D01*
X132249429Y-94213829D01*
X132176857Y-94068686D01*
X132104286Y-93996115D01*
X131959143Y-93923543D01*
X131814000Y-93923543D01*
X131668857Y-93996115D01*
X131596286Y-94068686D01*
X131523714Y-94213829D01*
X131451143Y-94504115D01*
X131378571Y-94649257D01*
X131306000Y-94721829D01*
X131160857Y-94794400D01*
X131015714Y-94794400D01*
X130870571Y-94721829D01*
X130798000Y-94649257D01*
X130725429Y-94504115D01*
X130725429Y-94141257D01*
X130798000Y-93923543D01*
X130725429Y-93415543D02*
X132249429Y-93052686D01*
X131160857Y-92762400D01*
X132249429Y-92472114D01*
X130725429Y-92109257D01*
X132249429Y-90730400D02*
X132249429Y-91601257D01*
X132249429Y-91165829D02*
X130725429Y-91165829D01*
X130943143Y-91310972D01*
X131088286Y-91456114D01*
X131160857Y-91601257D01*
X127478571Y-95112115D02*
X127406000Y-95257257D01*
X127333429Y-95329829D01*
X127188286Y-95402400D01*
X127115714Y-95402400D01*
X126970571Y-95329829D01*
X126898000Y-95257257D01*
X126825429Y-95112115D01*
X126825429Y-94821829D01*
X126898000Y-94676686D01*
X126970571Y-94604115D01*
X127115714Y-94531543D01*
X127188286Y-94531543D01*
X127333429Y-94604115D01*
X127406000Y-94676686D01*
X127478571Y-94821829D01*
X127478571Y-95112115D01*
X127551143Y-95257257D01*
X127623714Y-95329829D01*
X127768857Y-95402400D01*
X128059143Y-95402400D01*
X128204286Y-95329829D01*
X128276857Y-95257257D01*
X128349429Y-95112115D01*
X128349429Y-94821829D01*
X128276857Y-94676686D01*
X128204286Y-94604115D01*
X128059143Y-94531543D01*
X127768857Y-94531543D01*
X127623714Y-94604115D01*
X127551143Y-94676686D01*
X127478571Y-94821829D01*
X128349429Y-93878400D02*
X126825429Y-93878400D01*
X126825429Y-93297828D01*
X126898000Y-93152686D01*
X126970571Y-93080114D01*
X127115714Y-93007543D01*
X127333429Y-93007543D01*
X127478571Y-93080114D01*
X127551143Y-93152686D01*
X127623714Y-93297828D01*
X127623714Y-93878400D01*
X128349429Y-92354400D02*
X126825429Y-92354400D01*
X126825429Y-91991543D01*
X126898000Y-91773828D01*
X127043143Y-91628686D01*
X127188286Y-91556114D01*
X127478571Y-91483543D01*
X127696286Y-91483543D01*
X127986571Y-91556114D01*
X128131714Y-91628686D01*
X128276857Y-91773828D01*
X128349429Y-91991543D01*
X128349429Y-92354400D01*
X126825429Y-91048114D02*
X126825429Y-90177257D01*
X128349429Y-90612686D02*
X126825429Y-90612686D01*
M02*
